<?xml version="1.0" encoding="UTF-8" standalone="no"?>
<!DOCTYPE svg PUBLIC "-//W3C//DTD SVG 1.1//EN"
 "http://www.w3.org/Graphics/SVG/1.1/DTD/svg11.dtd">
<!-- Generated by graphviz version 2.43.0 (0)
 -->
<!-- Title: ahb_bram_controller Pages: 1 -->
<svg width="999pt" height="703pt"
 viewBox="0.00 0.00 998.91 703.41" xmlns="http://www.w3.org/2000/svg" xmlns:xlink="http://www.w3.org/1999/xlink">
<g id="graph0" class="graph" transform="scale(1 1) rotate(0) translate(4 699.41)">
<title>ahb_bram_controller</title>
<polygon fill="white" stroke="transparent" points="-4,4 -4,-699.41 994.91,-699.41 994.91,4 -4,4"/>
<text text-anchor="middle" x="495.45" y="-680.21" font-family="Arial Bold" font-size="14.00">BRAM Controller Module</text>
<text text-anchor="middle" x="495.45" y="-665.21" font-family="Arial Bold" font-size="14.00">AHB to BRAM Protocol Conversion</text>
<g id="clust1" class="cluster">
<title>cluster_inputs</title>
<polygon fill="#f0f8ff" stroke="#4169e1" stroke-width="2" points="0,-79.41 0,-628.41 149.48,-628.41 149.48,-79.41 0,-79.41"/>
<text text-anchor="middle" x="74.74" y="-613.21" font-family="Arial Bold" font-size="14.00">AHB Interface Inputs</text>
</g>
<g id="clust2" class="cluster">
<title>cluster_bram_in</title>
<polygon fill="#fff0f0" stroke="#dc143c" stroke-width="2" points="394.48,-32.41 394.48,-117.41 557.56,-117.41 557.56,-32.41 394.48,-32.41"/>
<text text-anchor="middle" x="476.02" y="-102.21" font-family="Arial Bold" font-size="14.00">BRAM Data Input</text>
</g>
<g id="clust3" class="cluster">
<title>cluster_module</title>
<path fill="#fffaf0" stroke="#ff8c00" stroke-width="3" d="M206.48,-234.41C206.48,-234.41 732.56,-234.41 732.56,-234.41 738.56,-234.41 744.56,-240.41 744.56,-246.41 744.56,-246.41 744.56,-432.41 744.56,-432.41 744.56,-438.41 738.56,-444.41 732.56,-444.41 732.56,-444.41 206.48,-444.41 206.48,-444.41 200.48,-444.41 194.48,-438.41 194.48,-432.41 194.48,-432.41 194.48,-246.41 194.48,-246.41 194.48,-240.41 200.48,-234.41 206.48,-234.41"/>
</g>
<g id="clust4" class="cluster">
<title>cluster_outputs_ahb</title>
<polygon fill="#f0fff0" stroke="#228b22" stroke-width="2" points="823.17,-448.41 823.17,-649.41 984.3,-649.41 984.3,-448.41 823.17,-448.41"/>
<text text-anchor="middle" x="903.73" y="-634.21" font-family="Arial Bold" font-size="14.00">AHB Interface Outputs</text>
</g>
<g id="clust5" class="cluster">
<title>cluster_outputs_bram</title>
<polygon fill="#fff0ff" stroke="#9370db" stroke-width="2" points="817.56,-179.41 817.56,-440.41 990.91,-440.41 990.91,-179.41 817.56,-179.41"/>
<text text-anchor="middle" x="904.23" y="-425.21" font-family="Arial Bold" font-size="14.00">BRAM Interface Outputs</text>
</g>
<!-- CLK -->
<g id="node1" class="node">
<title>CLK</title>
<ellipse fill="#e6f3ff" stroke="#4682b4" stroke-width="2" cx="74.74" cy="-519.41" rx="27" ry="18"/>
<text text-anchor="middle" x="74.74" y="-516.91" font-family="Arial" font-size="10.00">HCLK</text>
</g>
<!-- PROTO -->
<g id="node11" class="node">
<title>PROTO</title>
<path fill="#ffd700" stroke="#ff8c00" stroke-width="2" d="M311.48,-436.41C311.48,-436.41 214.48,-436.41 214.48,-436.41 208.48,-436.41 202.48,-430.41 202.48,-424.41 202.48,-424.41 202.48,-392.41 202.48,-392.41 202.48,-386.41 208.48,-380.41 214.48,-380.41 214.48,-380.41 311.48,-380.41 311.48,-380.41 317.48,-380.41 323.48,-386.41 323.48,-392.41 323.48,-392.41 323.48,-424.41 323.48,-424.41 323.48,-430.41 317.48,-436.41 311.48,-436.41"/>
<text text-anchor="middle" x="262.98" y="-423.61" font-family="Arial" font-size="11.00">AHB Protocol Control</text>
<text text-anchor="middle" x="262.98" y="-411.61" font-family="Arial" font-size="11.00">• State Machine</text>
<text text-anchor="middle" x="262.98" y="-399.61" font-family="Arial" font-size="11.00">• Address Latch</text>
<text text-anchor="middle" x="262.98" y="-387.61" font-family="Arial" font-size="11.00">• Data Latch</text>
</g>
<!-- CLK&#45;&gt;PROTO -->
<g id="edge1" class="edge">
<title>CLK&#45;&gt;PROTO</title>
<path fill="none" stroke="#4169e1" stroke-width="1.5" d="M99.74,-512.57C114.54,-507.89 133.65,-500.98 149.48,-492.41 175.03,-478.58 201.17,-459.42 221.82,-442.89"/>
<polygon fill="#4169e1" stroke="#4169e1" stroke-width="1.5" points="224.17,-445.49 229.73,-436.47 219.76,-440.05 224.17,-445.49"/>
<text text-anchor="middle" x="171.98" y="-487.21" font-family="Arial" font-size="9.00">Clock</text>
</g>
<!-- RES -->
<g id="node2" class="node">
<title>RES</title>
<ellipse fill="#e6f3ff" stroke="#4682b4" stroke-width="2" cx="74.74" cy="-465.41" rx="37.17" ry="18"/>
<text text-anchor="middle" x="74.74" y="-462.91" font-family="Arial" font-size="10.00">HRESETn</text>
</g>
<!-- RES&#45;&gt;PROTO -->
<g id="edge2" class="edge">
<title>RES&#45;&gt;PROTO</title>
<path fill="none" stroke="#ff0000" stroke-width="1.5" d="M106.49,-456C129.79,-448.87 162.73,-438.79 192.3,-429.74"/>
<polygon fill="#ff0000" stroke="#ff0000" stroke-width="1.5" points="193.64,-432.99 202.18,-426.71 191.59,-426.29 193.64,-432.99"/>
<text text-anchor="middle" x="171.98" y="-441.21" font-family="Arial" font-size="9.00">Reset</text>
</g>
<!-- HSEL -->
<g id="node3" class="node">
<title>HSEL</title>
<ellipse fill="#e6f3ff" stroke="#4682b4" stroke-width="2" cx="74.74" cy="-408.41" rx="48.17" ry="21.43"/>
<text text-anchor="middle" x="74.74" y="-411.41" font-family="Arial" font-size="10.00">HSELx</text>
<text text-anchor="middle" x="74.74" y="-400.41" font-family="Arial" font-size="10.00">Chip Select</text>
</g>
<!-- HSEL&#45;&gt;PROTO -->
<g id="edge3" class="edge">
<title>HSEL&#45;&gt;PROTO</title>
<path fill="none" stroke="#4169e1" stroke-width="1.5" stroke-dasharray="5,2" d="M123.22,-408.41C144.15,-408.41 169.18,-408.41 192.17,-408.41"/>
<polygon fill="#4169e1" stroke="#4169e1" stroke-width="1.5" points="192.23,-411.91 202.23,-408.41 192.23,-404.91 192.23,-411.91"/>
</g>
<!-- HADDR -->
<g id="node4" class="node">
<title>HADDR</title>
<ellipse fill="#e6f3ff" stroke="#4682b4" stroke-width="2" cx="74.74" cy="-288.41" rx="37.45" ry="21.43"/>
<text text-anchor="middle" x="74.74" y="-291.41" font-family="Arial" font-size="10.00">HADDR</text>
<text text-anchor="middle" x="74.74" y="-280.41" font-family="Arial" font-size="10.00">Address</text>
</g>
<!-- ADDR -->
<g id="node12" class="node">
<title>ADDR</title>
<path fill="#ffe4b5" stroke="#ff8c00" stroke-width="2" d="M517.52,-283.91C517.52,-283.91 434.52,-283.91 434.52,-283.91 428.52,-283.91 422.52,-277.91 422.52,-271.91 422.52,-271.91 422.52,-254.91 422.52,-254.91 422.52,-248.91 428.52,-242.91 434.52,-242.91 434.52,-242.91 517.52,-242.91 517.52,-242.91 523.52,-242.91 529.52,-248.91 529.52,-254.91 529.52,-254.91 529.52,-271.91 529.52,-271.91 529.52,-277.91 523.52,-283.91 517.52,-283.91"/>
<text text-anchor="middle" x="476.02" y="-271.91" font-family="Arial" font-size="10.00">Address Translation</text>
<text text-anchor="middle" x="476.02" y="-260.91" font-family="Arial" font-size="10.00">• Byte Offset</text>
<text text-anchor="middle" x="476.02" y="-249.91" font-family="Arial" font-size="10.00">• Alignment Handling</text>
</g>
<!-- HADDR&#45;&gt;ADDR -->
<g id="edge6" class="edge">
<title>HADDR&#45;&gt;ADDR</title>
<path fill="none" stroke="#ff8c00" stroke-width="2" d="M112.23,-286.12C180.33,-281.86 327.51,-272.65 411.98,-267.36"/>
<polygon fill="#ff8c00" stroke="#ff8c00" stroke-width="2" points="412.46,-270.83 422.22,-266.72 412.02,-263.85 412.46,-270.83"/>
<text text-anchor="middle" x="262.98" y="-283.21" font-family="Arial" font-size="9.00">Address</text>
</g>
<!-- HWRITE -->
<g id="node5" class="node">
<title>HWRITE</title>
<ellipse fill="#e6f3ff" stroke="#4682b4" stroke-width="2" cx="74.74" cy="-108.41" rx="50.82" ry="21.43"/>
<text text-anchor="middle" x="74.74" y="-111.41" font-family="Arial" font-size="10.00">HWRITE</text>
<text text-anchor="middle" x="74.74" y="-100.41" font-family="Arial" font-size="10.00">Write Enable</text>
</g>
<!-- WRITE -->
<g id="node13" class="node">
<title>WRITE</title>
<path fill="#ffb6c1" stroke="#ff1493" stroke-width="2" d="M724.56,-294.41C724.56,-294.41 646.56,-294.41 646.56,-294.41 640.56,-294.41 634.56,-288.41 634.56,-282.41 634.56,-282.41 634.56,-254.41 634.56,-254.41 634.56,-248.41 640.56,-242.41 646.56,-242.41 646.56,-242.41 724.56,-242.41 724.56,-242.41 730.56,-242.41 736.56,-248.41 736.56,-254.41 736.56,-254.41 736.56,-282.41 736.56,-282.41 736.56,-288.41 730.56,-294.41 724.56,-294.41"/>
<text text-anchor="middle" x="685.56" y="-282.41" font-family="Arial" font-size="10.00">Write Control Logic</text>
<text text-anchor="middle" x="685.56" y="-271.41" font-family="Arial" font-size="10.00">• Byte Write Enable</text>
<text text-anchor="middle" x="685.56" y="-260.41" font-family="Arial" font-size="10.00">• Data Alignment</text>
<text text-anchor="middle" x="685.56" y="-249.41" font-family="Arial" font-size="10.00">• Size Decode</text>
</g>
<!-- HWRITE&#45;&gt;WRITE -->
<g id="edge8" class="edge">
<title>HWRITE&#45;&gt;WRITE</title>
<path fill="none" stroke="#ff1493" stroke-width="1.5" d="M125.46,-110.82C213.39,-115.75 401.77,-129.37 557.56,-161.41 584.41,-166.93 594.04,-163.77 616.56,-179.41 636.69,-193.39 653.48,-215.18 665.34,-233.7"/>
<polygon fill="#ff1493" stroke="#ff1493" stroke-width="1.5" points="662.36,-235.54 670.6,-242.21 668.32,-231.86 662.36,-235.54"/>
</g>
<!-- HSIZE -->
<g id="node6" class="node">
<title>HSIZE</title>
<ellipse fill="#e6f3ff" stroke="#4682b4" stroke-width="2" cx="74.74" cy="-228.41" rx="53.07" ry="21.43"/>
<text text-anchor="middle" x="74.74" y="-231.41" font-family="Arial" font-size="10.00">HSIZE</text>
<text text-anchor="middle" x="74.74" y="-220.41" font-family="Arial" font-size="10.00">Transfer Size</text>
</g>
<!-- HSIZE&#45;&gt;ADDR -->
<g id="edge7" class="edge">
<title>HSIZE&#45;&gt;ADDR</title>
<path fill="none" stroke="#ff8c00" stroke-width="1.5" stroke-dasharray="5,2" d="M126.71,-232.88C199.55,-239.26 333.29,-250.99 412.17,-257.9"/>
<polygon fill="#ff8c00" stroke="#ff8c00" stroke-width="1.5" points="412.18,-261.41 422.45,-258.8 412.79,-254.44 412.18,-261.41"/>
</g>
<!-- HSIZE&#45;&gt;WRITE -->
<g id="edge9" class="edge">
<title>HSIZE&#45;&gt;WRITE</title>
<path fill="none" stroke="#ff1493" stroke-width="1.5" stroke-dasharray="5,2" d="M114.75,-214.4C126.18,-209.8 138.54,-204.33 149.48,-198.41 322.23,-104.82 386.07,67.48 557.56,-28.41 633.28,-70.75 665.77,-176.26 678.05,-232.22"/>
<polygon fill="#ff1493" stroke="#ff1493" stroke-width="1.5" points="674.63,-233 680.11,-242.07 681.48,-231.56 674.63,-233"/>
</g>
<!-- READ -->
<g id="node14" class="node">
<title>READ</title>
<path fill="#afeeee" stroke="#20b2aa" stroke-width="2" d="M724.06,-364.41C724.06,-364.41 647.06,-364.41 647.06,-364.41 641.06,-364.41 635.06,-358.41 635.06,-352.41 635.06,-352.41 635.06,-324.41 635.06,-324.41 635.06,-318.41 641.06,-312.41 647.06,-312.41 647.06,-312.41 724.06,-312.41 724.06,-312.41 730.06,-312.41 736.06,-318.41 736.06,-324.41 736.06,-324.41 736.06,-352.41 736.06,-352.41 736.06,-358.41 730.06,-364.41 724.06,-364.41"/>
<text text-anchor="middle" x="685.56" y="-352.41" font-family="Arial" font-size="10.00">Read Control Logic</text>
<text text-anchor="middle" x="685.56" y="-341.41" font-family="Arial" font-size="10.00">• Data Alignment</text>
<text text-anchor="middle" x="685.56" y="-330.41" font-family="Arial" font-size="10.00">• Size Extension</text>
<text text-anchor="middle" x="685.56" y="-319.41" font-family="Arial" font-size="10.00">• 1&#45;Cycle Delay</text>
</g>
<!-- HSIZE&#45;&gt;READ -->
<g id="edge11" class="edge">
<title>HSIZE&#45;&gt;READ</title>
<path fill="none" stroke="#20b2aa" stroke-width="1.5" stroke-dasharray="5,2" d="M125.77,-222.31C214.19,-213.01 403.29,-199.78 557.56,-234.41 585.7,-240.73 596.42,-240.77 616.56,-261.41 630.74,-275.94 621.75,-287.65 634.56,-303.41 635.03,-304 635.52,-304.58 636.02,-305.15"/>
<polygon fill="#20b2aa" stroke="#20b2aa" stroke-width="1.5" points="633.55,-307.63 643.06,-312.29 638.53,-302.71 633.55,-307.63"/>
</g>
<!-- HTRANS -->
<g id="node7" class="node">
<title>HTRANS</title>
<ellipse fill="#e6f3ff" stroke="#4682b4" stroke-width="2" cx="74.74" cy="-348.41" rx="53.98" ry="21.43"/>
<text text-anchor="middle" x="74.74" y="-351.41" font-family="Arial" font-size="10.00">HTRANS</text>
<text text-anchor="middle" x="74.74" y="-340.41" font-family="Arial" font-size="10.00">Transfer Type</text>
</g>
<!-- HTRANS&#45;&gt;PROTO -->
<g id="edge4" class="edge">
<title>HTRANS&#45;&gt;PROTO</title>
<path fill="none" stroke="#4169e1" stroke-width="1.5" stroke-dasharray="5,2" d="M117.07,-361.73C139.31,-368.89 167.32,-377.91 192.78,-386.11"/>
<polygon fill="#4169e1" stroke="#4169e1" stroke-width="1.5" points="191.8,-389.48 202.39,-389.21 193.94,-382.81 191.8,-389.48"/>
</g>
<!-- HREADY -->
<g id="node8" class="node">
<title>HREADY</title>
<ellipse fill="#e6f3ff" stroke="#4682b4" stroke-width="2" cx="74.74" cy="-576.41" rx="49.49" ry="21.43"/>
<text text-anchor="middle" x="74.74" y="-579.41" font-family="Arial" font-size="10.00">HREADY</text>
<text text-anchor="middle" x="74.74" y="-568.41" font-family="Arial" font-size="10.00">Ready Input</text>
</g>
<!-- HREADY&#45;&gt;PROTO -->
<g id="edge5" class="edge">
<title>HREADY&#45;&gt;PROTO</title>
<path fill="none" stroke="#4169e1" stroke-width="1.5" stroke-dasharray="5,2" d="M115.93,-564.25C127.39,-559.71 139.48,-553.8 149.48,-546.41 186.92,-518.73 219.25,-475.85 239.52,-445.23"/>
<polygon fill="#4169e1" stroke="#4169e1" stroke-width="1.5" points="242.65,-446.84 245.17,-436.55 236.78,-443.03 242.65,-446.84"/>
</g>
<!-- HWDATA -->
<g id="node9" class="node">
<title>HWDATA</title>
<ellipse fill="#e6f3ff" stroke="#4682b4" stroke-width="2" cx="74.74" cy="-168.41" rx="44.6" ry="21.43"/>
<text text-anchor="middle" x="74.74" y="-171.41" font-family="Arial" font-size="10.00">HWDATA</text>
<text text-anchor="middle" x="74.74" y="-160.41" font-family="Arial" font-size="10.00">Write Data</text>
</g>
<!-- HWDATA&#45;&gt;WRITE -->
<g id="edge10" class="edge">
<title>HWDATA&#45;&gt;WRITE</title>
<path fill="none" stroke="#ff1493" stroke-width="2" d="M119.5,-166.67C231.98,-162.85 528.54,-157.01 616.56,-197.41 634.06,-205.44 649.35,-220.19 660.97,-234.17"/>
<polygon fill="#ff1493" stroke="#ff1493" stroke-width="2" points="658.43,-236.6 667.38,-242.26 663.91,-232.25 658.43,-236.6"/>
<text text-anchor="middle" x="362.98" y="-168.21" font-family="Arial" font-size="9.00">Write Data</text>
</g>
<!-- BRAM_DOUT -->
<g id="node10" class="node">
<title>BRAM_DOUT</title>
<ellipse fill="#ffe6e6" stroke="#dc143c" stroke-width="2" cx="476.02" cy="-63.41" rx="73.58" ry="22.76"/>
<text text-anchor="middle" x="476.02" y="-66.61" font-family="Arial" font-size="11.00">bram_douta</text>
<text text-anchor="middle" x="476.02" y="-54.61" font-family="Arial" font-size="11.00">BRAM Read Data</text>
</g>
<!-- BRAM_DOUT&#45;&gt;READ -->
<g id="edge12" class="edge">
<title>BRAM_DOUT&#45;&gt;READ</title>
<path fill="none" stroke="#dc143c" stroke-width="2" d="M510.7,-83.44C543.44,-104.83 591.74,-141.88 616.56,-187.41 641.53,-233.22 606.98,-259.12 634.56,-303.41 634.68,-303.6 634.8,-303.79 634.92,-303.98"/>
<polygon fill="#dc143c" stroke="#dc143c" stroke-width="2" points="632.32,-306.33 641.27,-312 637.8,-301.98 632.32,-306.33"/>
<text text-anchor="middle" x="592.06" y="-190.21" font-family="Arial" font-size="9.00">BRAM Data</text>
</g>
<!-- PROTO&#45;&gt;ADDR -->
<g id="edge13" class="edge">
<title>PROTO&#45;&gt;ADDR</title>
<path fill="none" stroke="#ff8c00" stroke-width="1.5" d="M282.88,-380.13C297.09,-360.64 318.07,-335.31 341.48,-318.41 353.72,-309.58 383.98,-296.89 412.6,-285.92"/>
<polygon fill="#ff8c00" stroke="#ff8c00" stroke-width="1.5" points="414.11,-289.09 422.22,-282.28 411.63,-282.55 414.11,-289.09"/>
<text text-anchor="middle" x="362.98" y="-321.21" font-family="Arial" font-size="9.00">Control</text>
</g>
<!-- PROTO&#45;&gt;WRITE -->
<g id="edge14" class="edge">
<title>PROTO&#45;&gt;WRITE</title>
<path fill="none" stroke="#ff8c00" stroke-width="1.5" stroke-dasharray="5,2" d="M308.47,-380.37C333.06,-365.87 364.61,-348.85 394.48,-337.41 436.03,-321.49 552.59,-295.83 624.68,-280.7"/>
<polygon fill="#ff8c00" stroke="#ff8c00" stroke-width="1.5" points="625.47,-284.11 634.54,-278.64 624.04,-277.26 625.47,-284.11"/>
<text text-anchor="middle" x="476.02" y="-340.21" font-family="Arial" font-size="9.00">Control</text>
</g>
<!-- PROTO&#45;&gt;READ -->
<g id="edge15" class="edge">
<title>PROTO&#45;&gt;READ</title>
<path fill="none" stroke="#ff8c00" stroke-width="1.5" stroke-dasharray="5,2" d="M323.78,-392.28C345.88,-386.71 371.21,-380.77 394.48,-376.41 473.6,-361.57 565.93,-350.54 624.79,-344.29"/>
<polygon fill="#ff8c00" stroke="#ff8c00" stroke-width="1.5" points="625.44,-347.74 635.02,-343.22 624.71,-340.78 625.44,-347.74"/>
<text text-anchor="middle" x="476.02" y="-379.21" font-family="Arial" font-size="9.00">Control</text>
</g>
<!-- RESP -->
<g id="node15" class="node">
<title>RESP</title>
<path fill="#98fb98" stroke="#228b22" stroke-width="2" d="M519.52,-435.91C519.52,-435.91 432.52,-435.91 432.52,-435.91 426.52,-435.91 420.52,-429.91 420.52,-423.91 420.52,-423.91 420.52,-406.91 420.52,-406.91 420.52,-400.91 426.52,-394.91 432.52,-394.91 432.52,-394.91 519.52,-394.91 519.52,-394.91 525.52,-394.91 531.52,-400.91 531.52,-406.91 531.52,-406.91 531.52,-423.91 531.52,-423.91 531.52,-429.91 525.52,-435.91 519.52,-435.91"/>
<text text-anchor="middle" x="476.02" y="-423.91" font-family="Arial" font-size="10.00">Response Generation</text>
<text text-anchor="middle" x="476.02" y="-412.91" font-family="Arial" font-size="10.00">• HRESP</text>
<text text-anchor="middle" x="476.02" y="-401.91" font-family="Arial" font-size="10.00">• HREADYOUT</text>
</g>
<!-- PROTO&#45;&gt;RESP -->
<g id="edge16" class="edge">
<title>PROTO&#45;&gt;RESP</title>
<path fill="none" stroke="#ff8c00" stroke-width="1.5" d="M323.61,-410.39C350.52,-411.28 382.38,-412.34 409.91,-413.25"/>
<polygon fill="#ff8c00" stroke="#ff8c00" stroke-width="1.5" points="410.12,-416.76 420.23,-413.59 410.36,-409.76 410.12,-416.76"/>
<text text-anchor="middle" x="362.98" y="-414.21" font-family="Arial" font-size="9.00">State</text>
</g>
<!-- BRAM_EN -->
<g id="node21" class="node">
<title>BRAM_EN</title>
<ellipse fill="#f3e6ff" stroke="#8b008b" stroke-width="2" cx="903.73" cy="-388.41" rx="41.94" ry="21.43"/>
<text text-anchor="middle" x="903.73" y="-391.41" font-family="Arial" font-size="10.00">bram_ena</text>
<text text-anchor="middle" x="903.73" y="-380.41" font-family="Arial" font-size="10.00">Enable</text>
</g>
<!-- PROTO&#45;&gt;BRAM_EN -->
<g id="edge24" class="edge">
<title>PROTO&#45;&gt;BRAM_EN</title>
<path fill="none" stroke="#9370db" stroke-width="1.5" d="M323.66,-429.07C345.64,-435.68 370.92,-442.13 394.48,-445.41 564.69,-469.07 768.04,-424.38 857.13,-401.16"/>
<polygon fill="#9370db" stroke="#9370db" stroke-width="1.5" points="858.14,-404.51 866.91,-398.58 856.35,-397.74 858.14,-404.51"/>
</g>
<!-- ADDR&#45;&gt;WRITE -->
<g id="edge17" class="edge">
<title>ADDR&#45;&gt;WRITE</title>
<path fill="none" stroke="#ff8c00" stroke-width="1.5" stroke-dasharray="5,2" d="M529.66,-264.68C558.45,-265.37 594.24,-266.23 624.16,-266.95"/>
<polygon fill="#ff8c00" stroke="#ff8c00" stroke-width="1.5" points="624.4,-270.46 634.48,-267.2 624.57,-263.46 624.4,-270.46"/>
<text text-anchor="middle" x="592.06" y="-269.21" font-family="Arial" font-size="9.00">Offset</text>
</g>
<!-- ADDR&#45;&gt;READ -->
<g id="edge18" class="edge">
<title>ADDR&#45;&gt;READ</title>
<path fill="none" stroke="#ff8c00" stroke-width="1.5" stroke-dasharray="5,2" d="M529.66,-282.43C558.81,-292.97 595.13,-306.09 625.28,-316.99"/>
<polygon fill="#ff8c00" stroke="#ff8c00" stroke-width="1.5" points="624.24,-320.33 634.83,-320.44 626.62,-313.75 624.24,-320.33"/>
<text text-anchor="middle" x="592.06" y="-314.21" font-family="Arial" font-size="9.00">Offset</text>
</g>
<!-- BRAM_ADDR -->
<g id="node19" class="node">
<title>BRAM_ADDR</title>
<ellipse fill="#f3e6ff" stroke="#8b008b" stroke-width="2" cx="903.73" cy="-328.41" rx="48.17" ry="21.43"/>
<text text-anchor="middle" x="903.73" y="-331.41" font-family="Arial" font-size="10.00">bram_addra</text>
<text text-anchor="middle" x="903.73" y="-320.41" font-family="Arial" font-size="10.00">Address</text>
</g>
<!-- ADDR&#45;&gt;BRAM_ADDR -->
<g id="edge22" class="edge">
<title>ADDR&#45;&gt;BRAM_ADDR</title>
<path fill="none" stroke="#9370db" stroke-width="2" d="M529.92,-279.1C540.07,-284.01 549.91,-290.33 557.56,-298.41 566.35,-307.7 559.79,-315.24 567.56,-325.41 589.78,-354.53 599.68,-362.21 634.56,-373.41 681.1,-388.36 696.14,-380.16 744.56,-373.41 783.09,-368.04 825.41,-355.63 856.57,-345.21"/>
<polygon fill="#9370db" stroke="#9370db" stroke-width="2" points="857.94,-348.44 866.28,-341.9 855.69,-341.81 857.94,-348.44"/>
<text text-anchor="middle" x="685.56" y="-384.21" font-family="Arial" font-size="9.00">Translated</text>
</g>
<!-- BRAM_DIN -->
<g id="node20" class="node">
<title>BRAM_DIN</title>
<ellipse fill="#f3e6ff" stroke="#8b008b" stroke-width="2" cx="903.73" cy="-268.41" rx="44.6" ry="21.43"/>
<text text-anchor="middle" x="903.73" y="-271.41" font-family="Arial" font-size="10.00">bram_dina</text>
<text text-anchor="middle" x="903.73" y="-260.41" font-family="Arial" font-size="10.00">Write Data</text>
</g>
<!-- WRITE&#45;&gt;BRAM_DIN -->
<g id="edge23" class="edge">
<title>WRITE&#45;&gt;BRAM_DIN</title>
<path fill="none" stroke="#9370db" stroke-width="2" d="M736.7,-268.41C770.27,-268.41 814.43,-268.41 848.77,-268.41"/>
<polygon fill="#9370db" stroke="#9370db" stroke-width="2" points="849.08,-271.91 859.08,-268.41 849.08,-264.91 849.08,-271.91"/>
<text text-anchor="middle" x="781.56" y="-271.21" font-family="Arial" font-size="9.00">Aligned</text>
</g>
<!-- BRAM_WE -->
<g id="node22" class="node">
<title>BRAM_WE</title>
<ellipse fill="#f3e6ff" stroke="#8b008b" stroke-width="2" cx="903.73" cy="-208.41" rx="67.35" ry="21.43"/>
<text text-anchor="middle" x="903.73" y="-211.41" font-family="Arial" font-size="10.00">bram_wea[3:0]</text>
<text text-anchor="middle" x="903.73" y="-200.41" font-family="Arial" font-size="10.00">Byte Write Enable</text>
</g>
<!-- WRITE&#45;&gt;BRAM_WE -->
<g id="edge25" class="edge">
<title>WRITE&#45;&gt;BRAM_WE</title>
<path fill="none" stroke="#9370db" stroke-width="2" d="M736.7,-254.49C768.37,-245.7 809.47,-234.3 842.85,-225.03"/>
<polygon fill="#9370db" stroke="#9370db" stroke-width="2" points="843.79,-228.4 852.49,-222.35 841.92,-221.66 843.79,-228.4"/>
<text text-anchor="middle" x="781.56" y="-251.21" font-family="Arial" font-size="9.00">Byte Enable</text>
</g>
<!-- HRDATA -->
<g id="node16" class="node">
<title>HRDATA</title>
<ellipse fill="#e6ffe6" stroke="#2e8b57" stroke-width="2" cx="903.73" cy="-477.41" rx="45.01" ry="21.43"/>
<text text-anchor="middle" x="903.73" y="-480.41" font-family="Arial" font-size="10.00">HRDATA</text>
<text text-anchor="middle" x="903.73" y="-469.41" font-family="Arial" font-size="10.00">Read Data</text>
</g>
<!-- READ&#45;&gt;HRDATA -->
<g id="edge19" class="edge">
<title>READ&#45;&gt;HRDATA</title>
<path fill="none" stroke="#228b22" stroke-width="2" d="M726.06,-364.62C732.35,-369.08 738.71,-373.78 744.56,-378.41 778.86,-405.55 780.32,-421.46 817.56,-444.41 829.18,-451.57 842.61,-457.65 855.32,-462.56"/>
<polygon fill="#228b22" stroke="#228b22" stroke-width="2" points="854.27,-465.9 864.87,-466.08 856.7,-459.33 854.27,-465.9"/>
<text text-anchor="middle" x="781.56" y="-440.21" font-family="Arial" font-size="9.00">Aligned Data</text>
</g>
<!-- HRESP -->
<g id="node17" class="node">
<title>HRESP</title>
<ellipse fill="#e6ffe6" stroke="#2e8b57" stroke-width="2" cx="903.73" cy="-597.41" rx="43.27" ry="21.43"/>
<text text-anchor="middle" x="903.73" y="-600.41" font-family="Arial" font-size="10.00">HRESP</text>
<text text-anchor="middle" x="903.73" y="-589.41" font-family="Arial" font-size="10.00">Response</text>
</g>
<!-- RESP&#45;&gt;HRESP -->
<g id="edge20" class="edge">
<title>RESP&#45;&gt;HRESP</title>
<path fill="none" stroke="#228b22" stroke-width="1.5" d="M516.42,-436.09C532.21,-444.21 550.64,-453.46 567.56,-461.41 620.87,-486.46 773.3,-550.32 817.56,-567.41 830.61,-572.45 844.92,-577.62 858.01,-582.22"/>
<polygon fill="#228b22" stroke="#228b22" stroke-width="1.5" points="857.16,-585.63 867.75,-585.61 859.46,-579.02 857.16,-585.63"/>
</g>
<!-- HREADYOUT -->
<g id="node18" class="node">
<title>HREADYOUT</title>
<ellipse fill="#e6ffe6" stroke="#2e8b57" stroke-width="2" cx="903.73" cy="-537.41" rx="56.64" ry="21.43"/>
<text text-anchor="middle" x="903.73" y="-540.41" font-family="Arial" font-size="10.00">HREADYOUT</text>
<text text-anchor="middle" x="903.73" y="-529.41" font-family="Arial" font-size="10.00">Ready Output</text>
</g>
<!-- RESP&#45;&gt;HREADYOUT -->
<g id="edge21" class="edge">
<title>RESP&#45;&gt;HREADYOUT</title>
<path fill="none" stroke="#228b22" stroke-width="1.5" d="M531.8,-431.11C613.53,-454.53 766.49,-498.36 848.12,-521.76"/>
<polygon fill="#228b22" stroke="#228b22" stroke-width="1.5" points="847.61,-525.25 858.19,-524.64 849.54,-518.52 847.61,-525.25"/>
</g>
</g>
</svg>
