<?xml version="1.0" encoding="UTF-8" standalone="no"?>
<!DOCTYPE svg PUBLIC "-//W3C//DTD SVG 1.1//EN"
 "http://www.w3.org/Graphics/SVG/1.1/DTD/svg11.dtd">
<!-- Generated by graphviz version 2.43.0 (0)
 -->
<!-- Title: ahb_interconnect Pages: 1 -->
<svg width="705pt" height="692pt"
 viewBox="0.00 0.00 704.66 692.00" xmlns="http://www.w3.org/2000/svg" xmlns:xlink="http://www.w3.org/1999/xlink">
<g id="graph0" class="graph" transform="scale(1 1) rotate(0) translate(4 688)">
<title>ahb_interconnect</title>
<polygon fill="white" stroke="transparent" points="-4,4 -4,-688 700.66,-688 700.66,4 -4,4"/>
<text text-anchor="middle" x="348.33" y="-668.8" font-family="Arial Bold" font-size="14.00">AHB 互连模块 (AHB Interconnect)</text>
<text text-anchor="middle" x="348.33" y="-653.8" font-family="Arial Bold" font-size="14.00">负责总线仲裁和数据路由</text>
<g id="clust1" class="cluster">
<title>cluster_inputs</title>
<polygon fill="#f0f8ff" stroke="#4169e1" stroke-width="2" points="8,-8 8,-597 155.52,-597 155.52,-8 8,-8"/>
<text text-anchor="middle" x="81.76" y="-581.8" font-family="Arial Bold" font-size="14.00">输入信号</text>
</g>
<g id="clust2" class="cluster">
<title>cluster_module</title>
<path fill="#fff5f5" stroke="#ff6347" stroke-width="3" d="M210.52,-437C210.52,-437 504.52,-437 504.52,-437 510.52,-437 516.52,-443 516.52,-449 516.52,-449 516.52,-497 516.52,-497 516.52,-503 510.52,-509 504.52,-509 504.52,-509 210.52,-509 210.52,-509 204.52,-509 198.52,-503 198.52,-497 198.52,-497 198.52,-449 198.52,-449 198.52,-443 204.52,-437 210.52,-437"/>
</g>
<g id="clust3" class="cluster">
<title>cluster_outputs</title>
<polygon fill="#f0fff0" stroke="#228b22" stroke-width="2" points="559.52,-364 559.52,-638 688.66,-638 688.66,-364 559.52,-364"/>
<text text-anchor="middle" x="624.09" y="-622.8" font-family="Arial Bold" font-size="14.00">输出信号</text>
</g>
<!-- CLK -->
<g id="node1" class="node">
<title>CLK</title>
<ellipse fill="#e6f3ff" stroke="#4682b4" stroke-width="2" cx="81.76" cy="-417" rx="33.47" ry="22.76"/>
<text text-anchor="middle" x="81.76" y="-420.2" font-family="Arial" font-size="11.00">HCLK</text>
<text text-anchor="middle" x="81.76" y="-408.2" font-family="Arial" font-size="11.00">时钟</text>
</g>
<!-- MUX -->
<g id="node11" class="node">
<title>MUX</title>
<path fill="#ffc0cb" stroke="#ff6347" stroke-width="2" d="M496.52,-501C496.52,-501 413.52,-501 413.52,-501 407.52,-501 401.52,-495 401.52,-489 401.52,-489 401.52,-457 401.52,-457 401.52,-451 407.52,-445 413.52,-445 413.52,-445 496.52,-445 496.52,-445 502.52,-445 508.52,-451 508.52,-457 508.52,-457 508.52,-489 508.52,-489 508.52,-495 502.52,-501 496.52,-501"/>
<text text-anchor="middle" x="455.02" y="-488.2" font-family="Arial" font-size="11.00">AHB 多路复用器</text>
<text text-anchor="middle" x="455.02" y="-476.2" font-family="Arial" font-size="11.00">• 数据路由</text>
<text text-anchor="middle" x="455.02" y="-464.2" font-family="Arial" font-size="11.00">• 响应选择</text>
<text text-anchor="middle" x="455.02" y="-452.2" font-family="Arial" font-size="11.00">• 就绪信号管理</text>
</g>
<!-- CLK&#45;&gt;MUX -->
<g id="edge1" class="edge">
<title>CLK&#45;&gt;MUX</title>
<path fill="none" stroke="#4169e1" stroke-width="1.5" stroke-dasharray="5,2" d="M114.76,-414.1C160.45,-410.61 246.91,-406.45 319.52,-417 348.88,-421.27 356.03,-424.83 383.52,-436 386.99,-437.41 390.52,-438.94 394.05,-440.54"/>
<polygon fill="#4169e1" stroke="#4169e1" stroke-width="1.5" points="392.83,-443.83 403.37,-444.93 395.81,-437.5 392.83,-443.83"/>
<text text-anchor="middle" x="263.02" y="-419.8" font-family="Arial" font-size="9.00">时钟</text>
</g>
<!-- RES -->
<g id="node2" class="node">
<title>RES</title>
<ellipse fill="#e6f3ff" stroke="#4682b4" stroke-width="2" cx="81.76" cy="-480" rx="48.17" ry="22.76"/>
<text text-anchor="middle" x="81.76" y="-483.2" font-family="Arial" font-size="11.00">HRESETn</text>
<text text-anchor="middle" x="81.76" y="-471.2" font-family="Arial" font-size="11.00">复位</text>
</g>
<!-- DECODER -->
<g id="node10" class="node">
<title>DECODER</title>
<path fill="#ffb6c1" stroke="#ff6347" stroke-width="2" d="M307.52,-501C307.52,-501 218.52,-501 218.52,-501 212.52,-501 206.52,-495 206.52,-489 206.52,-489 206.52,-469 206.52,-469 206.52,-463 212.52,-457 218.52,-457 218.52,-457 307.52,-457 307.52,-457 313.52,-457 319.52,-463 319.52,-469 319.52,-469 319.52,-489 319.52,-489 319.52,-495 313.52,-501 307.52,-501"/>
<text text-anchor="middle" x="263.02" y="-488.2" font-family="Arial" font-size="11.00">AHB 译码器</text>
<text text-anchor="middle" x="263.02" y="-476.2" font-family="Arial" font-size="11.00">• 地址译码</text>
<text text-anchor="middle" x="263.02" y="-464.2" font-family="Arial" font-size="11.00">• 生成从设备选择</text>
</g>
<!-- RES&#45;&gt;DECODER -->
<g id="edge2" class="edge">
<title>RES&#45;&gt;DECODER</title>
<path fill="none" stroke="#ff0000" stroke-width="1.5" stroke-dasharray="5,2" d="M129.86,-479.74C150.1,-479.62 174.1,-479.49 196.07,-479.37"/>
<polygon fill="#ff0000" stroke="#ff0000" stroke-width="1.5" points="196.34,-482.87 206.32,-479.31 196.3,-475.87 196.34,-482.87"/>
<text text-anchor="middle" x="177.02" y="-481.8" font-family="Arial" font-size="9.00">复位</text>
</g>
<!-- RES&#45;&gt;MUX -->
<g id="edge3" class="edge">
<title>RES&#45;&gt;MUX</title>
<path fill="none" stroke="#ff0000" stroke-width="1.5" stroke-dasharray="5,2" d="M116.6,-464.18C139.23,-454.49 169.99,-443.02 198.52,-438 251.49,-428.69 266.18,-431.17 319.52,-438 343.39,-441.06 369.08,-447.04 391.54,-453.21"/>
<polygon fill="#ff0000" stroke="#ff0000" stroke-width="1.5" points="390.71,-456.62 401.29,-455.96 392.61,-449.88 390.71,-456.62"/>
<text text-anchor="middle" x="263.02" y="-440.8" font-family="Arial" font-size="9.00">复位</text>
</g>
<!-- HADDR -->
<g id="node3" class="node">
<title>HADDR</title>
<ellipse fill="#e6f3ff" stroke="#4682b4" stroke-width="2" cx="81.76" cy="-543" rx="48.17" ry="22.76"/>
<text text-anchor="middle" x="81.76" y="-546.2" font-family="Arial" font-size="11.00">HADDR</text>
<text text-anchor="middle" x="81.76" y="-534.2" font-family="Arial" font-size="11.00">地址总线</text>
</g>
<!-- HADDR&#45;&gt;DECODER -->
<g id="edge4" class="edge">
<title>HADDR&#45;&gt;DECODER</title>
<path fill="none" stroke="#ff6347" stroke-width="2" d="M120.78,-529.43C142.83,-521.55 171.21,-511.42 196.74,-502.31"/>
<polygon fill="#ff6347" stroke="#ff6347" stroke-width="2" points="198.12,-505.53 206.36,-498.87 195.77,-498.94 198.12,-505.53"/>
<text text-anchor="middle" x="177.02" y="-514.8" font-family="Arial" font-size="9.00">地址</text>
</g>
<!-- HRDATA0 -->
<g id="node4" class="node">
<title>HRDATA0</title>
<ellipse fill="#e6f3ff" stroke="#4682b4" stroke-width="2" cx="81.76" cy="-354" rx="60.62" ry="22.76"/>
<text text-anchor="middle" x="81.76" y="-357.2" font-family="Arial" font-size="11.00">HRDATA0</text>
<text text-anchor="middle" x="81.76" y="-345.2" font-family="Arial" font-size="11.00">从设备0数据</text>
</g>
<!-- HRDATA0&#45;&gt;MUX -->
<g id="edge5" class="edge">
<title>HRDATA0&#45;&gt;MUX</title>
<path fill="none" stroke="#4169e1" stroke-width="1.5" d="M142.37,-356.35C205.61,-361.03 306.79,-374.93 383.52,-416 394.91,-422.09 406.24,-430.14 416.38,-438.26"/>
<polygon fill="#4169e1" stroke="#4169e1" stroke-width="1.5" points="414.3,-441.08 424.24,-444.75 418.76,-435.68 414.3,-441.08"/>
<text text-anchor="middle" x="263.02" y="-391.8" font-family="Arial" font-size="9.00">数据0</text>
</g>
<!-- HRESP0 -->
<g id="node5" class="node">
<title>HRESP0</title>
<ellipse fill="#e6f3ff" stroke="#4682b4" stroke-width="2" cx="81.76" cy="-291" rx="60.62" ry="22.76"/>
<text text-anchor="middle" x="81.76" y="-294.2" font-family="Arial" font-size="11.00">HRESP0</text>
<text text-anchor="middle" x="81.76" y="-282.2" font-family="Arial" font-size="11.00">从设备0响应</text>
</g>
<!-- HRESP0&#45;&gt;MUX -->
<g id="edge6" class="edge">
<title>HRESP0&#45;&gt;MUX</title>
<path fill="none" stroke="#4169e1" stroke-width="1.5" stroke-dasharray="5,2" d="M139.17,-298.63C188.36,-306.65 260.82,-321.84 319.52,-348 363.44,-367.57 402.29,-407.47 426.8,-436.95"/>
<polygon fill="#4169e1" stroke="#4169e1" stroke-width="1.5" points="424.3,-439.42 433.33,-444.96 429.73,-435 424.3,-439.42"/>
<text text-anchor="middle" x="263.02" y="-350.8" font-family="Arial" font-size="9.00">响应0</text>
</g>
<!-- HREADY0 -->
<g id="node6" class="node">
<title>HREADY0</title>
<ellipse fill="#e6f3ff" stroke="#4682b4" stroke-width="2" cx="81.76" cy="-228" rx="65.52" ry="22.76"/>
<text text-anchor="middle" x="81.76" y="-231.2" font-family="Arial" font-size="11.00">HREADYOUT0</text>
<text text-anchor="middle" x="81.76" y="-219.2" font-family="Arial" font-size="11.00">从设备0就绪</text>
</g>
<!-- HREADY0&#45;&gt;MUX -->
<g id="edge7" class="edge">
<title>HREADY0&#45;&gt;MUX</title>
<path fill="none" stroke="#4169e1" stroke-width="1.5" stroke-dasharray="5,2" d="M142.09,-237.27C191.82,-246.81 263.47,-264.8 319.52,-296 376.11,-327.5 416.3,-393.76 437.28,-435.67"/>
<polygon fill="#4169e1" stroke="#4169e1" stroke-width="1.5" points="434.17,-437.29 441.71,-444.74 440.46,-434.22 434.17,-437.29"/>
<text text-anchor="middle" x="263.02" y="-298.8" font-family="Arial" font-size="9.00">就绪0</text>
</g>
<!-- HRDATA1 -->
<g id="node7" class="node">
<title>HRDATA1</title>
<ellipse fill="#e6f3ff" stroke="#4682b4" stroke-width="2" cx="81.76" cy="-165" rx="60.62" ry="22.76"/>
<text text-anchor="middle" x="81.76" y="-168.2" font-family="Arial" font-size="11.00">HRDATA1</text>
<text text-anchor="middle" x="81.76" y="-156.2" font-family="Arial" font-size="11.00">从设备1数据</text>
</g>
<!-- HRDATA1&#45;&gt;MUX -->
<g id="edge8" class="edge">
<title>HRDATA1&#45;&gt;MUX</title>
<path fill="none" stroke="#9370db" stroke-width="1.5" d="M138.79,-173.29C189.04,-182.62 263.3,-201.26 319.52,-236 392.27,-280.95 429.34,-380.57 444.85,-435.26"/>
<polygon fill="#9370db" stroke="#9370db" stroke-width="1.5" points="441.48,-436.2 447.49,-444.92 448.23,-434.35 441.48,-436.2"/>
<text text-anchor="middle" x="263.02" y="-238.8" font-family="Arial" font-size="9.00">数据1</text>
</g>
<!-- HRESP1 -->
<g id="node8" class="node">
<title>HRESP1</title>
<ellipse fill="#e6f3ff" stroke="#4682b4" stroke-width="2" cx="81.76" cy="-102" rx="60.62" ry="22.76"/>
<text text-anchor="middle" x="81.76" y="-105.2" font-family="Arial" font-size="11.00">HRESP1</text>
<text text-anchor="middle" x="81.76" y="-93.2" font-family="Arial" font-size="11.00">从设备1响应</text>
</g>
<!-- HRESP1&#45;&gt;MUX -->
<g id="edge9" class="edge">
<title>HRESP1&#45;&gt;MUX</title>
<path fill="none" stroke="#9370db" stroke-width="1.5" stroke-dasharray="5,2" d="M139.64,-109.53C190.12,-118.29 264.22,-136.35 319.52,-172 410.85,-230.87 440.69,-367.96 450.01,-434.88"/>
<polygon fill="#9370db" stroke="#9370db" stroke-width="1.5" points="446.57,-435.54 451.34,-445 453.51,-434.63 446.57,-435.54"/>
<text text-anchor="middle" x="263.02" y="-174.8" font-family="Arial" font-size="9.00">响应1</text>
</g>
<!-- HREADY1 -->
<g id="node9" class="node">
<title>HREADY1</title>
<ellipse fill="#e6f3ff" stroke="#4682b4" stroke-width="2" cx="81.76" cy="-39" rx="65.52" ry="22.76"/>
<text text-anchor="middle" x="81.76" y="-42.2" font-family="Arial" font-size="11.00">HREADYOUT1</text>
<text text-anchor="middle" x="81.76" y="-30.2" font-family="Arial" font-size="11.00">从设备1就绪</text>
</g>
<!-- HREADY1&#45;&gt;MUX -->
<g id="edge10" class="edge">
<title>HREADY1&#45;&gt;MUX</title>
<path fill="none" stroke="#9370db" stroke-width="1.5" stroke-dasharray="5,2" d="M143.63,-46.94C193.96,-55.7 265.66,-73.42 319.52,-108 431.07,-179.6 450.63,-355.96 453.69,-434.35"/>
<polygon fill="#9370db" stroke="#9370db" stroke-width="1.5" points="450.2,-434.86 454.02,-444.74 457.2,-434.64 450.2,-434.86"/>
<text text-anchor="middle" x="263.02" y="-110.8" font-family="Arial" font-size="9.00">就绪1</text>
</g>
<!-- DECODER&#45;&gt;MUX -->
<g id="edge11" class="edge">
<title>DECODER&#45;&gt;MUX</title>
<path fill="none" stroke="#ff6347" stroke-width="2" d="M319.74,-477.24C342.16,-476.53 368.12,-475.71 391.2,-474.98"/>
<polygon fill="#ff6347" stroke="#ff6347" stroke-width="2" points="391.35,-478.48 401.24,-474.67 391.13,-471.48 391.35,-478.48"/>
<text text-anchor="middle" x="360.52" y="-478.8" font-family="Arial" font-size="9.00">选择信号</text>
</g>
<!-- HSEL -->
<g id="node14" class="node">
<title>HSEL</title>
<ellipse fill="#e6ffe6" stroke="#2e8b57" stroke-width="2" cx="624.09" cy="-584" rx="56.64" ry="22.76"/>
<text text-anchor="middle" x="624.09" y="-587.2" font-family="Arial" font-size="11.00">HSEL</text>
<text text-anchor="middle" x="624.09" y="-575.2" font-family="Arial" font-size="11.00">从设备选择</text>
</g>
<!-- DECODER&#45;&gt;HSEL -->
<g id="edge12" class="edge">
<title>DECODER&#45;&gt;HSEL</title>
<path fill="none" stroke="#228b22" stroke-width="2" d="M319.73,-495.29C387.37,-515.07 500.73,-548.22 568.06,-567.91"/>
<polygon fill="#228b22" stroke="#228b22" stroke-width="2" points="567.47,-571.38 578.05,-570.83 569.44,-564.66 567.47,-571.38"/>
<text text-anchor="middle" x="455.02" y="-554.8" font-family="Arial" font-size="9.00">HSEL[1:0]</text>
</g>
<!-- HRDATA -->
<g id="node12" class="node">
<title>HRDATA</title>
<ellipse fill="#e6ffe6" stroke="#2e8b57" stroke-width="2" cx="624.09" cy="-458" rx="43.68" ry="22.76"/>
<text text-anchor="middle" x="624.09" y="-461.2" font-family="Arial" font-size="11.00">HRDATA</text>
<text text-anchor="middle" x="624.09" y="-449.2" font-family="Arial" font-size="11.00">读数据</text>
</g>
<!-- MUX&#45;&gt;HRDATA -->
<g id="edge13" class="edge">
<title>MUX&#45;&gt;HRDATA</title>
<path fill="none" stroke="#228b22" stroke-width="2" d="M508.88,-468.25C528.58,-466.49 550.93,-464.48 570.6,-462.71"/>
<polygon fill="#228b22" stroke="#228b22" stroke-width="2" points="570.96,-466.19 580.61,-461.81 570.33,-459.22 570.96,-466.19"/>
<text text-anchor="middle" x="538.02" y="-468.8" font-family="Arial" font-size="9.00">数据</text>
</g>
<!-- HRESP -->
<g id="node13" class="node">
<title>HRESP</title>
<ellipse fill="#e6ffe6" stroke="#2e8b57" stroke-width="2" cx="624.09" cy="-395" rx="48.17" ry="22.76"/>
<text text-anchor="middle" x="624.09" y="-398.2" font-family="Arial" font-size="11.00">HRESP</text>
<text text-anchor="middle" x="624.09" y="-386.2" font-family="Arial" font-size="11.00">传输响应</text>
</g>
<!-- MUX&#45;&gt;HRESP -->
<g id="edge14" class="edge">
<title>MUX&#45;&gt;HRESP</title>
<path fill="none" stroke="#228b22" stroke-width="1.5" d="M508.88,-448.32C531.78,-437.63 558.26,-425.27 579.94,-415.14"/>
<polygon fill="#228b22" stroke="#228b22" stroke-width="1.5" points="581.65,-418.21 589.23,-410.81 578.69,-411.87 581.65,-418.21"/>
<text text-anchor="middle" x="538.02" y="-440.8" font-family="Arial" font-size="9.00">响应</text>
</g>
<!-- HREADY -->
<g id="node15" class="node">
<title>HREADY</title>
<ellipse fill="#e6ffe6" stroke="#2e8b57" stroke-width="2" cx="624.09" cy="-521" rx="48.17" ry="22.76"/>
<text text-anchor="middle" x="624.09" y="-524.2" font-family="Arial" font-size="11.00">HREADY</text>
<text text-anchor="middle" x="624.09" y="-512.2" font-family="Arial" font-size="11.00">总线就绪</text>
</g>
<!-- MUX&#45;&gt;HREADY -->
<g id="edge15" class="edge">
<title>MUX&#45;&gt;HREADY</title>
<path fill="none" stroke="#228b22" stroke-width="1.5" d="M508.88,-488.19C529.42,-494.09 552.83,-500.81 573.09,-506.63"/>
<polygon fill="#228b22" stroke="#228b22" stroke-width="1.5" points="572.18,-510.01 582.75,-509.41 574.11,-503.29 572.18,-510.01"/>
<text text-anchor="middle" x="538.02" y="-500.8" font-family="Arial" font-size="9.00">就绪</text>
</g>
</g>
</svg>
