<?xml version="1.0" encoding="UTF-8" standalone="no"?>
<!DOCTYPE svg PUBLIC "-//W3C//DTD SVG 1.1//EN"
 "http://www.w3.org/Graphics/SVG/1.1/DTD/svg11.dtd">
<!-- Generated by graphviz version 2.43.0 (0)
 -->
<!-- Title: ahb_irom_controller Pages: 1 -->
<svg width="844pt" height="551pt"
 viewBox="0.00 0.00 843.61 551.00" xmlns="http://www.w3.org/2000/svg" xmlns:xlink="http://www.w3.org/1999/xlink">
<g id="graph0" class="graph" transform="scale(1 1) rotate(0) translate(4 547)">
<title>ahb_irom_controller</title>
<polygon fill="white" stroke="transparent" points="-4,4 -4,-547 839.61,-547 839.61,4 -4,4"/>
<text text-anchor="middle" x="417.8" y="-527.8" font-family="Arial Bold" font-size="14.00">IROM 控制器模块 (IROM Controller)</text>
<text text-anchor="middle" x="417.8" y="-512.8" font-family="Arial Bold" font-size="14.00">AHB 到指令 ROM 协议转换</text>
<g id="clust1" class="cluster">
<title>cluster_inputs</title>
<polygon fill="#f0f8ff" stroke="#4169e1" stroke-width="2" points="8,-8 8,-497 120.17,-497 120.17,-8 8,-8"/>
<text text-anchor="middle" x="64.08" y="-481.8" font-family="Arial Bold" font-size="14.00">AHB 接口输入</text>
</g>
<g id="clust2" class="cluster">
<title>cluster_rom_in</title>
<polygon fill="#fff0f0" stroke="#dc143c" stroke-width="2" points="327.17,-57 327.17,-142 456.3,-142 456.3,-57 327.17,-57"/>
<text text-anchor="middle" x="391.74" y="-126.8" font-family="Arial Bold" font-size="14.00">ROM 数据输入</text>
</g>
<g id="clust3" class="cluster">
<title>cluster_module</title>
<path fill="#f0f0ff" stroke="#6a5acd" stroke-width="3" d="M186.17,-150C186.17,-150 612.39,-150 612.39,-150 618.39,-150 624.39,-156 624.39,-162 624.39,-162 624.39,-302 624.39,-302 624.39,-308 618.39,-314 612.39,-314 612.39,-314 186.17,-314 186.17,-314 180.17,-314 174.17,-308 174.17,-302 174.17,-302 174.17,-162 174.17,-162 174.17,-156 180.17,-150 186.17,-150"/>
</g>
<g id="clust4" class="cluster">
<title>cluster_outputs_ahb</title>
<polygon fill="#f0fff0" stroke="#228b22" stroke-width="2" points="698.47,-155 698.47,-356 827.61,-356 827.61,-155 698.47,-155"/>
<text text-anchor="middle" x="763.04" y="-340.8" font-family="Arial Bold" font-size="14.00">AHB 接口输出</text>
</g>
<g id="clust5" class="cluster">
<title>cluster_outputs_rom</title>
<polygon fill="#fff0ff" stroke="#9370db" stroke-width="2" points="520.3,-322 520.3,-463 632.47,-463 632.47,-322 520.3,-322"/>
<text text-anchor="middle" x="576.39" y="-447.8" font-family="Arial Bold" font-size="14.00">ROM 接口输出</text>
</g>
<!-- CLK -->
<g id="node1" class="node">
<title>CLK</title>
<ellipse fill="#e6f3ff" stroke="#4682b4" stroke-width="2" cx="64.08" cy="-328" rx="27" ry="18"/>
<text text-anchor="middle" x="64.08" y="-325.5" font-family="Arial" font-size="10.00">HCLK</text>
</g>
<!-- PROTO -->
<g id="node10" class="node">
<title>PROTO</title>
<path fill="#dda0dd" stroke="#9370db" stroke-width="2" d="M264.17,-246C264.17,-246 194.17,-246 194.17,-246 188.17,-246 182.17,-240 182.17,-234 182.17,-234 182.17,-202 182.17,-202 182.17,-196 188.17,-190 194.17,-190 194.17,-190 264.17,-190 264.17,-190 270.17,-190 276.17,-196 276.17,-202 276.17,-202 276.17,-234 276.17,-234 276.17,-240 270.17,-246 264.17,-246"/>
<text text-anchor="middle" x="229.17" y="-233.2" font-family="Arial" font-size="11.00">AHB 协议控制</text>
<text text-anchor="middle" x="229.17" y="-221.2" font-family="Arial" font-size="11.00">• 状态机</text>
<text text-anchor="middle" x="229.17" y="-209.2" font-family="Arial" font-size="11.00">• 地址锁存</text>
<text text-anchor="middle" x="229.17" y="-197.2" font-family="Arial" font-size="11.00">• 只读控制</text>
</g>
<!-- CLK&#45;&gt;PROTO -->
<g id="edge1" class="edge">
<title>CLK&#45;&gt;PROTO</title>
<path fill="none" stroke="#4169e1" stroke-width="1.5" d="M87.16,-318.6C97.49,-313.84 109.77,-307.67 120.17,-301 141.43,-287.35 144.99,-281.46 164.17,-265 168.7,-261.11 169.49,-259.73 174.17,-256 175.71,-254.77 177.3,-253.53 178.9,-252.29"/>
<polygon fill="#4169e1" stroke="#4169e1" stroke-width="1.5" points="181.21,-254.93 187.09,-246.12 177,-249.34 181.21,-254.93"/>
<text text-anchor="middle" x="147.17" y="-295.8" font-family="Arial" font-size="9.00">时钟</text>
</g>
<!-- RES -->
<g id="node2" class="node">
<title>RES</title>
<ellipse fill="#e6f3ff" stroke="#4682b4" stroke-width="2" cx="64.08" cy="-274" rx="37.17" ry="18"/>
<text text-anchor="middle" x="64.08" y="-271.5" font-family="Arial" font-size="10.00">HRESETn</text>
</g>
<!-- RES&#45;&gt;PROTO -->
<g id="edge2" class="edge">
<title>RES&#45;&gt;PROTO</title>
<path fill="none" stroke="#ff0000" stroke-width="1.5" d="M95,-263.73C116.6,-256.31 146.43,-246.07 172.37,-237.16"/>
<polygon fill="#ff0000" stroke="#ff0000" stroke-width="1.5" points="173.78,-240.38 182.1,-233.82 171.51,-233.75 173.78,-240.38"/>
<text text-anchor="middle" x="147.17" y="-253.8" font-family="Arial" font-size="9.00">复位</text>
</g>
<!-- HSEL -->
<g id="node3" class="node">
<title>HSEL</title>
<ellipse fill="#e6f3ff" stroke="#4682b4" stroke-width="2" cx="64.08" cy="-217" rx="33.88" ry="21.43"/>
<text text-anchor="middle" x="64.08" y="-220" font-family="Arial" font-size="10.00">HSELx</text>
<text text-anchor="middle" x="64.08" y="-209" font-family="Arial" font-size="10.00">片选</text>
</g>
<!-- HSEL&#45;&gt;PROTO -->
<g id="edge3" class="edge">
<title>HSEL&#45;&gt;PROTO</title>
<path fill="none" stroke="#4169e1" stroke-width="1.5" stroke-dasharray="5,2" d="M98.09,-217.2C119.18,-217.33 147.08,-217.5 171.64,-217.65"/>
<polygon fill="#4169e1" stroke="#4169e1" stroke-width="1.5" points="171.91,-221.15 181.93,-217.72 171.95,-214.16 171.91,-221.15"/>
</g>
<!-- HADDR -->
<g id="node4" class="node">
<title>HADDR</title>
<ellipse fill="#e6f3ff" stroke="#4682b4" stroke-width="2" cx="64.08" cy="-97" rx="37.45" ry="21.43"/>
<text text-anchor="middle" x="64.08" y="-100" font-family="Arial" font-size="10.00">HADDR</text>
<text text-anchor="middle" x="64.08" y="-89" font-family="Arial" font-size="10.00">地址</text>
</g>
<!-- ADDR -->
<g id="node11" class="node">
<title>ADDR</title>
<path fill="#e6e6fa" stroke="#6a5acd" stroke-width="2" d="M416.74,-199.5C416.74,-199.5 366.74,-199.5 366.74,-199.5 360.74,-199.5 354.74,-193.5 354.74,-187.5 354.74,-187.5 354.74,-170.5 354.74,-170.5 354.74,-164.5 360.74,-158.5 366.74,-158.5 366.74,-158.5 416.74,-158.5 416.74,-158.5 422.74,-158.5 428.74,-164.5 428.74,-170.5 428.74,-170.5 428.74,-187.5 428.74,-187.5 428.74,-193.5 422.74,-199.5 416.74,-199.5"/>
<text text-anchor="middle" x="391.74" y="-187.5" font-family="Arial" font-size="10.00">地址转换</text>
<text text-anchor="middle" x="391.74" y="-176.5" font-family="Arial" font-size="10.00">• 字节偏移</text>
<text text-anchor="middle" x="391.74" y="-165.5" font-family="Arial" font-size="10.00">• 对齐检查</text>
</g>
<!-- HADDR&#45;&gt;ADDR -->
<g id="edge6" class="edge">
<title>HADDR&#45;&gt;ADDR</title>
<path fill="none" stroke="#6a5acd" stroke-width="2" d="M98.71,-105.47C157.37,-120.24 278.47,-150.73 344.81,-167.44"/>
<polygon fill="#6a5acd" stroke="#6a5acd" stroke-width="2" points="344.02,-170.85 354.58,-169.89 345.73,-164.06 344.02,-170.85"/>
<text text-anchor="middle" x="229.17" y="-152.8" font-family="Arial" font-size="9.00">地址</text>
</g>
<!-- HWRITE -->
<g id="node5" class="node">
<title>HWRITE</title>
<ellipse fill="#e6f3ff" stroke="#4682b4" stroke-width="2" cx="64.08" cy="-445" rx="40.11" ry="21.43"/>
<text text-anchor="middle" x="64.08" y="-448" font-family="Arial" font-size="10.00">HWRITE</text>
<text text-anchor="middle" x="64.08" y="-437" font-family="Arial" font-size="10.00">写使能</text>
</g>
<!-- WRITE_CHK -->
<g id="node13" class="node">
<title>WRITE_CHK</title>
<path fill="#ffb6c1" stroke="#ff1493" stroke-width="2" d="M260.67,-305.5C260.67,-305.5 197.67,-305.5 197.67,-305.5 191.67,-305.5 185.67,-299.5 185.67,-293.5 185.67,-293.5 185.67,-276.5 185.67,-276.5 185.67,-270.5 191.67,-264.5 197.67,-264.5 197.67,-264.5 260.67,-264.5 260.67,-264.5 266.67,-264.5 272.67,-270.5 272.67,-276.5 272.67,-276.5 272.67,-293.5 272.67,-293.5 272.67,-299.5 266.67,-305.5 260.67,-305.5"/>
<text text-anchor="middle" x="229.17" y="-293.5" font-family="Arial" font-size="10.00">写保护检查</text>
<text text-anchor="middle" x="229.17" y="-282.5" font-family="Arial" font-size="10.00">• 写操作检测</text>
<text text-anchor="middle" x="229.17" y="-271.5" font-family="Arial" font-size="10.00">• 返回错误</text>
</g>
<!-- HWRITE&#45;&gt;WRITE_CHK -->
<g id="edge8" class="edge">
<title>HWRITE&#45;&gt;WRITE_CHK</title>
<path fill="none" stroke="#ff1493" stroke-width="2" d="M94.21,-430.9C102.84,-426.26 112.13,-420.79 120.17,-415 158.35,-387.48 191.09,-343.41 210.21,-314.33"/>
<polygon fill="#ff1493" stroke="#ff1493" stroke-width="2" points="213.22,-316.13 215.7,-305.82 207.34,-312.33 213.22,-316.13"/>
<text text-anchor="middle" x="147.17" y="-408.8" font-family="Arial" font-size="9.00">写检测</text>
</g>
<!-- HSIZE -->
<g id="node6" class="node">
<title>HSIZE</title>
<ellipse fill="#e6f3ff" stroke="#4682b4" stroke-width="2" cx="64.08" cy="-37" rx="48.17" ry="21.43"/>
<text text-anchor="middle" x="64.08" y="-40" font-family="Arial" font-size="10.00">HSIZE</text>
<text text-anchor="middle" x="64.08" y="-29" font-family="Arial" font-size="10.00">传输大小</text>
</g>
<!-- HSIZE&#45;&gt;ADDR -->
<g id="edge7" class="edge">
<title>HSIZE&#45;&gt;ADDR</title>
<path fill="none" stroke="#6a5acd" stroke-width="1.5" stroke-dasharray="5,2" d="M102.16,-50.29C144.68,-65.82 216.26,-92.88 276.17,-120 279.8,-121.65 315,-139.8 345.43,-155.54"/>
<polygon fill="#6a5acd" stroke="#6a5acd" stroke-width="1.5" points="344.2,-158.84 354.69,-160.32 347.41,-152.62 344.2,-158.84"/>
</g>
<!-- READ -->
<g id="node12" class="node">
<title>READ</title>
<path fill="#b0c4de" stroke="#4682b4" stroke-width="2" d="M604.39,-210C604.39,-210 548.39,-210 548.39,-210 542.39,-210 536.39,-204 536.39,-198 536.39,-198 536.39,-170 536.39,-170 536.39,-164 542.39,-158 548.39,-158 548.39,-158 604.39,-158 604.39,-158 610.39,-158 616.39,-164 616.39,-170 616.39,-170 616.39,-198 616.39,-198 616.39,-204 610.39,-210 604.39,-210"/>
<text text-anchor="middle" x="576.39" y="-198" font-family="Arial" font-size="10.00">读控制逻辑</text>
<text text-anchor="middle" x="576.39" y="-187" font-family="Arial" font-size="10.00">• 数据对齐</text>
<text text-anchor="middle" x="576.39" y="-176" font-family="Arial" font-size="10.00">• 大小扩展</text>
<text text-anchor="middle" x="576.39" y="-165" font-family="Arial" font-size="10.00">• 连续读取</text>
</g>
<!-- HSIZE&#45;&gt;READ -->
<g id="edge9" class="edge">
<title>HSIZE&#45;&gt;READ</title>
<path fill="none" stroke="#4682b4" stroke-width="1.5" stroke-dasharray="5,2" d="M108.12,-28.44C182.97,-15.73 340.21,1.22 456.3,-53 499.96,-73.39 534.8,-117.93 555.26,-149.4"/>
<polygon fill="#4682b4" stroke="#4682b4" stroke-width="1.5" points="552.33,-151.32 560.64,-157.9 558.24,-147.57 552.33,-151.32"/>
</g>
<!-- HTRANS -->
<g id="node7" class="node">
<title>HTRANS</title>
<ellipse fill="#e6f3ff" stroke="#4682b4" stroke-width="2" cx="64.08" cy="-385" rx="48.17" ry="21.43"/>
<text text-anchor="middle" x="64.08" y="-388" font-family="Arial" font-size="10.00">HTRANS</text>
<text text-anchor="middle" x="64.08" y="-377" font-family="Arial" font-size="10.00">传输类型</text>
</g>
<!-- HTRANS&#45;&gt;PROTO -->
<g id="edge4" class="edge">
<title>HTRANS&#45;&gt;PROTO</title>
<path fill="none" stroke="#4169e1" stroke-width="1.5" stroke-dasharray="5,2" d="M97.66,-369.57C105.35,-365.31 113.3,-360.37 120.17,-355 142.96,-337.17 151.12,-332.83 164.17,-307 174.58,-286.38 161.59,-275.38 174.17,-256 174.59,-255.35 175.02,-254.71 175.48,-254.08"/>
<polygon fill="#4169e1" stroke="#4169e1" stroke-width="1.5" points="178.27,-256.19 182.05,-246.29 172.92,-251.67 178.27,-256.19"/>
</g>
<!-- HREADY -->
<g id="node8" class="node">
<title>HREADY</title>
<ellipse fill="#e6f3ff" stroke="#4682b4" stroke-width="2" cx="64.08" cy="-157" rx="48.17" ry="21.43"/>
<text text-anchor="middle" x="64.08" y="-160" font-family="Arial" font-size="10.00">HREADY</text>
<text text-anchor="middle" x="64.08" y="-149" font-family="Arial" font-size="10.00">就绪输入</text>
</g>
<!-- HREADY&#45;&gt;PROTO -->
<g id="edge5" class="edge">
<title>HREADY&#45;&gt;PROTO</title>
<path fill="none" stroke="#4169e1" stroke-width="1.5" stroke-dasharray="5,2" d="M101.28,-170.54C122.23,-178.37 149.03,-188.4 172.6,-197.22"/>
<polygon fill="#4169e1" stroke="#4169e1" stroke-width="1.5" points="171.54,-200.56 182.13,-200.78 173.99,-194 171.54,-200.56"/>
</g>
<!-- ROM_DOUT -->
<g id="node9" class="node">
<title>ROM_DOUT</title>
<ellipse fill="#ffe6e6" stroke="#dc143c" stroke-width="2" cx="391.74" cy="-88" rx="56.64" ry="22.76"/>
<text text-anchor="middle" x="391.74" y="-91.2" font-family="Arial" font-size="11.00">bram_douta</text>
<text text-anchor="middle" x="391.74" y="-79.2" font-family="Arial" font-size="11.00">ROM读数据</text>
</g>
<!-- ROM_DOUT&#45;&gt;READ -->
<g id="edge10" class="edge">
<title>ROM_DOUT&#45;&gt;READ</title>
<path fill="none" stroke="#dc143c" stroke-width="2" d="M426.66,-105.83C454.93,-120.69 495.52,-142.02 527.16,-158.65"/>
<polygon fill="#dc143c" stroke="#dc143c" stroke-width="2" points="525.77,-161.88 536.25,-163.43 529.03,-155.68 525.77,-161.88"/>
<text text-anchor="middle" x="488.3" y="-149.8" font-family="Arial" font-size="9.00">ROM数据</text>
</g>
<!-- PROTO&#45;&gt;ADDR -->
<g id="edge11" class="edge">
<title>PROTO&#45;&gt;ADDR</title>
<path fill="none" stroke="#6a5acd" stroke-width="1.5" d="M276.18,-206.82C297.7,-201.6 323.26,-195.39 344.78,-190.16"/>
<polygon fill="#6a5acd" stroke="#6a5acd" stroke-width="1.5" points="345.77,-193.52 354.66,-187.76 344.12,-186.72 345.77,-193.52"/>
<text text-anchor="middle" x="305.67" y="-203.8" font-family="Arial" font-size="9.00">控制</text>
</g>
<!-- PROTO&#45;&gt;READ -->
<g id="edge12" class="edge">
<title>PROTO&#45;&gt;READ</title>
<path fill="none" stroke="#6a5acd" stroke-width="1.5" stroke-dasharray="5,2" d="M276.22,-216.49C289.44,-216.03 303.88,-215.52 317.17,-215 379.02,-212.6 394.89,-216.72 456.3,-209 479.55,-206.08 505.02,-200.99 526.41,-196.17"/>
<polygon fill="#6a5acd" stroke="#6a5acd" stroke-width="1.5" points="527.28,-199.56 536.24,-193.91 525.71,-192.74 527.28,-199.56"/>
<text text-anchor="middle" x="391.74" y="-216.8" font-family="Arial" font-size="9.00">控制</text>
</g>
<!-- RESP -->
<g id="node14" class="node">
<title>RESP</title>
<path fill="#98fb98" stroke="#228b22" stroke-width="2" d="M423.24,-305.5C423.24,-305.5 360.24,-305.5 360.24,-305.5 354.24,-305.5 348.24,-299.5 348.24,-293.5 348.24,-293.5 348.24,-276.5 348.24,-276.5 348.24,-270.5 354.24,-264.5 360.24,-264.5 360.24,-264.5 423.24,-264.5 423.24,-264.5 429.24,-264.5 435.24,-270.5 435.24,-276.5 435.24,-276.5 435.24,-293.5 435.24,-293.5 435.24,-299.5 429.24,-305.5 423.24,-305.5"/>
<text text-anchor="middle" x="391.74" y="-293.5" font-family="Arial" font-size="10.00">响应生成</text>
<text text-anchor="middle" x="391.74" y="-282.5" font-family="Arial" font-size="10.00">• HRESP</text>
<text text-anchor="middle" x="391.74" y="-271.5" font-family="Arial" font-size="10.00">• HREADYOUT</text>
</g>
<!-- PROTO&#45;&gt;RESP -->
<g id="edge13" class="edge">
<title>PROTO&#45;&gt;RESP</title>
<path fill="none" stroke="#6a5acd" stroke-width="1.5" d="M276.18,-237.2C295.7,-245.34 318.55,-254.88 338.68,-263.28"/>
<polygon fill="#6a5acd" stroke="#6a5acd" stroke-width="1.5" points="337.44,-266.55 348.02,-267.18 340.14,-260.09 337.44,-266.55"/>
<text text-anchor="middle" x="305.67" y="-255.8" font-family="Arial" font-size="9.00">状态</text>
</g>
<!-- ROM_EN -->
<g id="node19" class="node">
<title>ROM_EN</title>
<ellipse fill="#f3e6ff" stroke="#8b008b" stroke-width="2" cx="576.39" cy="-411" rx="41.94" ry="21.43"/>
<text text-anchor="middle" x="576.39" y="-414" font-family="Arial" font-size="10.00">bram_ena</text>
<text text-anchor="middle" x="576.39" y="-403" font-family="Arial" font-size="10.00">使能</text>
</g>
<!-- PROTO&#45;&gt;ROM_EN -->
<g id="edge20" class="edge">
<title>PROTO&#45;&gt;ROM_EN</title>
<path fill="none" stroke="#9370db" stroke-width="1.5" d="M267.87,-246.4C270.88,-249.46 273.7,-252.67 276.17,-256 288.51,-272.64 279.93,-283.95 294.17,-299 356.62,-364.98 462.97,-392.93 525.45,-404.11"/>
<polygon fill="#9370db" stroke="#9370db" stroke-width="1.5" points="525.01,-407.59 535.46,-405.83 526.19,-400.69 525.01,-407.59"/>
</g>
<!-- ADDR&#45;&gt;READ -->
<g id="edge14" class="edge">
<title>ADDR&#45;&gt;READ</title>
<path fill="none" stroke="#6a5acd" stroke-width="1.5" stroke-dasharray="5,2" d="M428.82,-179.99C456.66,-180.75 495.46,-181.81 526.15,-182.65"/>
<polygon fill="#6a5acd" stroke="#6a5acd" stroke-width="1.5" points="526.12,-186.15 536.21,-182.93 526.31,-179.16 526.12,-186.15"/>
<text text-anchor="middle" x="488.3" y="-184.8" font-family="Arial" font-size="9.00">偏移</text>
</g>
<!-- ROM_ADDR -->
<g id="node18" class="node">
<title>ROM_ADDR</title>
<ellipse fill="#f3e6ff" stroke="#8b008b" stroke-width="2" cx="576.39" cy="-351" rx="48.17" ry="21.43"/>
<text text-anchor="middle" x="576.39" y="-354" font-family="Arial" font-size="10.00">bram_addra</text>
<text text-anchor="middle" x="576.39" y="-343" font-family="Arial" font-size="10.00">地址</text>
</g>
<!-- ADDR&#45;&gt;ROM_ADDR -->
<g id="edge19" class="edge">
<title>ADDR&#45;&gt;ROM_ADDR</title>
<path fill="none" stroke="#9370db" stroke-width="2" d="M428.89,-194.74C438.48,-199.98 448.37,-206.44 456.3,-214 495.6,-251.44 481.7,-279.85 520.3,-318 524.62,-322.27 529.59,-326.21 534.75,-329.78"/>
<polygon fill="#9370db" stroke="#9370db" stroke-width="2" points="533.21,-332.95 543.51,-335.41 536.99,-327.06 533.21,-332.95"/>
<text text-anchor="middle" x="488.3" y="-308.8" font-family="Arial" font-size="9.00">转换后</text>
</g>
<!-- HRDATA -->
<g id="node15" class="node">
<title>HRDATA</title>
<ellipse fill="#e6ffe6" stroke="#2e8b57" stroke-width="2" cx="763.04" cy="-184" rx="40.11" ry="21.43"/>
<text text-anchor="middle" x="763.04" y="-187" font-family="Arial" font-size="10.00">HRDATA</text>
<text text-anchor="middle" x="763.04" y="-176" font-family="Arial" font-size="10.00">读数据</text>
</g>
<!-- READ&#45;&gt;HRDATA -->
<g id="edge16" class="edge">
<title>READ&#45;&gt;HRDATA</title>
<path fill="none" stroke="#228b22" stroke-width="2" d="M616.55,-184C644.48,-184 682.27,-184 712.33,-184"/>
<polygon fill="#228b22" stroke="#228b22" stroke-width="2" points="712.62,-187.5 722.62,-184 712.62,-180.5 712.62,-187.5"/>
<text text-anchor="middle" x="665.47" y="-186.8" font-family="Arial" font-size="9.00">对齐数据</text>
</g>
<!-- WRITE_CHK&#45;&gt;RESP -->
<g id="edge15" class="edge">
<title>WRITE_CHK&#45;&gt;RESP</title>
<path fill="none" stroke="#ff1493" stroke-width="2" stroke-dasharray="5,2" d="M272.77,-285C292.82,-285 316.91,-285 338.08,-285"/>
<polygon fill="#ff1493" stroke="#ff1493" stroke-width="2" points="338.21,-288.5 348.21,-285 338.21,-281.5 338.21,-288.5"/>
<text text-anchor="middle" x="305.67" y="-287.8" font-family="Arial" font-size="9.00">错误</text>
</g>
<!-- HRESP -->
<g id="node16" class="node">
<title>HRESP</title>
<ellipse fill="#e6ffe6" stroke="#2e8b57" stroke-width="2" cx="763.04" cy="-304" rx="36.54" ry="21.43"/>
<text text-anchor="middle" x="763.04" y="-307" font-family="Arial" font-size="10.00">HRESP</text>
<text text-anchor="middle" x="763.04" y="-296" font-family="Arial" font-size="10.00">响应</text>
</g>
<!-- RESP&#45;&gt;HRESP -->
<g id="edge17" class="edge">
<title>RESP&#45;&gt;HRESP</title>
<path fill="none" stroke="#228b22" stroke-width="1.5" d="M435.46,-287.2C505.49,-290.8 644.12,-297.93 716.16,-301.64"/>
<polygon fill="#228b22" stroke="#228b22" stroke-width="1.5" points="716.12,-305.14 726.29,-302.16 716.48,-298.15 716.12,-305.14"/>
</g>
<!-- HREADYOUT -->
<g id="node17" class="node">
<title>HREADYOUT</title>
<ellipse fill="#e6ffe6" stroke="#2e8b57" stroke-width="2" cx="763.04" cy="-244" rx="56.64" ry="21.43"/>
<text text-anchor="middle" x="763.04" y="-247" font-family="Arial" font-size="10.00">HREADYOUT</text>
<text text-anchor="middle" x="763.04" y="-236" font-family="Arial" font-size="10.00">就绪输出</text>
</g>
<!-- RESP&#45;&gt;HREADYOUT -->
<g id="edge18" class="edge">
<title>RESP&#45;&gt;HREADYOUT</title>
<path fill="none" stroke="#228b22" stroke-width="1.5" d="M435.46,-280.26C500.11,-273.08 623.2,-259.41 698.41,-251.06"/>
<polygon fill="#228b22" stroke="#228b22" stroke-width="1.5" points="699.14,-254.5 708.7,-249.92 698.37,-247.55 699.14,-254.5"/>
</g>
</g>
</svg>
