<?xml version="1.0" encoding="UTF-8" standalone="no"?>
<!DOCTYPE svg PUBLIC "-//W3C//DTD SVG 1.1//EN"
 "http://www.w3.org/Graphics/SVG/1.1/DTD/svg11.dtd">
<!-- Generated by graphviz version 2.43.0 (0)
 -->
<!-- Title: ahb_interconnect Pages: 1 -->
<svg width="865pt" height="692pt"
 viewBox="0.00 0.00 864.81 692.00" xmlns="http://www.w3.org/2000/svg" xmlns:xlink="http://www.w3.org/1999/xlink">
<g id="graph0" class="graph" transform="scale(1 1) rotate(0) translate(4 688)">
<title>ahb_interconnect</title>
<polygon fill="white" stroke="transparent" points="-4,4 -4,-688 860.81,-688 860.81,4 -4,4"/>
<text text-anchor="middle" x="428.41" y="-668.8" font-family="Arial Bold" font-size="14.00">AHB Interconnect Module</text>
<text text-anchor="middle" x="428.41" y="-653.8" font-family="Arial Bold" font-size="14.00">Bus Arbitration and Data Routing</text>
<g id="clust1" class="cluster">
<title>cluster_inputs</title>
<polygon fill="#f0f8ff" stroke="#4169e1" stroke-width="2" points="8,-8 8,-597 171.08,-597 171.08,-8 8,-8"/>
<text text-anchor="middle" x="89.54" y="-581.8" font-family="Arial Bold" font-size="14.00">Input Signals</text>
</g>
<g id="clust2" class="cluster">
<title>cluster_module</title>
<path fill="#fff5f5" stroke="#ff6347" stroke-width="3" d="M237.08,-437C237.08,-437 605.08,-437 605.08,-437 611.08,-437 617.08,-443 617.08,-449 617.08,-449 617.08,-497 617.08,-497 617.08,-503 611.08,-509 605.08,-509 605.08,-509 237.08,-509 237.08,-509 231.08,-509 225.08,-503 225.08,-497 225.08,-497 225.08,-449 225.08,-449 225.08,-443 231.08,-437 237.08,-437"/>
</g>
<g id="clust3" class="cluster">
<title>cluster_outputs</title>
<polygon fill="#f0fff0" stroke="#228b22" stroke-width="2" points="680.08,-364 680.08,-638 848.81,-638 848.81,-364 680.08,-364"/>
<text text-anchor="middle" x="764.45" y="-622.8" font-family="Arial Bold" font-size="14.00">Output Signals</text>
</g>
<!-- CLK -->
<g id="node1" class="node">
<title>CLK</title>
<ellipse fill="#e6f3ff" stroke="#4682b4" stroke-width="2" cx="89.54" cy="-417" rx="33.47" ry="22.76"/>
<text text-anchor="middle" x="89.54" y="-420.2" font-family="Arial" font-size="11.00">HCLK</text>
<text text-anchor="middle" x="89.54" y="-408.2" font-family="Arial" font-size="11.00">Clock</text>
</g>
<!-- MUX -->
<g id="node11" class="node">
<title>MUX</title>
<path fill="#ffc0cb" stroke="#ff6347" stroke-width="2" d="M597.08,-501C597.08,-501 467.08,-501 467.08,-501 461.08,-501 455.08,-495 455.08,-489 455.08,-489 455.08,-457 455.08,-457 455.08,-451 461.08,-445 467.08,-445 467.08,-445 597.08,-445 597.08,-445 603.08,-445 609.08,-451 609.08,-457 609.08,-457 609.08,-489 609.08,-489 609.08,-495 603.08,-501 597.08,-501"/>
<text text-anchor="middle" x="532.08" y="-488.2" font-family="Arial" font-size="11.00">AHB Multiplexor</text>
<text text-anchor="middle" x="532.08" y="-476.2" font-family="Arial" font-size="11.00">• Data Routing</text>
<text text-anchor="middle" x="532.08" y="-464.2" font-family="Arial" font-size="11.00">• Response Selection</text>
<text text-anchor="middle" x="532.08" y="-452.2" font-family="Arial" font-size="11.00">• Ready Signal Management</text>
</g>
<!-- CLK&#45;&gt;MUX -->
<g id="edge1" class="edge">
<title>CLK&#45;&gt;MUX</title>
<path fill="none" stroke="#4169e1" stroke-width="1.5" stroke-dasharray="5,2" d="M122.69,-414.94C173.96,-412.18 277.3,-408.71 364.08,-419 397.16,-422.92 405.27,-426.1 437.08,-436 442.55,-437.7 448.15,-439.58 453.77,-441.54"/>
<polygon fill="#4169e1" stroke="#4169e1" stroke-width="1.5" points="452.62,-444.85 463.21,-444.94 454.99,-438.26 452.62,-444.85"/>
<text text-anchor="middle" x="298.58" y="-421.8" font-family="Arial" font-size="9.00">Clock</text>
</g>
<!-- RES -->
<g id="node2" class="node">
<title>RES</title>
<ellipse fill="#e6f3ff" stroke="#4682b4" stroke-width="2" cx="89.54" cy="-480" rx="48.17" ry="22.76"/>
<text text-anchor="middle" x="89.54" y="-483.2" font-family="Arial" font-size="11.00">HRESETn</text>
<text text-anchor="middle" x="89.54" y="-471.2" font-family="Arial" font-size="11.00">Reset</text>
</g>
<!-- DECODER -->
<g id="node10" class="node">
<title>DECODER</title>
<path fill="#ffb6c1" stroke="#ff6347" stroke-width="2" d="M352.08,-501C352.08,-501 245.08,-501 245.08,-501 239.08,-501 233.08,-495 233.08,-489 233.08,-489 233.08,-469 233.08,-469 233.08,-463 239.08,-457 245.08,-457 245.08,-457 352.08,-457 352.08,-457 358.08,-457 364.08,-463 364.08,-469 364.08,-469 364.08,-489 364.08,-489 364.08,-495 358.08,-501 352.08,-501"/>
<text text-anchor="middle" x="298.58" y="-488.2" font-family="Arial" font-size="11.00">AHB Decoder</text>
<text text-anchor="middle" x="298.58" y="-476.2" font-family="Arial" font-size="11.00">• Address Decode</text>
<text text-anchor="middle" x="298.58" y="-464.2" font-family="Arial" font-size="11.00">• Generate Slave Select</text>
</g>
<!-- RES&#45;&gt;DECODER -->
<g id="edge2" class="edge">
<title>RES&#45;&gt;DECODER</title>
<path fill="none" stroke="#ff0000" stroke-width="1.5" stroke-dasharray="5,2" d="M137.78,-479.77C162.86,-479.65 194.28,-479.5 222.61,-479.36"/>
<polygon fill="#ff0000" stroke="#ff0000" stroke-width="1.5" points="222.91,-482.86 232.89,-479.31 222.87,-475.86 222.91,-482.86"/>
<text text-anchor="middle" x="198.08" y="-481.8" font-family="Arial" font-size="9.00">Reset</text>
</g>
<!-- RES&#45;&gt;MUX -->
<g id="edge3" class="edge">
<title>RES&#45;&gt;MUX</title>
<path fill="none" stroke="#ff0000" stroke-width="1.5" stroke-dasharray="5,2" d="M126.66,-465.44C153.36,-455.5 190.85,-443.22 225.08,-438 298.94,-426.74 383.32,-438.2 444.75,-450.93"/>
<polygon fill="#ff0000" stroke="#ff0000" stroke-width="1.5" points="444.28,-454.41 454.79,-453.06 445.73,-447.56 444.28,-454.41"/>
<text text-anchor="middle" x="298.58" y="-440.8" font-family="Arial" font-size="9.00">Reset</text>
</g>
<!-- HADDR -->
<g id="node3" class="node">
<title>HADDR</title>
<ellipse fill="#e6f3ff" stroke="#4682b4" stroke-width="2" cx="89.54" cy="-543" rx="55.31" ry="22.76"/>
<text text-anchor="middle" x="89.54" y="-546.2" font-family="Arial" font-size="11.00">HADDR</text>
<text text-anchor="middle" x="89.54" y="-534.2" font-family="Arial" font-size="11.00">Address Bus</text>
</g>
<!-- HADDR&#45;&gt;DECODER -->
<g id="edge4" class="edge">
<title>HADDR&#45;&gt;DECODER</title>
<path fill="none" stroke="#ff6347" stroke-width="2" d="M134.19,-529.51C159.88,-521.56 193.06,-511.31 222.81,-502.11"/>
<polygon fill="#ff6347" stroke="#ff6347" stroke-width="2" points="224.22,-505.34 232.74,-499.04 222.16,-498.65 224.22,-505.34"/>
<text text-anchor="middle" x="198.08" y="-516.8" font-family="Arial" font-size="9.00">Address</text>
</g>
<!-- HRDATA0 -->
<g id="node4" class="node">
<title>HRDATA0</title>
<ellipse fill="#e6f3ff" stroke="#4682b4" stroke-width="2" cx="89.54" cy="-354" rx="55.72" ry="22.76"/>
<text text-anchor="middle" x="89.54" y="-357.2" font-family="Arial" font-size="11.00">HRDATA0</text>
<text text-anchor="middle" x="89.54" y="-345.2" font-family="Arial" font-size="11.00">Slave 0 Data</text>
</g>
<!-- HRDATA0&#45;&gt;MUX -->
<g id="edge5" class="edge">
<title>HRDATA0&#45;&gt;MUX</title>
<path fill="none" stroke="#4169e1" stroke-width="1.5" d="M145.12,-356.68C215.17,-361.73 339.33,-376.14 437.08,-417 451.89,-423.19 467.16,-431.39 480.98,-439.61"/>
<polygon fill="#4169e1" stroke="#4169e1" stroke-width="1.5" points="479.46,-442.79 489.83,-444.99 483.1,-436.8 479.46,-442.79"/>
<text text-anchor="middle" x="298.58" y="-393.8" font-family="Arial" font-size="9.00">Data 0</text>
</g>
<!-- HRESP0 -->
<g id="node5" class="node">
<title>HRESP0</title>
<ellipse fill="#e6f3ff" stroke="#4682b4" stroke-width="2" cx="89.54" cy="-291" rx="73.58" ry="22.76"/>
<text text-anchor="middle" x="89.54" y="-294.2" font-family="Arial" font-size="11.00">HRESP0</text>
<text text-anchor="middle" x="89.54" y="-282.2" font-family="Arial" font-size="11.00">Slave 0 Response</text>
</g>
<!-- HRESP0&#45;&gt;MUX -->
<g id="edge6" class="edge">
<title>HRESP0&#45;&gt;MUX</title>
<path fill="none" stroke="#4169e1" stroke-width="1.5" stroke-dasharray="5,2" d="M157.76,-299.68C214.22,-308.38 296.31,-324.39 364.08,-351 399.13,-364.76 406.34,-372.26 437.08,-394 456.07,-407.44 475.96,-423.77 492.52,-438.1"/>
<polygon fill="#4169e1" stroke="#4169e1" stroke-width="1.5" points="490.53,-441.01 500.36,-444.95 495.13,-435.73 490.53,-441.01"/>
<text text-anchor="middle" x="298.58" y="-353.8" font-family="Arial" font-size="9.00">Resp 0</text>
</g>
<!-- HREADY0 -->
<g id="node6" class="node">
<title>HREADY0</title>
<ellipse fill="#e6f3ff" stroke="#4682b4" stroke-width="2" cx="89.54" cy="-228" rx="65.52" ry="22.76"/>
<text text-anchor="middle" x="89.54" y="-231.2" font-family="Arial" font-size="11.00">HREADYOUT0</text>
<text text-anchor="middle" x="89.54" y="-219.2" font-family="Arial" font-size="11.00">Slave 0 Ready</text>
</g>
<!-- HREADY0&#45;&gt;MUX -->
<g id="edge7" class="edge">
<title>HREADY0&#45;&gt;MUX</title>
<path fill="none" stroke="#4169e1" stroke-width="1.5" stroke-dasharray="5,2" d="M151.18,-235.9C208.33,-245.03 295.23,-263.31 364.08,-297 427.84,-328.19 480.02,-394.58 508.24,-436.31"/>
<polygon fill="#4169e1" stroke="#4169e1" stroke-width="1.5" points="505.44,-438.43 513.89,-444.82 511.27,-434.56 505.44,-438.43"/>
<text text-anchor="middle" x="298.58" y="-299.8" font-family="Arial" font-size="9.00">Ready 0</text>
</g>
<!-- HRDATA1 -->
<g id="node7" class="node">
<title>HRDATA1</title>
<ellipse fill="#e6f3ff" stroke="#4682b4" stroke-width="2" cx="89.54" cy="-165" rx="55.72" ry="22.76"/>
<text text-anchor="middle" x="89.54" y="-168.2" font-family="Arial" font-size="11.00">HRDATA1</text>
<text text-anchor="middle" x="89.54" y="-156.2" font-family="Arial" font-size="11.00">Slave 1 Data</text>
</g>
<!-- HRDATA1&#45;&gt;MUX -->
<g id="edge8" class="edge">
<title>HRDATA1&#45;&gt;MUX</title>
<path fill="none" stroke="#9370db" stroke-width="1.5" d="M143.48,-170.98C200.73,-179.17 293.29,-197.49 364.08,-236 444.16,-279.57 494.52,-380.12 517.13,-435.22"/>
<polygon fill="#9370db" stroke="#9370db" stroke-width="1.5" points="513.93,-436.65 520.9,-444.63 520.43,-434.04 513.93,-436.65"/>
<text text-anchor="middle" x="298.58" y="-238.8" font-family="Arial" font-size="9.00">Data 1</text>
</g>
<!-- HRESP1 -->
<g id="node8" class="node">
<title>HRESP1</title>
<ellipse fill="#e6f3ff" stroke="#4682b4" stroke-width="2" cx="89.54" cy="-102" rx="73.58" ry="22.76"/>
<text text-anchor="middle" x="89.54" y="-105.2" font-family="Arial" font-size="11.00">HRESP1</text>
<text text-anchor="middle" x="89.54" y="-93.2" font-family="Arial" font-size="11.00">Slave 1 Response</text>
</g>
<!-- HRESP1&#45;&gt;MUX -->
<g id="edge9" class="edge">
<title>HRESP1&#45;&gt;MUX</title>
<path fill="none" stroke="#9370db" stroke-width="1.5" stroke-dasharray="5,2" d="M159.12,-109.53C216.78,-118.13 299.84,-135.98 364.08,-172 463.49,-227.74 507.46,-367.48 523.43,-435.13"/>
<polygon fill="#9370db" stroke="#9370db" stroke-width="1.5" points="520.04,-435.98 525.67,-444.96 526.86,-434.43 520.04,-435.98"/>
<text text-anchor="middle" x="298.58" y="-174.8" font-family="Arial" font-size="9.00">Resp 1</text>
</g>
<!-- HREADY1 -->
<g id="node9" class="node">
<title>HREADY1</title>
<ellipse fill="#e6f3ff" stroke="#4682b4" stroke-width="2" cx="89.54" cy="-39" rx="65.52" ry="22.76"/>
<text text-anchor="middle" x="89.54" y="-42.2" font-family="Arial" font-size="11.00">HREADYOUT1</text>
<text text-anchor="middle" x="89.54" y="-30.2" font-family="Arial" font-size="11.00">Slave 1 Ready</text>
</g>
<!-- HREADY1&#45;&gt;MUX -->
<g id="edge10" class="edge">
<title>HREADY1&#45;&gt;MUX</title>
<path fill="none" stroke="#9370db" stroke-width="1.5" stroke-dasharray="5,2" d="M153.01,-45.13C210.87,-52.97 297.74,-70.35 364.08,-108 483.56,-175.82 518.06,-355.65 527.6,-434.75"/>
<polygon fill="#9370db" stroke="#9370db" stroke-width="1.5" points="524.13,-435.24 528.74,-444.78 531.09,-434.45 524.13,-435.24"/>
<text text-anchor="middle" x="298.58" y="-110.8" font-family="Arial" font-size="9.00">Ready 1</text>
</g>
<!-- DECODER&#45;&gt;MUX -->
<g id="edge11" class="edge">
<title>DECODER&#45;&gt;MUX</title>
<path fill="none" stroke="#ff6347" stroke-width="2" d="M364.37,-477.32C389.28,-476.68 418.12,-475.93 444.74,-475.24"/>
<polygon fill="#ff6347" stroke="#ff6347" stroke-width="2" points="444.91,-478.73 454.82,-474.98 444.73,-471.74 444.91,-478.73"/>
<text text-anchor="middle" x="409.58" y="-478.8" font-family="Arial" font-size="9.00">Select Signal</text>
</g>
<!-- HSEL -->
<g id="node14" class="node">
<title>HSEL</title>
<ellipse fill="#e6ffe6" stroke="#2e8b57" stroke-width="2" cx="764.45" cy="-584" rx="54.39" ry="22.76"/>
<text text-anchor="middle" x="764.45" y="-587.2" font-family="Arial" font-size="11.00">HSEL</text>
<text text-anchor="middle" x="764.45" y="-575.2" font-family="Arial" font-size="11.00">Slave Select</text>
</g>
<!-- DECODER&#45;&gt;HSEL -->
<g id="edge12" class="edge">
<title>DECODER&#45;&gt;HSEL</title>
<path fill="none" stroke="#228b22" stroke-width="2" d="M364.57,-493.71C455.59,-514.31 619.58,-551.44 706.22,-571.05"/>
<polygon fill="#228b22" stroke="#228b22" stroke-width="2" points="705.62,-574.5 716.14,-573.29 707.16,-567.67 705.62,-574.5"/>
<text text-anchor="middle" x="532.08" y="-552.8" font-family="Arial" font-size="9.00">HSEL[1:0]</text>
</g>
<!-- HRDATA -->
<g id="node12" class="node">
<title>HRDATA</title>
<ellipse fill="#e6ffe6" stroke="#2e8b57" stroke-width="2" cx="764.45" cy="-458" rx="48.58" ry="22.76"/>
<text text-anchor="middle" x="764.45" y="-461.2" font-family="Arial" font-size="11.00">HRDATA</text>
<text text-anchor="middle" x="764.45" y="-449.2" font-family="Arial" font-size="11.00">Read Data</text>
</g>
<!-- MUX&#45;&gt;HRDATA -->
<g id="edge13" class="edge">
<title>MUX&#45;&gt;HRDATA</title>
<path fill="none" stroke="#228b22" stroke-width="2" d="M609.15,-468.05C640.68,-465.99 676.66,-463.65 705.93,-461.74"/>
<polygon fill="#228b22" stroke="#228b22" stroke-width="2" points="706.24,-465.23 715.99,-461.09 705.79,-458.25 706.24,-465.23"/>
<text text-anchor="middle" x="648.58" y="-468.8" font-family="Arial" font-size="9.00">Data</text>
</g>
<!-- HRESP -->
<g id="node13" class="node">
<title>HRESP</title>
<ellipse fill="#e6ffe6" stroke="#2e8b57" stroke-width="2" cx="764.45" cy="-395" rx="76.24" ry="22.76"/>
<text text-anchor="middle" x="764.45" y="-398.2" font-family="Arial" font-size="11.00">HRESP</text>
<text text-anchor="middle" x="764.45" y="-386.2" font-family="Arial" font-size="11.00">Transfer Response</text>
</g>
<!-- MUX&#45;&gt;HRESP -->
<g id="edge14" class="edge">
<title>MUX&#45;&gt;HRESP</title>
<path fill="none" stroke="#228b22" stroke-width="1.5" d="M609.15,-447.24C640,-436.8 675.09,-424.91 704.01,-415.12"/>
<polygon fill="#228b22" stroke="#228b22" stroke-width="1.5" points="705.22,-418.41 713.57,-411.89 702.97,-411.78 705.22,-418.41"/>
<text text-anchor="middle" x="648.58" y="-442.8" font-family="Arial" font-size="9.00">Response</text>
</g>
<!-- HREADY -->
<g id="node15" class="node">
<title>HREADY</title>
<ellipse fill="#e6ffe6" stroke="#2e8b57" stroke-width="2" cx="764.45" cy="-521" rx="49.49" ry="22.76"/>
<text text-anchor="middle" x="764.45" y="-524.2" font-family="Arial" font-size="11.00">HREADY</text>
<text text-anchor="middle" x="764.45" y="-512.2" font-family="Arial" font-size="11.00">Bus Ready</text>
</g>
<!-- MUX&#45;&gt;HREADY -->
<g id="edge15" class="edge">
<title>MUX&#45;&gt;HREADY</title>
<path fill="none" stroke="#228b22" stroke-width="1.5" d="M609.15,-488.85C641.88,-495.67 679.4,-503.49 709.24,-509.71"/>
<polygon fill="#228b22" stroke="#228b22" stroke-width="1.5" points="708.54,-513.14 719.05,-511.75 709.97,-506.28 708.54,-513.14"/>
<text text-anchor="middle" x="648.58" y="-503.8" font-family="Arial" font-size="9.00">Ready</text>
</g>
</g>
</svg>
