<?xml version="1.0" encoding="UTF-8" standalone="no"?>
<!DOCTYPE svg PUBLIC "-//W3C//DTD SVG 1.1//EN"
 "http://www.w3.org/Graphics/SVG/1.1/DTD/svg11.dtd">
<!-- Generated by graphviz version 2.43.0 (0)
 -->
<!-- Title: ahb_bram_controller Pages: 1 -->
<svg width="851pt" height="695pt"
 viewBox="0.00 0.00 850.75 694.53" xmlns="http://www.w3.org/2000/svg" xmlns:xlink="http://www.w3.org/1999/xlink">
<g id="graph0" class="graph" transform="scale(1 1) rotate(0) translate(4 690.53)">
<title>ahb_bram_controller</title>
<polygon fill="white" stroke="transparent" points="-4,4 -4,-690.53 846.75,-690.53 846.75,4 -4,4"/>
<text text-anchor="middle" x="421.38" y="-671.33" font-family="Arial Bold" font-size="14.00">BRAM 控制器模块 (BRAM Controller)</text>
<text text-anchor="middle" x="421.38" y="-656.33" font-family="Arial Bold" font-size="14.00">AHB 到 BRAM 协议转换</text>
<g id="clust1" class="cluster">
<title>cluster_inputs</title>
<polygon fill="#f0f8ff" stroke="#4169e1" stroke-width="2" points="8,-70.53 8,-619.53 120.17,-619.53 120.17,-70.53 8,-70.53"/>
<text text-anchor="middle" x="64.08" y="-604.33" font-family="Arial Bold" font-size="14.00">AHB 接口输入</text>
</g>
<g id="clust2" class="cluster">
<title>cluster_bram_in</title>
<polygon fill="#fff0f0" stroke="#dc143c" stroke-width="2" points="327.17,-23.53 327.17,-108.53 466.2,-108.53 466.2,-23.53 327.17,-23.53"/>
<text text-anchor="middle" x="396.68" y="-93.33" font-family="Arial Bold" font-size="14.00">BRAM 数据输入</text>
</g>
<g id="clust3" class="cluster">
<title>cluster_module</title>
<path fill="#fffaf0" stroke="#ff8c00" stroke-width="3" d="M175.17,-225.53C175.17,-225.53 626.2,-225.53 626.2,-225.53 632.2,-225.53 638.2,-231.53 638.2,-237.53 638.2,-237.53 638.2,-423.53 638.2,-423.53 638.2,-429.53 632.2,-435.53 626.2,-435.53 626.2,-435.53 175.17,-435.53 175.17,-435.53 169.17,-435.53 163.17,-429.53 163.17,-423.53 163.17,-423.53 163.17,-237.53 163.17,-237.53 163.17,-231.53 169.17,-225.53 175.17,-225.53"/>
</g>
<g id="clust4" class="cluster">
<title>cluster_outputs_ahb</title>
<polygon fill="#f0fff0" stroke="#228b22" stroke-width="2" points="704.91,-439.53 704.91,-640.53 834.05,-640.53 834.05,-439.53 704.91,-439.53"/>
<text text-anchor="middle" x="769.48" y="-625.33" font-family="Arial Bold" font-size="14.00">AHB 接口输出</text>
</g>
<g id="clust5" class="cluster">
<title>cluster_outputs_bram</title>
<polygon fill="#fff0ff" stroke="#9370db" stroke-width="2" points="704.2,-170.53 704.2,-431.53 834.75,-431.53 834.75,-170.53 704.2,-170.53"/>
<text text-anchor="middle" x="769.48" y="-416.33" font-family="Arial Bold" font-size="14.00">BRAM 接口输出</text>
</g>
<!-- CLK -->
<g id="node1" class="node">
<title>CLK</title>
<ellipse fill="#e6f3ff" stroke="#4682b4" stroke-width="2" cx="64.08" cy="-510.53" rx="27" ry="18"/>
<text text-anchor="middle" x="64.08" y="-508.03" font-family="Arial" font-size="10.00">HCLK</text>
</g>
<!-- PROTO -->
<g id="node11" class="node">
<title>PROTO</title>
<path fill="#ffd700" stroke="#ff8c00" stroke-width="2" d="M253.17,-427.53C253.17,-427.53 183.17,-427.53 183.17,-427.53 177.17,-427.53 171.17,-421.53 171.17,-415.53 171.17,-415.53 171.17,-383.53 171.17,-383.53 171.17,-377.53 177.17,-371.53 183.17,-371.53 183.17,-371.53 253.17,-371.53 253.17,-371.53 259.17,-371.53 265.17,-377.53 265.17,-383.53 265.17,-383.53 265.17,-415.53 265.17,-415.53 265.17,-421.53 259.17,-427.53 253.17,-427.53"/>
<text text-anchor="middle" x="218.17" y="-414.73" font-family="Arial" font-size="11.00">AHB 协议控制</text>
<text text-anchor="middle" x="218.17" y="-402.73" font-family="Arial" font-size="11.00">• 状态机</text>
<text text-anchor="middle" x="218.17" y="-390.73" font-family="Arial" font-size="11.00">• 地址锁存</text>
<text text-anchor="middle" x="218.17" y="-378.73" font-family="Arial" font-size="11.00">• 数据锁存</text>
</g>
<!-- CLK&#45;&gt;PROTO -->
<g id="edge1" class="edge">
<title>CLK&#45;&gt;PROTO</title>
<path fill="none" stroke="#4169e1" stroke-width="1.5" d="M87.24,-501.26C97.59,-496.54 109.86,-490.35 120.17,-483.53 141.59,-469.35 163.4,-450.9 180.9,-434.9"/>
<polygon fill="#4169e1" stroke="#4169e1" stroke-width="1.5" points="183.66,-437.11 188.62,-427.75 178.9,-431.98 183.66,-437.11"/>
<text text-anchor="middle" x="141.67" y="-478.33" font-family="Arial" font-size="9.00">时钟</text>
</g>
<!-- RES -->
<g id="node2" class="node">
<title>RES</title>
<ellipse fill="#e6f3ff" stroke="#4682b4" stroke-width="2" cx="64.08" cy="-456.53" rx="37.17" ry="18"/>
<text text-anchor="middle" x="64.08" y="-454.03" font-family="Arial" font-size="10.00">HRESETn</text>
</g>
<!-- RES&#45;&gt;PROTO -->
<g id="edge2" class="edge">
<title>RES&#45;&gt;PROTO</title>
<path fill="none" stroke="#ff0000" stroke-width="1.5" d="M94.05,-445.68C113.05,-438.56 138.52,-429.01 161.36,-420.45"/>
<polygon fill="#ff0000" stroke="#ff0000" stroke-width="1.5" points="162.83,-423.64 170.97,-416.85 160.37,-417.08 162.83,-423.64"/>
<text text-anchor="middle" x="141.67" y="-433.33" font-family="Arial" font-size="9.00">复位</text>
</g>
<!-- HSEL -->
<g id="node3" class="node">
<title>HSEL</title>
<ellipse fill="#e6f3ff" stroke="#4682b4" stroke-width="2" cx="64.08" cy="-399.53" rx="33.88" ry="21.43"/>
<text text-anchor="middle" x="64.08" y="-402.53" font-family="Arial" font-size="10.00">HSELx</text>
<text text-anchor="middle" x="64.08" y="-391.53" font-family="Arial" font-size="10.00">片选</text>
</g>
<!-- HSEL&#45;&gt;PROTO -->
<g id="edge3" class="edge">
<title>HSEL&#45;&gt;PROTO</title>
<path fill="none" stroke="#4169e1" stroke-width="1.5" stroke-dasharray="5,2" d="M98.08,-399.53C116.4,-399.53 139.69,-399.53 160.8,-399.53"/>
<polygon fill="#4169e1" stroke="#4169e1" stroke-width="1.5" points="160.96,-403.03 170.96,-399.53 160.96,-396.03 160.96,-403.03"/>
</g>
<!-- HADDR -->
<g id="node4" class="node">
<title>HADDR</title>
<ellipse fill="#e6f3ff" stroke="#4682b4" stroke-width="2" cx="64.08" cy="-279.53" rx="37.45" ry="21.43"/>
<text text-anchor="middle" x="64.08" y="-282.53" font-family="Arial" font-size="10.00">HADDR</text>
<text text-anchor="middle" x="64.08" y="-271.53" font-family="Arial" font-size="10.00">地址</text>
</g>
<!-- ADDR -->
<g id="node12" class="node">
<title>ADDR</title>
<path fill="#ffe4b5" stroke="#ff8c00" stroke-width="2" d="M421.68,-275.03C421.68,-275.03 371.68,-275.03 371.68,-275.03 365.68,-275.03 359.68,-269.03 359.68,-263.03 359.68,-263.03 359.68,-246.03 359.68,-246.03 359.68,-240.03 365.68,-234.03 371.68,-234.03 371.68,-234.03 421.68,-234.03 421.68,-234.03 427.68,-234.03 433.68,-240.03 433.68,-246.03 433.68,-246.03 433.68,-263.03 433.68,-263.03 433.68,-269.03 427.68,-275.03 421.68,-275.03"/>
<text text-anchor="middle" x="396.68" y="-263.03" font-family="Arial" font-size="10.00">地址转换</text>
<text text-anchor="middle" x="396.68" y="-252.03" font-family="Arial" font-size="10.00">• 字节偏移</text>
<text text-anchor="middle" x="396.68" y="-241.03" font-family="Arial" font-size="10.00">• 对齐处理</text>
</g>
<!-- HADDR&#45;&gt;ADDR -->
<g id="edge6" class="edge">
<title>HADDR&#45;&gt;ADDR</title>
<path fill="none" stroke="#ff8c00" stroke-width="2" d="M101.41,-276.79C161.83,-272.22 282.9,-263.06 349.37,-258.04"/>
<polygon fill="#ff8c00" stroke="#ff8c00" stroke-width="2" points="349.84,-261.51 359.55,-257.27 349.31,-254.53 349.84,-261.51"/>
<text text-anchor="middle" x="218.17" y="-274.33" font-family="Arial" font-size="9.00">地址</text>
</g>
<!-- HWRITE -->
<g id="node5" class="node">
<title>HWRITE</title>
<ellipse fill="#e6f3ff" stroke="#4682b4" stroke-width="2" cx="64.08" cy="-99.53" rx="40.11" ry="21.43"/>
<text text-anchor="middle" x="64.08" y="-102.53" font-family="Arial" font-size="10.00">HWRITE</text>
<text text-anchor="middle" x="64.08" y="-91.53" font-family="Arial" font-size="10.00">写使能</text>
</g>
<!-- WRITE -->
<g id="node13" class="node">
<title>WRITE</title>
<path fill="#ffb6c1" stroke="#ff1493" stroke-width="2" d="M618.2,-285.53C618.2,-285.53 555.2,-285.53 555.2,-285.53 549.2,-285.53 543.2,-279.53 543.2,-273.53 543.2,-273.53 543.2,-245.53 543.2,-245.53 543.2,-239.53 549.2,-233.53 555.2,-233.53 555.2,-233.53 618.2,-233.53 618.2,-233.53 624.2,-233.53 630.2,-239.53 630.2,-245.53 630.2,-245.53 630.2,-273.53 630.2,-273.53 630.2,-279.53 624.2,-285.53 618.2,-285.53"/>
<text text-anchor="middle" x="586.7" y="-273.53" font-family="Arial" font-size="10.00">写控制逻辑</text>
<text text-anchor="middle" x="586.7" y="-262.53" font-family="Arial" font-size="10.00">• 字节写使能</text>
<text text-anchor="middle" x="586.7" y="-251.53" font-family="Arial" font-size="10.00">• 数据对齐</text>
<text text-anchor="middle" x="586.7" y="-240.53" font-family="Arial" font-size="10.00">• 大小译码</text>
</g>
<!-- HWRITE&#45;&gt;WRITE -->
<g id="edge8" class="edge">
<title>HWRITE&#45;&gt;WRITE</title>
<path fill="none" stroke="#ff1493" stroke-width="1.5" d="M104.53,-101.08C203.18,-105.64 457.51,-121.82 525.2,-169.53 544.64,-183.24 559.63,-205.33 569.82,-224.2"/>
<polygon fill="#ff1493" stroke="#ff1493" stroke-width="1.5" points="566.75,-225.87 574.44,-233.15 572.97,-222.66 566.75,-225.87"/>
</g>
<!-- HSIZE -->
<g id="node6" class="node">
<title>HSIZE</title>
<ellipse fill="#e6f3ff" stroke="#4682b4" stroke-width="2" cx="64.08" cy="-219.53" rx="48.17" ry="21.43"/>
<text text-anchor="middle" x="64.08" y="-222.53" font-family="Arial" font-size="10.00">HSIZE</text>
<text text-anchor="middle" x="64.08" y="-211.53" font-family="Arial" font-size="10.00">传输大小</text>
</g>
<!-- HSIZE&#45;&gt;ADDR -->
<g id="edge7" class="edge">
<title>HSIZE&#45;&gt;ADDR</title>
<path fill="none" stroke="#ff8c00" stroke-width="1.5" stroke-dasharray="5,2" d="M111.05,-224.4C173.91,-231.06 286.06,-242.93 349.19,-249.61"/>
<polygon fill="#ff8c00" stroke="#ff8c00" stroke-width="1.5" points="348.95,-253.11 359.26,-250.68 349.68,-246.14 348.95,-253.11"/>
</g>
<!-- HSIZE&#45;&gt;WRITE -->
<g id="edge9" class="edge">
<title>HSIZE&#45;&gt;WRITE</title>
<path fill="none" stroke="#ff1493" stroke-width="1.5" stroke-dasharray="5,2" d="M96.57,-203.71C104.45,-199.4 112.76,-194.53 120.17,-189.53 218.88,-122.99 215.08,-59.66 327.17,-19.53 385.34,1.29 412.05,10.24 466.2,-19.53 541.46,-60.92 570.31,-167.32 580.56,-223.52"/>
<polygon fill="#ff1493" stroke="#ff1493" stroke-width="1.5" points="577.11,-224.15 582.26,-233.41 584.01,-222.96 577.11,-224.15"/>
</g>
<!-- READ -->
<g id="node14" class="node">
<title>READ</title>
<path fill="#afeeee" stroke="#20b2aa" stroke-width="2" d="M614.7,-355.53C614.7,-355.53 558.7,-355.53 558.7,-355.53 552.7,-355.53 546.7,-349.53 546.7,-343.53 546.7,-343.53 546.7,-315.53 546.7,-315.53 546.7,-309.53 552.7,-303.53 558.7,-303.53 558.7,-303.53 614.7,-303.53 614.7,-303.53 620.7,-303.53 626.7,-309.53 626.7,-315.53 626.7,-315.53 626.7,-343.53 626.7,-343.53 626.7,-349.53 620.7,-355.53 614.7,-355.53"/>
<text text-anchor="middle" x="586.7" y="-343.53" font-family="Arial" font-size="10.00">读控制逻辑</text>
<text text-anchor="middle" x="586.7" y="-332.53" font-family="Arial" font-size="10.00">• 数据对齐</text>
<text text-anchor="middle" x="586.7" y="-321.53" font-family="Arial" font-size="10.00">• 大小扩展</text>
<text text-anchor="middle" x="586.7" y="-310.53" font-family="Arial" font-size="10.00">• 1周期延迟</text>
</g>
<!-- HSIZE&#45;&gt;READ -->
<g id="edge11" class="edge">
<title>HSIZE&#45;&gt;READ</title>
<path fill="none" stroke="#20b2aa" stroke-width="1.5" stroke-dasharray="5,2" d="M110.92,-214.18C186.18,-206.71 340.18,-197.08 466.2,-225.53 494.33,-231.89 505.06,-231.9 525.2,-252.53 539.39,-267.07 531.02,-278.29 543.2,-294.53 543.49,-294.92 543.78,-295.3 544.08,-295.68"/>
<polygon fill="#20b2aa" stroke="#20b2aa" stroke-width="1.5" points="541.64,-298.2 550.89,-303.36 546.88,-293.56 541.64,-298.2"/>
</g>
<!-- HTRANS -->
<g id="node7" class="node">
<title>HTRANS</title>
<ellipse fill="#e6f3ff" stroke="#4682b4" stroke-width="2" cx="64.08" cy="-339.53" rx="48.17" ry="21.43"/>
<text text-anchor="middle" x="64.08" y="-342.53" font-family="Arial" font-size="10.00">HTRANS</text>
<text text-anchor="middle" x="64.08" y="-331.53" font-family="Arial" font-size="10.00">传输类型</text>
</g>
<!-- HTRANS&#45;&gt;PROTO -->
<g id="edge4" class="edge">
<title>HTRANS&#45;&gt;PROTO</title>
<path fill="none" stroke="#4169e1" stroke-width="1.5" stroke-dasharray="5,2" d="M100.74,-353.6C118.85,-360.75 141.28,-369.59 161.59,-377.61"/>
<polygon fill="#4169e1" stroke="#4169e1" stroke-width="1.5" points="160.47,-380.93 171.06,-381.34 163.04,-374.42 160.47,-380.93"/>
</g>
<!-- HREADY -->
<g id="node8" class="node">
<title>HREADY</title>
<ellipse fill="#e6f3ff" stroke="#4682b4" stroke-width="2" cx="64.08" cy="-567.53" rx="48.17" ry="21.43"/>
<text text-anchor="middle" x="64.08" y="-570.53" font-family="Arial" font-size="10.00">HREADY</text>
<text text-anchor="middle" x="64.08" y="-559.53" font-family="Arial" font-size="10.00">就绪输入</text>
</g>
<!-- HREADY&#45;&gt;PROTO -->
<g id="edge5" class="edge">
<title>HREADY&#45;&gt;PROTO</title>
<path fill="none" stroke="#4169e1" stroke-width="1.5" stroke-dasharray="5,2" d="M98.46,-552.55C106.04,-548.31 113.75,-543.26 120.17,-537.53 152.65,-508.56 180.11,-466.72 197.43,-436.71"/>
<polygon fill="#4169e1" stroke="#4169e1" stroke-width="1.5" points="200.59,-438.23 202.47,-427.81 194.5,-434.78 200.59,-438.23"/>
</g>
<!-- HWDATA -->
<g id="node9" class="node">
<title>HWDATA</title>
<ellipse fill="#e6f3ff" stroke="#4682b4" stroke-width="2" cx="64.08" cy="-159.53" rx="41.94" ry="21.43"/>
<text text-anchor="middle" x="64.08" y="-162.53" font-family="Arial" font-size="10.00">HWDATA</text>
<text text-anchor="middle" x="64.08" y="-151.53" font-family="Arial" font-size="10.00">写数据</text>
</g>
<!-- HWDATA&#45;&gt;WRITE -->
<g id="edge10" class="edge">
<title>HWDATA&#45;&gt;WRITE</title>
<path fill="none" stroke="#ff1493" stroke-width="2" d="M106.01,-158.09C204.58,-155.26 452.37,-152.09 525.2,-188.53 541.39,-196.64 554.98,-211.2 565.15,-225.04"/>
<polygon fill="#ff1493" stroke="#ff1493" stroke-width="2" points="562.45,-227.29 571.04,-233.5 568.2,-223.29 562.45,-227.29"/>
<text text-anchor="middle" x="300.17" y="-160.33" font-family="Arial" font-size="9.00">写数据</text>
</g>
<!-- BRAM_DOUT -->
<g id="node10" class="node">
<title>BRAM_DOUT</title>
<ellipse fill="#ffe6e6" stroke="#dc143c" stroke-width="2" cx="396.68" cy="-54.53" rx="61.54" ry="22.76"/>
<text text-anchor="middle" x="396.68" y="-57.73" font-family="Arial" font-size="11.00">bram_douta</text>
<text text-anchor="middle" x="396.68" y="-45.73" font-family="Arial" font-size="11.00">BRAM读数据</text>
</g>
<!-- BRAM_DOUT&#45;&gt;READ -->
<g id="edge12" class="edge">
<title>BRAM_DOUT&#45;&gt;READ</title>
<path fill="none" stroke="#dc143c" stroke-width="2" d="M427.08,-74.23C457,-96 502.18,-133.95 525.2,-178.53 549.14,-224.89 517.37,-249.2 543.2,-294.53 543.37,-294.83 543.54,-295.12 543.72,-295.42"/>
<polygon fill="#dc143c" stroke="#dc143c" stroke-width="2" points="540.9,-297.5 549.65,-303.48 546.55,-293.35 540.9,-297.5"/>
<text text-anchor="middle" x="500.7" y="-181.33" font-family="Arial" font-size="9.00">BRAM数据</text>
</g>
<!-- PROTO&#45;&gt;ADDR -->
<g id="edge13" class="edge">
<title>PROTO&#45;&gt;ADDR</title>
<path fill="none" stroke="#ff8c00" stroke-width="1.5" d="M234.32,-371.13C245.72,-351.83 262.85,-326.78 283.17,-309.53 302.81,-292.87 328.37,-279.85 350.16,-270.67"/>
<polygon fill="#ff8c00" stroke="#ff8c00" stroke-width="1.5" points="351.61,-273.86 359.56,-266.85 348.97,-267.37 351.61,-273.86"/>
<text text-anchor="middle" x="300.17" y="-312.33" font-family="Arial" font-size="9.00">控制</text>
</g>
<!-- PROTO&#45;&gt;WRITE -->
<g id="edge14" class="edge">
<title>PROTO&#45;&gt;WRITE</title>
<path fill="none" stroke="#ff8c00" stroke-width="1.5" stroke-dasharray="5,2" d="M256.5,-371.21C276.58,-357.06 302.27,-340.64 327.17,-329.53 363.85,-313.17 468.76,-287.01 533.11,-271.73"/>
<polygon fill="#ff8c00" stroke="#ff8c00" stroke-width="1.5" points="534.14,-275.08 543.07,-269.38 532.53,-268.27 534.14,-275.08"/>
<text text-anchor="middle" x="396.68" y="-332.33" font-family="Arial" font-size="9.00">控制</text>
</g>
<!-- PROTO&#45;&gt;READ -->
<g id="edge15" class="edge">
<title>PROTO&#45;&gt;READ</title>
<path fill="none" stroke="#ff8c00" stroke-width="1.5" stroke-dasharray="5,2" d="M265.3,-384.29C284.31,-378.43 306.64,-372.06 327.17,-367.53 399.23,-351.65 484.09,-340.61 536.39,-334.67"/>
<polygon fill="#ff8c00" stroke="#ff8c00" stroke-width="1.5" points="536.86,-338.14 546.41,-333.55 536.08,-331.18 536.86,-338.14"/>
<text text-anchor="middle" x="396.68" y="-370.33" font-family="Arial" font-size="9.00">控制</text>
</g>
<!-- RESP -->
<g id="node15" class="node">
<title>RESP</title>
<path fill="#98fb98" stroke="#228b22" stroke-width="2" d="M428.18,-427.03C428.18,-427.03 365.18,-427.03 365.18,-427.03 359.18,-427.03 353.18,-421.03 353.18,-415.03 353.18,-415.03 353.18,-398.03 353.18,-398.03 353.18,-392.03 359.18,-386.03 365.18,-386.03 365.18,-386.03 428.18,-386.03 428.18,-386.03 434.18,-386.03 440.18,-392.03 440.18,-398.03 440.18,-398.03 440.18,-415.03 440.18,-415.03 440.18,-421.03 434.18,-427.03 428.18,-427.03"/>
<text text-anchor="middle" x="396.68" y="-415.03" font-family="Arial" font-size="10.00">响应生成</text>
<text text-anchor="middle" x="396.68" y="-404.03" font-family="Arial" font-size="10.00">• HRESP</text>
<text text-anchor="middle" x="396.68" y="-393.03" font-family="Arial" font-size="10.00">• HREADYOUT</text>
</g>
<!-- PROTO&#45;&gt;RESP -->
<g id="edge16" class="edge">
<title>PROTO&#45;&gt;RESP</title>
<path fill="none" stroke="#ff8c00" stroke-width="1.5" d="M265.54,-401.37C289.23,-402.31 318.15,-403.46 342.71,-404.43"/>
<polygon fill="#ff8c00" stroke="#ff8c00" stroke-width="1.5" points="342.81,-407.94 352.94,-404.84 343.09,-400.95 342.81,-407.94"/>
<text text-anchor="middle" x="300.17" y="-405.33" font-family="Arial" font-size="9.00">状态</text>
</g>
<!-- BRAM_EN -->
<g id="node21" class="node">
<title>BRAM_EN</title>
<ellipse fill="#f3e6ff" stroke="#8b008b" stroke-width="2" cx="769.48" cy="-379.53" rx="41.94" ry="21.43"/>
<text text-anchor="middle" x="769.48" y="-382.53" font-family="Arial" font-size="10.00">bram_ena</text>
<text text-anchor="middle" x="769.48" y="-371.53" font-family="Arial" font-size="10.00">使能</text>
</g>
<!-- PROTO&#45;&gt;BRAM_EN -->
<g id="edge24" class="edge">
<title>PROTO&#45;&gt;BRAM_EN</title>
<path fill="none" stroke="#9370db" stroke-width="1.5" d="M265.34,-419.1C284.16,-426.08 306.35,-433.07 327.17,-436.53 471.86,-460.63 644.7,-417.63 724.32,-393.8"/>
<polygon fill="#9370db" stroke="#9370db" stroke-width="1.5" points="725.47,-397.11 734.02,-390.86 723.43,-390.41 725.47,-397.11"/>
</g>
<!-- ADDR&#45;&gt;WRITE -->
<g id="edge17" class="edge">
<title>ADDR&#45;&gt;WRITE</title>
<path fill="none" stroke="#ff8c00" stroke-width="1.5" stroke-dasharray="5,2" d="M433.94,-255.5C461.93,-256.24 501.08,-257.28 532.61,-258.12"/>
<polygon fill="#ff8c00" stroke="#ff8c00" stroke-width="1.5" points="532.89,-261.63 542.98,-258.4 533.08,-254.63 532.89,-261.63"/>
<text text-anchor="middle" x="500.7" y="-260.33" font-family="Arial" font-size="9.00">偏移</text>
</g>
<!-- ADDR&#45;&gt;READ -->
<g id="edge18" class="edge">
<title>ADDR&#45;&gt;READ</title>
<path fill="none" stroke="#ff8c00" stroke-width="1.5" stroke-dasharray="5,2" d="M433.94,-269C463.24,-280.68 504.76,-297.25 536.97,-310.1"/>
<polygon fill="#ff8c00" stroke="#ff8c00" stroke-width="1.5" points="536.06,-313.5 546.65,-313.95 538.65,-307 536.06,-313.5"/>
<text text-anchor="middle" x="500.7" y="-307.33" font-family="Arial" font-size="9.00">偏移</text>
</g>
<!-- BRAM_ADDR -->
<g id="node19" class="node">
<title>BRAM_ADDR</title>
<ellipse fill="#f3e6ff" stroke="#8b008b" stroke-width="2" cx="769.48" cy="-319.53" rx="48.17" ry="21.43"/>
<text text-anchor="middle" x="769.48" y="-322.53" font-family="Arial" font-size="10.00">bram_addra</text>
<text text-anchor="middle" x="769.48" y="-311.53" font-family="Arial" font-size="10.00">地址</text>
</g>
<!-- ADDR&#45;&gt;BRAM_ADDR -->
<g id="edge22" class="edge">
<title>ADDR&#45;&gt;BRAM_ADDR</title>
<path fill="none" stroke="#9370db" stroke-width="2" d="M433.96,-266.78C445.56,-272.21 457.62,-279.65 466.2,-289.53 475.14,-299.83 467.95,-307.69 476.2,-318.53 498.08,-347.28 508.7,-353.83 543.2,-364.53 606.5,-384.17 682.55,-359.35 728.12,-339.52"/>
<polygon fill="#9370db" stroke="#9370db" stroke-width="2" points="729.67,-342.66 737.37,-335.38 726.81,-336.27 729.67,-342.66"/>
<text text-anchor="middle" x="586.7" y="-374.33" font-family="Arial" font-size="9.00">转换后</text>
</g>
<!-- BRAM_DIN -->
<g id="node20" class="node">
<title>BRAM_DIN</title>
<ellipse fill="#f3e6ff" stroke="#8b008b" stroke-width="2" cx="769.48" cy="-259.53" rx="43.68" ry="21.43"/>
<text text-anchor="middle" x="769.48" y="-262.53" font-family="Arial" font-size="10.00">bram_dina</text>
<text text-anchor="middle" x="769.48" y="-251.53" font-family="Arial" font-size="10.00">写数据</text>
</g>
<!-- WRITE&#45;&gt;BRAM_DIN -->
<g id="edge23" class="edge">
<title>WRITE&#45;&gt;BRAM_DIN</title>
<path fill="none" stroke="#9370db" stroke-width="2" d="M630.54,-259.53C656,-259.53 688.5,-259.53 715.56,-259.53"/>
<polygon fill="#9370db" stroke="#9370db" stroke-width="2" points="715.63,-263.03 725.63,-259.53 715.63,-256.03 715.63,-263.03"/>
<text text-anchor="middle" x="671.2" y="-262.33" font-family="Arial" font-size="9.00">对齐后</text>
</g>
<!-- BRAM_WE -->
<g id="node22" class="node">
<title>BRAM_WE</title>
<ellipse fill="#f3e6ff" stroke="#8b008b" stroke-width="2" cx="769.48" cy="-199.53" rx="57.05" ry="21.43"/>
<text text-anchor="middle" x="769.48" y="-202.53" font-family="Arial" font-size="10.00">bram_wea[3:0]</text>
<text text-anchor="middle" x="769.48" y="-191.53" font-family="Arial" font-size="10.00">字节写使能</text>
</g>
<!-- WRITE&#45;&gt;BRAM_WE -->
<g id="edge25" class="edge">
<title>WRITE&#45;&gt;BRAM_WE</title>
<path fill="none" stroke="#9370db" stroke-width="2" d="M630.54,-245.32C656.3,-236.77 689.26,-225.83 716.5,-216.79"/>
<polygon fill="#9370db" stroke="#9370db" stroke-width="2" points="717.87,-220.02 726.26,-213.55 715.66,-213.38 717.87,-220.02"/>
<text text-anchor="middle" x="671.2" y="-240.33" font-family="Arial" font-size="9.00">字节使能</text>
</g>
<!-- HRDATA -->
<g id="node16" class="node">
<title>HRDATA</title>
<ellipse fill="#e6ffe6" stroke="#2e8b57" stroke-width="2" cx="769.48" cy="-468.53" rx="40.11" ry="21.43"/>
<text text-anchor="middle" x="769.48" y="-471.53" font-family="Arial" font-size="10.00">HRDATA</text>
<text text-anchor="middle" x="769.48" y="-460.53" font-family="Arial" font-size="10.00">读数据</text>
</g>
<!-- READ&#45;&gt;HRDATA -->
<g id="edge19" class="edge">
<title>READ&#45;&gt;HRDATA</title>
<path fill="none" stroke="#228b22" stroke-width="2" d="M621.83,-355.69C627.39,-360.2 633.02,-364.92 638.2,-369.53 669.18,-397.13 670.68,-411.1 704.2,-435.53 711.8,-441.07 720.45,-446.19 728.89,-450.67"/>
<polygon fill="#228b22" stroke="#228b22" stroke-width="2" points="727.41,-453.84 737.91,-455.26 730.59,-447.6 727.41,-453.84"/>
<text text-anchor="middle" x="671.2" y="-429.33" font-family="Arial" font-size="9.00">对齐数据</text>
</g>
<!-- HRESP -->
<g id="node17" class="node">
<title>HRESP</title>
<ellipse fill="#e6ffe6" stroke="#2e8b57" stroke-width="2" cx="769.48" cy="-588.53" rx="36.54" ry="21.43"/>
<text text-anchor="middle" x="769.48" y="-591.53" font-family="Arial" font-size="10.00">HRESP</text>
<text text-anchor="middle" x="769.48" y="-580.53" font-family="Arial" font-size="10.00">响应</text>
</g>
<!-- RESP&#45;&gt;HRESP -->
<g id="edge20" class="edge">
<title>RESP&#45;&gt;HRESP</title>
<path fill="none" stroke="#228b22" stroke-width="1.5" d="M431.3,-427.17C445.06,-435.36 461.23,-444.69 476.2,-452.53 565.47,-499.32 673.78,-547.58 730.16,-572.09"/>
<polygon fill="#228b22" stroke="#228b22" stroke-width="1.5" points="728.85,-575.33 739.42,-576.1 731.63,-568.91 728.85,-575.33"/>
</g>
<!-- HREADYOUT -->
<g id="node18" class="node">
<title>HREADYOUT</title>
<ellipse fill="#e6ffe6" stroke="#2e8b57" stroke-width="2" cx="769.48" cy="-528.53" rx="56.64" ry="21.43"/>
<text text-anchor="middle" x="769.48" y="-531.53" font-family="Arial" font-size="10.00">HREADYOUT</text>
<text text-anchor="middle" x="769.48" y="-520.53" font-family="Arial" font-size="10.00">就绪输出</text>
</g>
<!-- RESP&#45;&gt;HREADYOUT -->
<g id="edge21" class="edge">
<title>RESP&#45;&gt;HREADYOUT</title>
<path fill="none" stroke="#228b22" stroke-width="1.5" d="M440.51,-420.05C498.25,-438.35 604.21,-472.22 694.2,-502.53 701.94,-505.14 710.1,-507.94 718.08,-510.71"/>
<polygon fill="#228b22" stroke="#228b22" stroke-width="1.5" points="717.08,-514.07 727.67,-514.06 719.38,-507.46 717.08,-514.07"/>
</g>
</g>
</svg>
