<?xml version="1.0" encoding="UTF-8" standalone="no"?>
<!DOCTYPE svg PUBLIC "-//W3C//DTD SVG 1.1//EN"
 "http://www.w3.org/Graphics/SVG/1.1/DTD/svg11.dtd">
<!-- Generated by graphviz version 2.43.0 (0)
 -->
<!-- Title: ahb_irom_controller Pages: 1 -->
<svg width="1038pt" height="551pt"
 viewBox="0.00 0.00 1038.21 551.00" xmlns="http://www.w3.org/2000/svg" xmlns:xlink="http://www.w3.org/1999/xlink">
<g id="graph0" class="graph" transform="scale(1 1) rotate(0) translate(4 547)">
<title>ahb_irom_controller</title>
<polygon fill="white" stroke="transparent" points="-4,4 -4,-547 1034.21,-547 1034.21,4 -4,4"/>
<text text-anchor="middle" x="515.11" y="-527.8" font-family="Arial Bold" font-size="14.00">IROM Controller Module</text>
<text text-anchor="middle" x="515.11" y="-512.8" font-family="Arial Bold" font-size="14.00">AHB to Instruction ROM Protocol Conversion</text>
<g id="clust1" class="cluster">
<title>cluster_inputs</title>
<polygon fill="#f0f8ff" stroke="#4169e1" stroke-width="2" points="0,-8 0,-497 149.48,-497 149.48,-8 0,-8"/>
<text text-anchor="middle" x="74.74" y="-481.8" font-family="Arial Bold" font-size="14.00">AHB Interface Inputs</text>
</g>
<g id="clust2" class="cluster">
<title>cluster_rom_in</title>
<polygon fill="#fff0f0" stroke="#dc143c" stroke-width="2" points="409.48,-57 409.48,-142 564.07,-142 564.07,-57 409.48,-57"/>
<text text-anchor="middle" x="486.78" y="-126.8" font-family="Arial Bold" font-size="14.00">ROM Data Input</text>
</g>
<g id="clust3" class="cluster">
<title>cluster_module</title>
<path fill="#f0f0ff" stroke="#6a5acd" stroke-width="3" d="M231.48,-150C231.48,-150 759.07,-150 759.07,-150 765.07,-150 771.07,-156 771.07,-162 771.07,-162 771.07,-302 771.07,-302 771.07,-308 765.07,-314 759.07,-314 759.07,-314 231.48,-314 231.48,-314 225.48,-314 219.48,-308 219.48,-302 219.48,-302 219.48,-162 219.48,-162 219.48,-156 225.48,-150 231.48,-150"/>
</g>
<g id="clust4" class="cluster">
<title>cluster_outputs_ahb</title>
<polygon fill="#f0fff0" stroke="#228b22" stroke-width="2" points="869.07,-155 869.07,-356 1030.21,-356 1030.21,-155 869.07,-155"/>
<text text-anchor="middle" x="949.64" y="-340.8" font-family="Arial Bold" font-size="14.00">AHB Interface Outputs</text>
</g>
<g id="clust5" class="cluster">
<title>cluster_outputs_rom</title>
<polygon fill="#fff0ff" stroke="#9370db" stroke-width="2" points="630.49,-322 630.49,-463 795.66,-463 795.66,-322 630.49,-322"/>
<text text-anchor="middle" x="713.07" y="-447.8" font-family="Arial Bold" font-size="14.00">ROM Interface Outputs</text>
</g>
<!-- CLK -->
<g id="node1" class="node">
<title>CLK</title>
<ellipse fill="#e6f3ff" stroke="#4682b4" stroke-width="2" cx="74.74" cy="-328" rx="27" ry="18"/>
<text text-anchor="middle" x="74.74" y="-325.5" font-family="Arial" font-size="10.00">HCLK</text>
</g>
<!-- PROTO -->
<g id="node10" class="node">
<title>PROTO</title>
<path fill="#dda0dd" stroke="#9370db" stroke-width="2" d="M337.48,-246C337.48,-246 240.48,-246 240.48,-246 234.48,-246 228.48,-240 228.48,-234 228.48,-234 228.48,-202 228.48,-202 228.48,-196 234.48,-190 240.48,-190 240.48,-190 337.48,-190 337.48,-190 343.48,-190 349.48,-196 349.48,-202 349.48,-202 349.48,-234 349.48,-234 349.48,-240 343.48,-246 337.48,-246"/>
<text text-anchor="middle" x="288.98" y="-233.2" font-family="Arial" font-size="11.00">AHB Protocol Control</text>
<text text-anchor="middle" x="288.98" y="-221.2" font-family="Arial" font-size="11.00">• State Machine</text>
<text text-anchor="middle" x="288.98" y="-209.2" font-family="Arial" font-size="11.00">• Address Latch</text>
<text text-anchor="middle" x="288.98" y="-197.2" font-family="Arial" font-size="11.00">• Read&#45;Only Control</text>
</g>
<!-- CLK&#45;&gt;PROTO -->
<g id="edge1" class="edge">
<title>CLK&#45;&gt;PROTO</title>
<path fill="none" stroke="#4169e1" stroke-width="1.5" d="M99.45,-320.59C114.14,-315.69 133.24,-308.76 149.48,-301 177.54,-287.59 184.47,-283.49 209.48,-265 214.29,-261.45 214.61,-259.47 219.48,-256 221.56,-254.51 223.71,-253.04 225.9,-251.59"/>
<polygon fill="#4169e1" stroke="#4169e1" stroke-width="1.5" points="227.97,-254.42 234.52,-246.09 224.2,-248.52 227.97,-254.42"/>
<text text-anchor="middle" x="184.48" y="-297.8" font-family="Arial" font-size="9.00">Clock</text>
</g>
<!-- RES -->
<g id="node2" class="node">
<title>RES</title>
<ellipse fill="#e6f3ff" stroke="#4682b4" stroke-width="2" cx="74.74" cy="-274" rx="37.17" ry="18"/>
<text text-anchor="middle" x="74.74" y="-271.5" font-family="Arial" font-size="10.00">HRESETn</text>
</g>
<!-- RES&#45;&gt;PROTO -->
<g id="edge2" class="edge">
<title>RES&#45;&gt;PROTO</title>
<path fill="none" stroke="#ff0000" stroke-width="1.5" d="M107.97,-265.49C137.25,-257.77 181.41,-246.12 218.67,-236.29"/>
<polygon fill="#ff0000" stroke="#ff0000" stroke-width="1.5" points="219.7,-239.64 228.48,-233.7 217.92,-232.87 219.7,-239.64"/>
<text text-anchor="middle" x="184.48" y="-253.8" font-family="Arial" font-size="9.00">Reset</text>
</g>
<!-- HSEL -->
<g id="node3" class="node">
<title>HSEL</title>
<ellipse fill="#e6f3ff" stroke="#4682b4" stroke-width="2" cx="74.74" cy="-217" rx="48.17" ry="21.43"/>
<text text-anchor="middle" x="74.74" y="-220" font-family="Arial" font-size="10.00">HSELx</text>
<text text-anchor="middle" x="74.74" y="-209" font-family="Arial" font-size="10.00">Chip Select</text>
</g>
<!-- HSEL&#45;&gt;PROTO -->
<g id="edge3" class="edge">
<title>HSEL&#45;&gt;PROTO</title>
<path fill="none" stroke="#4169e1" stroke-width="1.5" stroke-dasharray="5,2" d="M122.84,-217.22C150.82,-217.35 186.83,-217.52 218.07,-217.67"/>
<polygon fill="#4169e1" stroke="#4169e1" stroke-width="1.5" points="218.45,-221.17 228.47,-217.72 218.48,-214.17 218.45,-221.17"/>
</g>
<!-- HADDR -->
<g id="node4" class="node">
<title>HADDR</title>
<ellipse fill="#e6f3ff" stroke="#4682b4" stroke-width="2" cx="74.74" cy="-97" rx="37.45" ry="21.43"/>
<text text-anchor="middle" x="74.74" y="-100" font-family="Arial" font-size="10.00">HADDR</text>
<text text-anchor="middle" x="74.74" y="-89" font-family="Arial" font-size="10.00">Address</text>
</g>
<!-- ADDR -->
<g id="node11" class="node">
<title>ADDR</title>
<path fill="#e6e6fa" stroke="#6a5acd" stroke-width="2" d="M526.28,-199.5C526.28,-199.5 447.28,-199.5 447.28,-199.5 441.28,-199.5 435.28,-193.5 435.28,-187.5 435.28,-187.5 435.28,-170.5 435.28,-170.5 435.28,-164.5 441.28,-158.5 447.28,-158.5 447.28,-158.5 526.28,-158.5 526.28,-158.5 532.28,-158.5 538.28,-164.5 538.28,-170.5 538.28,-170.5 538.28,-187.5 538.28,-187.5 538.28,-193.5 532.28,-199.5 526.28,-199.5"/>
<text text-anchor="middle" x="486.78" y="-187.5" font-family="Arial" font-size="10.00">Address Translation</text>
<text text-anchor="middle" x="486.78" y="-176.5" font-family="Arial" font-size="10.00">• Byte Offset</text>
<text text-anchor="middle" x="486.78" y="-165.5" font-family="Arial" font-size="10.00">• Alignment Check</text>
</g>
<!-- HADDR&#45;&gt;ADDR -->
<g id="edge6" class="edge">
<title>HADDR&#45;&gt;ADDR</title>
<path fill="none" stroke="#6a5acd" stroke-width="2" d="M110.35,-103.92C179.99,-117.85 337.85,-149.42 425.06,-166.86"/>
<polygon fill="#6a5acd" stroke="#6a5acd" stroke-width="2" points="424.58,-170.33 435.07,-168.86 425.95,-163.47 424.58,-170.33"/>
<text text-anchor="middle" x="288.98" y="-153.8" font-family="Arial" font-size="9.00">Address</text>
</g>
<!-- HWRITE -->
<g id="node5" class="node">
<title>HWRITE</title>
<ellipse fill="#e6f3ff" stroke="#4682b4" stroke-width="2" cx="74.74" cy="-445" rx="50.82" ry="21.43"/>
<text text-anchor="middle" x="74.74" y="-448" font-family="Arial" font-size="10.00">HWRITE</text>
<text text-anchor="middle" x="74.74" y="-437" font-family="Arial" font-size="10.00">Write Enable</text>
</g>
<!-- WRITE_CHK -->
<g id="node13" class="node">
<title>WRITE_CHK</title>
<path fill="#ffb6c1" stroke="#ff1493" stroke-width="2" d="M338.48,-305.5C338.48,-305.5 239.48,-305.5 239.48,-305.5 233.48,-305.5 227.48,-299.5 227.48,-293.5 227.48,-293.5 227.48,-276.5 227.48,-276.5 227.48,-270.5 233.48,-264.5 239.48,-264.5 239.48,-264.5 338.48,-264.5 338.48,-264.5 344.48,-264.5 350.48,-270.5 350.48,-276.5 350.48,-276.5 350.48,-293.5 350.48,-293.5 350.48,-299.5 344.48,-305.5 338.48,-305.5"/>
<text text-anchor="middle" x="288.98" y="-293.5" font-family="Arial" font-size="10.00">Write Protection Check</text>
<text text-anchor="middle" x="288.98" y="-282.5" font-family="Arial" font-size="10.00">• Write Operation Detect</text>
<text text-anchor="middle" x="288.98" y="-271.5" font-family="Arial" font-size="10.00">• Return Error</text>
</g>
<!-- HWRITE&#45;&gt;WRITE_CHK -->
<g id="edge8" class="edge">
<title>HWRITE&#45;&gt;WRITE_CHK</title>
<path fill="none" stroke="#ff1493" stroke-width="2" d="M113.96,-431.25C125.6,-426.58 138.28,-421.02 149.48,-415 177.93,-399.72 185.28,-395.39 209.48,-374 230.23,-355.66 250.83,-332.05 265.72,-313.75"/>
<polygon fill="#ff1493" stroke="#ff1493" stroke-width="2" points="268.61,-315.74 272.14,-305.75 263.15,-311.36 268.61,-315.74"/>
<text text-anchor="middle" x="184.48" y="-411.8" font-family="Arial" font-size="9.00">Write Detect</text>
</g>
<!-- HSIZE -->
<g id="node6" class="node">
<title>HSIZE</title>
<ellipse fill="#e6f3ff" stroke="#4682b4" stroke-width="2" cx="74.74" cy="-37" rx="53.07" ry="21.43"/>
<text text-anchor="middle" x="74.74" y="-40" font-family="Arial" font-size="10.00">HSIZE</text>
<text text-anchor="middle" x="74.74" y="-29" font-family="Arial" font-size="10.00">Transfer Size</text>
</g>
<!-- HSIZE&#45;&gt;ADDR -->
<g id="edge7" class="edge">
<title>HSIZE&#45;&gt;ADDR</title>
<path fill="none" stroke="#6a5acd" stroke-width="1.5" stroke-dasharray="5,2" d="M119.05,-48.67C173.59,-63.73 269.92,-91.51 350.48,-121 354.62,-122.52 393.7,-139.29 428.8,-154.41"/>
<polygon fill="#6a5acd" stroke="#6a5acd" stroke-width="1.5" points="427.51,-157.67 438.08,-158.41 430.28,-151.24 427.51,-157.67"/>
</g>
<!-- READ -->
<g id="node12" class="node">
<title>READ</title>
<path fill="#b0c4de" stroke="#4682b4" stroke-width="2" d="M751.07,-210C751.07,-210 674.07,-210 674.07,-210 668.07,-210 662.07,-204 662.07,-198 662.07,-198 662.07,-170 662.07,-170 662.07,-164 668.07,-158 674.07,-158 674.07,-158 751.07,-158 751.07,-158 757.07,-158 763.07,-164 763.07,-170 763.07,-170 763.07,-198 763.07,-198 763.07,-204 757.07,-210 751.07,-210"/>
<text text-anchor="middle" x="712.57" y="-198" font-family="Arial" font-size="10.00">Read Control Logic</text>
<text text-anchor="middle" x="712.57" y="-187" font-family="Arial" font-size="10.00">• Data Alignment</text>
<text text-anchor="middle" x="712.57" y="-176" font-family="Arial" font-size="10.00">• Size Extension</text>
<text text-anchor="middle" x="712.57" y="-165" font-family="Arial" font-size="10.00">• Continuous Read</text>
</g>
<!-- HSIZE&#45;&gt;READ -->
<g id="edge9" class="edge">
<title>HSIZE&#45;&gt;READ</title>
<path fill="none" stroke="#4682b4" stroke-width="1.5" stroke-dasharray="5,2" d="M123.33,-28.24C213.23,-13.89 412.6,7.41 564.07,-53 614.52,-73.12 659.06,-118.57 685.66,-150.26"/>
<polygon fill="#4682b4" stroke="#4682b4" stroke-width="1.5" points="682.97,-152.5 692.03,-157.99 688.37,-148.05 682.97,-152.5"/>
</g>
<!-- HTRANS -->
<g id="node7" class="node">
<title>HTRANS</title>
<ellipse fill="#e6f3ff" stroke="#4682b4" stroke-width="2" cx="74.74" cy="-385" rx="53.98" ry="21.43"/>
<text text-anchor="middle" x="74.74" y="-388" font-family="Arial" font-size="10.00">HTRANS</text>
<text text-anchor="middle" x="74.74" y="-377" font-family="Arial" font-size="10.00">Transfer Type</text>
</g>
<!-- HTRANS&#45;&gt;PROTO -->
<g id="edge4" class="edge">
<title>HTRANS&#45;&gt;PROTO</title>
<path fill="none" stroke="#4169e1" stroke-width="1.5" stroke-dasharray="5,2" d="M115.7,-371.01C126.92,-366.48 138.93,-361.05 149.48,-355 178.64,-338.3 191.87,-337.62 209.48,-309 222.04,-288.58 205.45,-275.43 219.48,-256 220.04,-255.23 220.62,-254.47 221.21,-253.73"/>
<polygon fill="#4169e1" stroke="#4169e1" stroke-width="1.5" points="223.94,-255.93 228.28,-246.26 218.86,-251.12 223.94,-255.93"/>
</g>
<!-- HREADY -->
<g id="node8" class="node">
<title>HREADY</title>
<ellipse fill="#e6f3ff" stroke="#4682b4" stroke-width="2" cx="74.74" cy="-157" rx="49.49" ry="21.43"/>
<text text-anchor="middle" x="74.74" y="-160" font-family="Arial" font-size="10.00">HREADY</text>
<text text-anchor="middle" x="74.74" y="-149" font-family="Arial" font-size="10.00">Ready Input</text>
</g>
<!-- HREADY&#45;&gt;PROTO -->
<g id="edge5" class="edge">
<title>HREADY&#45;&gt;PROTO</title>
<path fill="none" stroke="#4169e1" stroke-width="1.5" stroke-dasharray="5,2" d="M116.16,-168.62C145.06,-176.92 184.68,-188.31 218.59,-198.06"/>
<polygon fill="#4169e1" stroke="#4169e1" stroke-width="1.5" points="217.87,-201.49 228.44,-200.89 219.8,-194.76 217.87,-201.49"/>
</g>
<!-- ROM_DOUT -->
<g id="node9" class="node">
<title>ROM_DOUT</title>
<ellipse fill="#ffe6e6" stroke="#dc143c" stroke-width="2" cx="486.78" cy="-88" rx="69.09" ry="22.76"/>
<text text-anchor="middle" x="486.78" y="-91.2" font-family="Arial" font-size="11.00">bram_douta</text>
<text text-anchor="middle" x="486.78" y="-79.2" font-family="Arial" font-size="11.00">ROM Read Data</text>
</g>
<!-- ROM_DOUT&#45;&gt;READ -->
<g id="edge10" class="edge">
<title>ROM_DOUT&#45;&gt;READ</title>
<path fill="none" stroke="#dc143c" stroke-width="2" d="M529.61,-105.94C564.13,-120.75 613.54,-141.95 652.16,-158.52"/>
<polygon fill="#dc143c" stroke="#dc143c" stroke-width="2" points="651.17,-161.9 661.74,-162.62 653.93,-155.46 651.17,-161.9"/>
<text text-anchor="middle" x="596.07" y="-143.8" font-family="Arial" font-size="9.00">ROM Data</text>
</g>
<!-- PROTO&#45;&gt;ADDR -->
<g id="edge11" class="edge">
<title>PROTO&#45;&gt;ADDR</title>
<path fill="none" stroke="#6a5acd" stroke-width="1.5" d="M349.52,-206.14C373.45,-201.37 401,-195.89 425.04,-191.1"/>
<polygon fill="#6a5acd" stroke="#6a5acd" stroke-width="1.5" points="425.98,-194.48 435.11,-189.09 424.61,-187.61 425.98,-194.48"/>
<text text-anchor="middle" x="383.98" y="-203.8" font-family="Arial" font-size="9.00">Control</text>
</g>
<!-- PROTO&#45;&gt;READ -->
<g id="edge12" class="edge">
<title>PROTO&#45;&gt;READ</title>
<path fill="none" stroke="#6a5acd" stroke-width="1.5" stroke-dasharray="5,2" d="M349.65,-216.46C365.82,-216.02 383.32,-215.52 399.48,-215 472.64,-212.66 491.25,-216.47 564.07,-209 593.17,-206.02 625.21,-200.82 651.97,-195.94"/>
<polygon fill="#6a5acd" stroke="#6a5acd" stroke-width="1.5" points="652.76,-199.35 661.96,-194.08 651.48,-192.47 652.76,-199.35"/>
<text text-anchor="middle" x="486.78" y="-216.8" font-family="Arial" font-size="9.00">Control</text>
</g>
<!-- RESP -->
<g id="node14" class="node">
<title>RESP</title>
<path fill="#98fb98" stroke="#228b22" stroke-width="2" d="M530.28,-305.5C530.28,-305.5 443.28,-305.5 443.28,-305.5 437.28,-305.5 431.28,-299.5 431.28,-293.5 431.28,-293.5 431.28,-276.5 431.28,-276.5 431.28,-270.5 437.28,-264.5 443.28,-264.5 443.28,-264.5 530.28,-264.5 530.28,-264.5 536.28,-264.5 542.28,-270.5 542.28,-276.5 542.28,-276.5 542.28,-293.5 542.28,-293.5 542.28,-299.5 536.28,-305.5 530.28,-305.5"/>
<text text-anchor="middle" x="486.78" y="-293.5" font-family="Arial" font-size="10.00">Response Generation</text>
<text text-anchor="middle" x="486.78" y="-282.5" font-family="Arial" font-size="10.00">• HRESP</text>
<text text-anchor="middle" x="486.78" y="-271.5" font-family="Arial" font-size="10.00">• HREADYOUT</text>
</g>
<!-- PROTO&#45;&gt;RESP -->
<g id="edge13" class="edge">
<title>PROTO&#45;&gt;RESP</title>
<path fill="none" stroke="#6a5acd" stroke-width="1.5" d="M349.52,-238.38C372.26,-246.16 398.28,-255.06 421.45,-262.99"/>
<polygon fill="#6a5acd" stroke="#6a5acd" stroke-width="1.5" points="420.59,-266.39 431.19,-266.32 422.86,-259.77 420.59,-266.39"/>
<text text-anchor="middle" x="383.98" y="-255.8" font-family="Arial" font-size="9.00">State</text>
</g>
<!-- ROM_EN -->
<g id="node19" class="node">
<title>ROM_EN</title>
<ellipse fill="#f3e6ff" stroke="#8b008b" stroke-width="2" cx="712.57" cy="-411" rx="41.94" ry="21.43"/>
<text text-anchor="middle" x="712.57" y="-414" font-family="Arial" font-size="10.00">bram_ena</text>
<text text-anchor="middle" x="712.57" y="-403" font-family="Arial" font-size="10.00">Enable</text>
</g>
<!-- PROTO&#45;&gt;ROM_EN -->
<g id="edge20" class="edge">
<title>PROTO&#45;&gt;ROM_EN</title>
<path fill="none" stroke="#9370db" stroke-width="1.5" d="M340.54,-246.16C344.14,-249.22 347.51,-252.5 350.48,-256 363.88,-271.8 353.65,-284.53 368.48,-299 449.43,-378 586.8,-401.27 660.78,-408.13"/>
<polygon fill="#9370db" stroke="#9370db" stroke-width="1.5" points="660.52,-411.62 670.79,-409 661.13,-404.65 660.52,-411.62"/>
</g>
<!-- ADDR&#45;&gt;READ -->
<g id="edge14" class="edge">
<title>ADDR&#45;&gt;READ</title>
<path fill="none" stroke="#6a5acd" stroke-width="1.5" stroke-dasharray="5,2" d="M538.28,-180.13C571.96,-180.88 616.38,-181.87 651.81,-182.66"/>
<polygon fill="#6a5acd" stroke="#6a5acd" stroke-width="1.5" points="651.95,-186.17 662.02,-182.89 652.1,-179.17 651.95,-186.17"/>
<text text-anchor="middle" x="596.07" y="-183.8" font-family="Arial" font-size="9.00">Offset</text>
</g>
<!-- ROM_ADDR -->
<g id="node18" class="node">
<title>ROM_ADDR</title>
<ellipse fill="#f3e6ff" stroke="#8b008b" stroke-width="2" cx="712.57" cy="-351" rx="48.17" ry="21.43"/>
<text text-anchor="middle" x="712.57" y="-354" font-family="Arial" font-size="10.00">bram_addra</text>
<text text-anchor="middle" x="712.57" y="-343" font-family="Arial" font-size="10.00">Address</text>
</g>
<!-- ADDR&#45;&gt;ROM_ADDR -->
<g id="edge19" class="edge">
<title>ADDR&#45;&gt;ROM_ADDR</title>
<path fill="none" stroke="#9370db" stroke-width="2" d="M538.29,-197.17C547.45,-201.81 556.49,-207.4 564.07,-214 605.44,-250.01 588.35,-282.9 630.49,-318 639.52,-325.52 650.5,-331.51 661.42,-336.21"/>
<polygon fill="#9370db" stroke="#9370db" stroke-width="2" points="660.37,-339.56 670.95,-340.01 662.96,-333.05 660.37,-339.56"/>
<text text-anchor="middle" x="596.07" y="-307.8" font-family="Arial" font-size="9.00">Translated</text>
</g>
<!-- HRDATA -->
<g id="node15" class="node">
<title>HRDATA</title>
<ellipse fill="#e6ffe6" stroke="#2e8b57" stroke-width="2" cx="949.64" cy="-184" rx="45.01" ry="21.43"/>
<text text-anchor="middle" x="949.64" y="-187" font-family="Arial" font-size="10.00">HRDATA</text>
<text text-anchor="middle" x="949.64" y="-176" font-family="Arial" font-size="10.00">Read Data</text>
</g>
<!-- READ&#45;&gt;HRDATA -->
<g id="edge16" class="edge">
<title>READ&#45;&gt;HRDATA</title>
<path fill="none" stroke="#228b22" stroke-width="2" d="M763.14,-184C801.55,-184 854.72,-184 894.29,-184"/>
<polygon fill="#228b22" stroke="#228b22" stroke-width="2" points="894.3,-187.5 904.3,-184 894.3,-180.5 894.3,-187.5"/>
<text text-anchor="middle" x="832.07" y="-186.8" font-family="Arial" font-size="9.00">Aligned Data</text>
</g>
<!-- WRITE_CHK&#45;&gt;RESP -->
<g id="edge15" class="edge">
<title>WRITE_CHK&#45;&gt;RESP</title>
<path fill="none" stroke="#ff1493" stroke-width="2" stroke-dasharray="5,2" d="M350.59,-285C372.89,-285 398.23,-285 420.9,-285"/>
<polygon fill="#ff1493" stroke="#ff1493" stroke-width="2" points="421.1,-288.5 431.1,-285 421.1,-281.5 421.1,-288.5"/>
<text text-anchor="middle" x="383.98" y="-287.8" font-family="Arial" font-size="9.00">Error</text>
</g>
<!-- HRESP -->
<g id="node16" class="node">
<title>HRESP</title>
<ellipse fill="#e6ffe6" stroke="#2e8b57" stroke-width="2" cx="949.64" cy="-304" rx="43.27" ry="21.43"/>
<text text-anchor="middle" x="949.64" y="-307" font-family="Arial" font-size="10.00">HRESP</text>
<text text-anchor="middle" x="949.64" y="-296" font-family="Arial" font-size="10.00">Response</text>
</g>
<!-- RESP&#45;&gt;HRESP -->
<g id="edge17" class="edge">
<title>RESP&#45;&gt;HRESP</title>
<path fill="none" stroke="#228b22" stroke-width="1.5" d="M542.45,-287.25C632.02,-290.95 808.79,-298.23 896.6,-301.85"/>
<polygon fill="#228b22" stroke="#228b22" stroke-width="1.5" points="896.47,-305.35 906.61,-302.27 896.76,-298.36 896.47,-305.35"/>
</g>
<!-- HREADYOUT -->
<g id="node17" class="node">
<title>HREADYOUT</title>
<ellipse fill="#e6ffe6" stroke="#2e8b57" stroke-width="2" cx="949.64" cy="-244" rx="56.64" ry="21.43"/>
<text text-anchor="middle" x="949.64" y="-247" font-family="Arial" font-size="10.00">HREADYOUT</text>
<text text-anchor="middle" x="949.64" y="-236" font-family="Arial" font-size="10.00">Ready Output</text>
</g>
<!-- RESP&#45;&gt;HREADYOUT -->
<g id="edge18" class="edge">
<title>RESP&#45;&gt;HREADYOUT</title>
<path fill="none" stroke="#228b22" stroke-width="1.5" d="M542.45,-280.14C627.97,-272.53 793.01,-257.85 884.19,-249.73"/>
<polygon fill="#228b22" stroke="#228b22" stroke-width="1.5" points="884.74,-253.2 894.39,-248.83 884.12,-246.23 884.74,-253.2"/>
</g>
</g>
</svg>
