<?xml version="1.0" encoding="UTF-8" standalone="no"?>
<!DOCTYPE svg PUBLIC "-//W3C//DTD SVG 1.1//EN"
 "http://www.w3.org/Graphics/SVG/1.1/DTD/svg11.dtd">
<!-- Generated by graphviz version 2.43.0 (0)
 -->
<!-- Title: pipeline_architecture Pages: 1 -->
<svg width="999pt" height="856pt"
 viewBox="0.00 0.00 999.00 856.00" xmlns="http://www.w3.org/2000/svg" xmlns:xlink="http://www.w3.org/1999/xlink">
<g id="graph0" class="graph" transform="scale(1 1) rotate(0) translate(4 852)">
<title>pipeline_architecture</title>
<polygon fill="white" stroke="transparent" points="-4,4 -4,-852 995,-852 995,4 -4,4"/>
<g id="clust1" class="cluster">
<title>cluster_pipeline</title>
<path fill="#f0f8ff" stroke="#4169e1" stroke-width="2" d="M20,-8C20,-8 482,-8 482,-8 488,-8 494,-14 494,-20 494,-20 494,-828 494,-828 494,-834 488,-840 482,-840 482,-840 20,-840 20,-840 14,-840 8,-834 8,-828 8,-828 8,-20 8,-20 8,-14 14,-8 20,-8"/>
<text text-anchor="middle" x="251" y="-824.8" font-family="Arial" font-size="14.00">Five&#45;Stage Pipeline Processor</text>
</g>
<g id="clust2" class="cluster">
<title>cluster_control</title>
<polygon fill="#fafafa" stroke="#808080" stroke-dasharray="5,2" points="590,-461 590,-533 824,-533 824,-461 590,-461"/>
<text text-anchor="middle" x="707" y="-468.2" font-family="Arial" font-size="11.00">Control Units</text>
</g>
<g id="clust3" class="cluster">
<title>cluster_memory</title>
<polygon fill="#fafafa" stroke="#808080" stroke-dasharray="5,2" points="707,-270 707,-342 919,-342 919,-270 707,-270"/>
<text text-anchor="middle" x="813" y="-277.2" font-family="Arial" font-size="11.00">Memory Interfaces</text>
</g>
<!-- IF -->
<g id="node1" class="node">
<title>IF</title>
<polygon fill="#e6f3ff" stroke="#4682b4" stroke-width="2" points="240,-766.5 240,-808.5 486,-808.5 486,-766.5 240,-766.5"/>
<text text-anchor="middle" x="363" y="-794.9" font-family="Arial" font-size="12.00">IF Fetch Stage</text>
<polyline fill="none" stroke="#4682b4" stroke-width="2" points="240,-787.5 486,-787.5 "/>
<text text-anchor="middle" x="281" y="-773.9" font-family="Arial" font-size="12.00">PC Register</text>
<polyline fill="none" stroke="#4682b4" stroke-width="2" points="322,-766.5 322,-787.5 "/>
<text text-anchor="middle" x="380.5" y="-773.9" font-family="Arial" font-size="12.00">Instruction Memory</text>
<polyline fill="none" stroke="#4682b4" stroke-width="2" points="439,-766.5 439,-787.5 "/>
<text text-anchor="middle" x="462.5" y="-773.9" font-family="Arial" font-size="12.00">PC+4</text>
</g>
<!-- IFID -->
<g id="node2" class="node">
<title>IFID</title>
<polygon fill="#ffd700" stroke="#ff8c00" stroke-width="2" points="417.5,-729 308.5,-729 308.5,-671 417.5,-671 417.5,-729"/>
<text text-anchor="middle" x="363" y="-703.4" font-family="Arial" font-size="12.00">IF/ID</text>
<text text-anchor="middle" x="363" y="-690.4" font-family="Arial" font-size="12.00">Pipeline Register</text>
</g>
<!-- IF&#45;&gt;IFID -->
<g id="edge1" class="edge">
<title>IF&#45;&gt;IFID</title>
<path fill="none" stroke="#4169e1" stroke-width="2" d="M363,-766.24C363,-758.2 363,-748.68 363,-739.43"/>
<polygon fill="#4169e1" stroke="#4169e1" stroke-width="2" points="366.5,-739.2 363,-729.2 359.5,-739.2 366.5,-739.2"/>
</g>
<!-- IMEM -->
<g id="node13" class="node">
<title>IMEM</title>
<path fill="#e0ffff" stroke="#20b2aa" stroke-width="2" d="M898.5,-334C898.5,-334 821.5,-334 821.5,-334 815.5,-334 809.5,-328 809.5,-322 809.5,-322 809.5,-310 809.5,-310 809.5,-304 815.5,-298 821.5,-298 821.5,-298 898.5,-298 898.5,-298 904.5,-298 910.5,-304 910.5,-310 910.5,-310 910.5,-322 910.5,-322 910.5,-328 904.5,-334 898.5,-334"/>
<text text-anchor="middle" x="860" y="-319" font-family="Arial" font-size="10.00">Instruction Memory</text>
<text text-anchor="middle" x="860" y="-308" font-family="Arial" font-size="10.00">(AHB)</text>
</g>
<!-- IF&#45;&gt;IMEM -->
<g id="edge19" class="edge">
<title>IF&#45;&gt;IMEM</title>
<path fill="none" stroke="#4682b4" stroke-width="1.5" d="M486.24,-776.53C628.76,-763.3 844,-737.31 844,-701 844,-701 844,-701 844,-402.5 844,-382.8 848.15,-360.98 852.23,-344.32"/>
<polygon fill="#4682b4" stroke="#4682b4" stroke-width="1.5" points="855.73,-344.74 854.85,-334.18 848.96,-342.99 855.73,-344.74"/>
<text text-anchor="middle" x="874" y="-556.8" font-family="Arial" font-size="9.00">Fetch Request</text>
</g>
<!-- ID -->
<g id="node3" class="node">
<title>ID</title>
<polygon fill="#e6ffe6" stroke="#2e8b57" stroke-width="2" points="16.5,-582.5 16.5,-624.5 387.5,-624.5 387.5,-582.5 16.5,-582.5"/>
<text text-anchor="middle" x="202" y="-610.9" font-family="Arial" font-size="12.00">ID Decode Stage</text>
<polyline fill="none" stroke="#2e8b57" stroke-width="2" points="16.5,-603.5 387.5,-603.5 "/>
<text text-anchor="middle" x="76.5" y="-589.9" font-family="Arial" font-size="12.00">Instruction Decoder</text>
<polyline fill="none" stroke="#2e8b57" stroke-width="2" points="136.5,-582.5 136.5,-603.5 "/>
<text text-anchor="middle" x="195" y="-589.9" font-family="Arial" font-size="12.00">Register File Read</text>
<polyline fill="none" stroke="#2e8b57" stroke-width="2" points="253.5,-582.5 253.5,-603.5 "/>
<text text-anchor="middle" x="320.5" y="-589.9" font-family="Arial" font-size="12.00">Immediate Generation</text>
</g>
<!-- IFID&#45;&gt;ID -->
<g id="edge2" class="edge">
<title>IFID&#45;&gt;ID</title>
<path fill="none" stroke="#4169e1" stroke-width="2" d="M315.13,-670.9C292.81,-657.8 266.46,-642.33 244.8,-629.62"/>
<polygon fill="#4169e1" stroke="#4169e1" stroke-width="2" points="246.54,-626.59 236.15,-624.54 243,-632.62 246.54,-626.59"/>
</g>
<!-- IDEX -->
<g id="node4" class="node">
<title>IDEX</title>
<polygon fill="#ffd700" stroke="#ff8c00" stroke-width="2" points="283.5,-536 174.5,-536 174.5,-478 283.5,-478 283.5,-536"/>
<text text-anchor="middle" x="229" y="-510.4" font-family="Arial" font-size="12.00">ID/EX</text>
<text text-anchor="middle" x="229" y="-497.4" font-family="Arial" font-size="12.00">Pipeline Register</text>
</g>
<!-- ID&#45;&gt;IDEX -->
<g id="edge3" class="edge">
<title>ID&#45;&gt;IDEX</title>
<path fill="none" stroke="#4169e1" stroke-width="2" d="M207.73,-582.46C210.76,-571.86 214.58,-558.48 218.14,-546"/>
<polygon fill="#4169e1" stroke="#4169e1" stroke-width="2" points="221.54,-546.83 220.93,-536.26 214.81,-544.91 221.54,-546.83"/>
</g>
<!-- RF -->
<g id="node10" class="node">
<title>RF</title>
<path fill="#ffebcd" stroke="#d2691e" stroke-width="2" d="M567.5,-525C567.5,-525 514.5,-525 514.5,-525 508.5,-525 502.5,-519 502.5,-513 502.5,-513 502.5,-501 502.5,-501 502.5,-495 508.5,-489 514.5,-489 514.5,-489 567.5,-489 567.5,-489 573.5,-489 579.5,-495 579.5,-501 579.5,-501 579.5,-513 579.5,-513 579.5,-519 573.5,-525 567.5,-525"/>
<text text-anchor="middle" x="541" y="-510.2" font-family="Arial" font-size="11.00">Register File</text>
<text text-anchor="middle" x="541" y="-498.2" font-family="Arial" font-size="11.00">(32 × 32&#45;bit)</text>
</g>
<!-- ID&#45;&gt;RF -->
<g id="edge9" class="edge">
<title>ID&#45;&gt;RF</title>
<path fill="none" stroke="#2e8b57" stroke-width="1.5" stroke-dasharray="5,2" d="M271.12,-582.41C305.21,-572.96 347.06,-562.03 385,-554 434.75,-543.47 450.54,-554.28 498,-536 502.02,-534.45 506.06,-532.49 509.96,-530.32"/>
<polygon fill="#2e8b57" stroke="#2e8b57" stroke-width="1.5" points="512.01,-533.17 518.76,-525 508.39,-527.18 512.01,-533.17"/>
<text text-anchor="middle" x="411.5" y="-556.8" font-family="Arial" font-size="9.00">Read rs1/rs2</text>
</g>
<!-- HAZ -->
<g id="node12" class="node">
<title>HAZ</title>
<path fill="#ffe4e1" stroke="#ff6347" stroke-width="2" d="M700,-525C700,-525 610,-525 610,-525 604,-525 598,-519 598,-513 598,-513 598,-501 598,-501 598,-495 604,-489 610,-489 610,-489 700,-489 700,-489 706,-489 712,-495 712,-501 712,-501 712,-513 712,-513 712,-519 706,-525 700,-525"/>
<text text-anchor="middle" x="655" y="-504.5" font-family="Arial" font-size="10.00">Hazard Detection Unit</text>
</g>
<!-- ID&#45;&gt;HAZ -->
<g id="edge15" class="edge">
<title>ID&#45;&gt;HAZ</title>
<path fill="none" stroke="#a0a0a0" stroke-dasharray="5,2" d="M382.81,-582.5C445.81,-575.15 504.5,-567.71 519,-564 528,-561.7 570.7,-543.92 605.89,-529.01"/>
<polygon fill="#a0a0a0" stroke="#a0a0a0" points="607.27,-532.22 615.11,-525.09 604.54,-525.78 607.27,-532.22"/>
</g>
<!-- EX -->
<g id="node5" class="node">
<title>EX</title>
<polygon fill="#ffe6e6" stroke="#dc143c" stroke-width="2" points="128,-382.5 128,-424.5 486,-424.5 486,-382.5 128,-382.5"/>
<text text-anchor="middle" x="307" y="-410.9" font-family="Arial" font-size="12.00">EX Execute Stage</text>
<polyline fill="none" stroke="#dc143c" stroke-width="2" points="128,-403.5 486,-403.5 "/>
<text text-anchor="middle" x="176" y="-389.9" font-family="Arial" font-size="12.00">ALU Operation</text>
<polyline fill="none" stroke="#dc143c" stroke-width="2" points="224,-382.5 224,-403.5 "/>
<text text-anchor="middle" x="276.5" y="-389.9" font-family="Arial" font-size="12.00">Branch Decision</text>
<polyline fill="none" stroke="#dc143c" stroke-width="2" points="329,-382.5 329,-403.5 "/>
<text text-anchor="middle" x="407.5" y="-389.9" font-family="Arial" font-size="12.00">Jump Address Calculation</text>
</g>
<!-- IDEX&#45;&gt;EX -->
<g id="edge4" class="edge">
<title>IDEX&#45;&gt;EX</title>
<path fill="none" stroke="#4169e1" stroke-width="2" d="M250.52,-478C261.38,-463.87 274.51,-446.78 285.38,-432.63"/>
<polygon fill="#4169e1" stroke="#4169e1" stroke-width="2" points="288.17,-434.75 291.48,-424.69 282.62,-430.49 288.17,-434.75"/>
</g>
<!-- EX&#45;&gt;IF -->
<g id="edge23" class="edge">
<title>EX&#45;&gt;IF</title>
<path fill="none" stroke="#0000ff" stroke-width="2" d="M308.13,-424.7C311.01,-457.72 321.17,-523.63 357,-564 369.94,-578.58 383.9,-567.56 397,-582 425.04,-612.92 420.24,-629.81 427,-671 431.17,-696.44 437.5,-705.46 427,-729 421.72,-740.84 412.66,-751.26 403,-759.87"/>
<polygon fill="#0000ff" stroke="#0000ff" stroke-width="2" points="400.63,-757.28 395.18,-766.37 405.1,-762.67 400.63,-757.28"/>
<text text-anchor="middle" x="451" y="-606.3" font-family="Arial" font-size="9.00">Branch Jump</text>
<text text-anchor="middle" x="451" y="-596.3" font-family="Arial" font-size="9.00">Target Address</text>
</g>
<!-- EXMEM -->
<g id="node6" class="node">
<title>EXMEM</title>
<polygon fill="#ffd700" stroke="#ff8c00" stroke-width="2" points="400.5,-345 291.5,-345 291.5,-287 400.5,-287 400.5,-345"/>
<text text-anchor="middle" x="346" y="-319.4" font-family="Arial" font-size="12.00">EX/MEM</text>
<text text-anchor="middle" x="346" y="-306.4" font-family="Arial" font-size="12.00">Pipeline Register</text>
</g>
<!-- EX&#45;&gt;EXMEM -->
<g id="edge5" class="edge">
<title>EX&#45;&gt;EXMEM</title>
<path fill="none" stroke="#4169e1" stroke-width="2" d="M316.24,-382.24C320.03,-373.94 324.53,-364.07 328.88,-354.54"/>
<polygon fill="#4169e1" stroke="#4169e1" stroke-width="2" points="332.17,-355.75 333.14,-345.2 325.8,-352.85 332.17,-355.75"/>
</g>
<!-- FWD -->
<g id="node11" class="node">
<title>FWD</title>
<path fill="#ffe4e1" stroke="#ff6347" stroke-width="2" d="M804,-525C804,-525 742,-525 742,-525 736,-525 730,-519 730,-513 730,-513 730,-501 730,-501 730,-495 736,-489 742,-489 742,-489 804,-489 804,-489 810,-489 816,-495 816,-501 816,-501 816,-513 816,-513 816,-519 810,-525 804,-525"/>
<text text-anchor="middle" x="773" y="-504.5" font-family="Arial" font-size="10.00">Forwarding Unit</text>
</g>
<!-- EX&#45;&gt;FWD -->
<g id="edge12" class="edge">
<title>EX&#45;&gt;FWD</title>
<path fill="none" stroke="#a0a0a0" stroke-dasharray="5,2" d="M448.55,-424.52C480.11,-429.81 513.31,-436.02 544,-443 559.36,-446.49 562.48,-450.32 578,-453 609.36,-458.42 691.5,-449.06 721,-461 732.18,-465.53 742.64,-473.49 751.2,-481.48"/>
<polygon fill="#a0a0a0" stroke="#a0a0a0" points="748.94,-484.16 758.5,-488.72 753.87,-479.19 748.94,-484.16"/>
</g>
<!-- EX&#45;&gt;HAZ -->
<g id="edge16" class="edge">
<title>EX&#45;&gt;HAZ</title>
<path fill="none" stroke="#a0a0a0" stroke-dasharray="5,2" d="M409.39,-424.53C488.29,-440.04 584.68,-459.18 589,-461 602.14,-466.53 615.37,-474.87 626.5,-482.88"/>
<polygon fill="#a0a0a0" stroke="#a0a0a0" points="624.45,-485.72 634.56,-488.88 628.63,-480.1 624.45,-485.72"/>
</g>
<!-- MEM -->
<g id="node7" class="node">
<title>MEM</title>
<polygon fill="#f0e6ff" stroke="#9370db" stroke-width="2" points="254.5,-191.5 254.5,-233.5 485.5,-233.5 485.5,-191.5 254.5,-191.5"/>
<text text-anchor="middle" x="370" y="-219.9" font-family="Arial" font-size="12.00">MEM Memory Stage</text>
<polyline fill="none" stroke="#9370db" stroke-width="2" points="254.5,-212.5 485.5,-212.5 "/>
<text text-anchor="middle" x="298.5" y="-198.9" font-family="Arial" font-size="12.00">Data Memory</text>
<polyline fill="none" stroke="#9370db" stroke-width="2" points="342.5,-191.5 342.5,-212.5 "/>
<text text-anchor="middle" x="380" y="-198.9" font-family="Arial" font-size="12.00">Load/Store</text>
<polyline fill="none" stroke="#9370db" stroke-width="2" points="417.5,-191.5 417.5,-212.5 "/>
<text text-anchor="middle" x="451.5" y="-198.9" font-family="Arial" font-size="12.00">Data对齐</text>
</g>
<!-- EXMEM&#45;&gt;MEM -->
<g id="edge6" class="edge">
<title>EXMEM&#45;&gt;MEM</title>
<path fill="none" stroke="#4169e1" stroke-width="2" d="M352.62,-287C355.81,-273.53 359.63,-257.37 362.87,-243.63"/>
<polygon fill="#4169e1" stroke="#4169e1" stroke-width="2" points="366.33,-244.23 365.23,-233.69 359.52,-242.62 366.33,-244.23"/>
</g>
<!-- MEMWB -->
<g id="node8" class="node">
<title>MEMWB</title>
<polygon fill="#ffd700" stroke="#ff8c00" stroke-width="2" points="419.5,-154 310.5,-154 310.5,-96 419.5,-96 419.5,-154"/>
<text text-anchor="middle" x="365" y="-128.4" font-family="Arial" font-size="12.00">MEM/WB</text>
<text text-anchor="middle" x="365" y="-115.4" font-family="Arial" font-size="12.00">Pipeline Register</text>
</g>
<!-- MEM&#45;&gt;MEMWB -->
<g id="edge7" class="edge">
<title>MEM&#45;&gt;MEMWB</title>
<path fill="none" stroke="#4169e1" stroke-width="2" d="M368.82,-191.24C368.35,-183.2 367.79,-173.68 367.25,-164.43"/>
<polygon fill="#4169e1" stroke="#4169e1" stroke-width="2" points="370.73,-163.98 366.65,-154.2 363.74,-164.39 370.73,-163.98"/>
</g>
<!-- MEM&#45;&gt;FWD -->
<g id="edge13" class="edge">
<title>MEM&#45;&gt;FWD</title>
<path fill="none" stroke="#a0a0a0" stroke-dasharray="5,2" d="M485.95,-226.89C508.19,-232.56 530.57,-240.6 550,-252 649.08,-310.12 727.02,-427.86 758.22,-480.07"/>
<polygon fill="#a0a0a0" stroke="#a0a0a0" points="755.24,-481.9 763.33,-488.74 761.27,-478.35 755.24,-481.9"/>
</g>
<!-- DMEM -->
<g id="node14" class="node">
<title>DMEM</title>
<path fill="#e0ffff" stroke="#20b2aa" stroke-width="2" d="M779,-334C779,-334 727,-334 727,-334 721,-334 715,-328 715,-322 715,-322 715,-310 715,-310 715,-304 721,-298 727,-298 727,-298 779,-298 779,-298 785,-298 791,-304 791,-310 791,-310 791,-322 791,-322 791,-328 785,-334 779,-334"/>
<text text-anchor="middle" x="753" y="-319" font-family="Arial" font-size="10.00">Data Memory</text>
<text text-anchor="middle" x="753" y="-308" font-family="Arial" font-size="10.00">(AHB)</text>
</g>
<!-- MEM&#45;&gt;DMEM -->
<g id="edge21" class="edge">
<title>MEM&#45;&gt;DMEM</title>
<path fill="none" stroke="#9370db" stroke-width="1.5" d="M485.89,-218.02C589.81,-223.25 728.72,-233.59 747,-252 756.13,-261.2 758.12,-275.29 757.61,-287.83"/>
<polygon fill="#9370db" stroke="#9370db" stroke-width="1.5" points="754.12,-287.56 756.7,-297.84 761.09,-288.2 754.12,-287.56"/>
<text text-anchor="middle" x="788" y="-254.8" font-family="Arial" font-size="9.00">Memory Request</text>
</g>
<!-- WB -->
<g id="node9" class="node">
<title>WB</title>
<polygon fill="#fff0e6" stroke="#ff8c00" stroke-width="2" points="218,-16.5 218,-58.5 486,-58.5 486,-16.5 218,-16.5"/>
<text text-anchor="middle" x="352" y="-44.9" font-family="Arial" font-size="12.00">WB Writeback Stage</text>
<polyline fill="none" stroke="#ff8c00" stroke-width="2" points="218,-37.5 486,-37.5 "/>
<text text-anchor="middle" x="294" y="-23.9" font-family="Arial" font-size="12.00">Writeback Data Selection</text>
<polyline fill="none" stroke="#ff8c00" stroke-width="2" points="370,-16.5 370,-37.5 "/>
<text text-anchor="middle" x="428" y="-23.9" font-family="Arial" font-size="12.00">Register File Write</text>
</g>
<!-- MEMWB&#45;&gt;WB -->
<g id="edge8" class="edge">
<title>MEMWB&#45;&gt;WB</title>
<path fill="none" stroke="#4169e1" stroke-width="2" d="M360.67,-95.53C359.37,-86.96 357.94,-77.54 356.62,-68.85"/>
<polygon fill="#4169e1" stroke="#4169e1" stroke-width="2" points="360.04,-68.1 355.08,-58.74 353.12,-69.15 360.04,-68.1"/>
</g>
<!-- WB&#45;&gt;RF -->
<g id="edge11" class="edge">
<title>WB&#45;&gt;RF</title>
<path fill="none" stroke="#ff8c00" stroke-width="2" d="M456.43,-58.51C487.78,-71.01 514,-91.24 514,-124 514,-404.5 514,-404.5 514,-404.5 514,-430.55 522.41,-459.14 529.84,-479.31"/>
<polygon fill="#ff8c00" stroke="#ff8c00" stroke-width="2" points="526.62,-480.69 533.48,-488.77 533.15,-478.18 526.62,-480.69"/>
<text text-anchor="middle" x="530" y="-254.8" font-family="Arial" font-size="9.00">Write rd</text>
</g>
<!-- RF&#45;&gt;ID -->
<g id="edge10" class="edge">
<title>RF&#45;&gt;ID</title>
<path fill="none" stroke="#2e8b57" stroke-width="1.5" stroke-dasharray="5,2" d="M515.9,-525.19C510.11,-528.91 503.92,-532.71 498,-536 491.57,-539.57 445.03,-561.83 438,-564 417.01,-570.47 394.61,-575.92 372.28,-580.48"/>
<polygon fill="#2e8b57" stroke="#2e8b57" stroke-width="1.5" points="371.51,-577.06 362.38,-582.45 372.87,-583.93 371.51,-577.06"/>
<text text-anchor="middle" x="488.5" y="-556.8" font-family="Arial" font-size="9.00">Register Data</text>
</g>
<!-- FWD&#45;&gt;EX -->
<g id="edge14" class="edge">
<title>FWD&#45;&gt;EX</title>
<path fill="none" stroke="#ff6347" stroke-width="2" d="M758.48,-488.76C748.95,-478.76 735.58,-466.98 721,-461 695.66,-450.61 624.62,-459.45 598,-453 587.17,-450.38 585.72,-446.04 575,-443 549.73,-435.83 522.72,-429.96 495.93,-425.15"/>
<polygon fill="#ff6347" stroke="#ff6347" stroke-width="2" points="496.53,-421.71 486.08,-423.43 495.33,-428.6 496.53,-421.71"/>
<text text-anchor="middle" x="626" y="-445.8" font-family="Arial" font-size="9.00">Forward Data</text>
</g>
<!-- HAZ&#45;&gt;IF -->
<g id="edge17" class="edge">
<title>HAZ&#45;&gt;IF</title>
<path fill="none" stroke="#ff0000" stroke-width="2" stroke-dasharray="1,5" d="M646.65,-525.04C624.08,-569.21 557.4,-688.14 466,-748 457.74,-753.41 448.6,-758.21 439.29,-762.42"/>
<polygon fill="#ff0000" stroke="#ff0000" stroke-width="2" points="437.75,-759.27 429.95,-766.44 440.52,-765.7 437.75,-759.27"/>
<text text-anchor="middle" x="581.5" y="-645.8" font-family="Arial" font-size="9.00">Stall</text>
</g>
<!-- HAZ&#45;&gt;IFID -->
<g id="edge18" class="edge">
<title>HAZ&#45;&gt;IFID</title>
<path fill="none" stroke="#ff0000" stroke-width="2" stroke-dasharray="1,5" d="M632.22,-525.13C600.8,-548.54 542.11,-591.44 490,-625 468.32,-638.97 443.96,-653.44 422.42,-665.84"/>
<polygon fill="#ff0000" stroke="#ff0000" stroke-width="2" points="420.62,-662.84 413.69,-670.84 424.1,-668.91 420.62,-662.84"/>
<text text-anchor="middle" x="566" y="-601.3" font-family="Arial" font-size="9.00">Bubble</text>
</g>
<!-- IMEM&#45;&gt;IF -->
<g id="edge20" class="edge">
<title>IMEM&#45;&gt;IF</title>
<path fill="none" stroke="#4682b4" stroke-width="1.5" d="M884.95,-334.29C904,-349.72 927,-374.21 927,-402.5 927,-701 927,-701 927,-701 927,-744.35 663.19,-768.4 496.42,-779.27"/>
<polygon fill="#4682b4" stroke="#4682b4" stroke-width="1.5" points="495.83,-775.8 486.08,-779.93 496.28,-782.78 495.83,-775.8"/>
<text text-anchor="middle" x="959" y="-556.8" font-family="Arial" font-size="9.00">Instruction Data</text>
</g>
<!-- DMEM&#45;&gt;MEM -->
<g id="edge22" class="edge">
<title>DMEM&#45;&gt;MEM</title>
<path fill="none" stroke="#9370db" stroke-width="1.5" d="M738.44,-297.95C724.73,-283.14 702.78,-262.47 679,-252 646.64,-237.76 566.66,-228.02 496.18,-221.9"/>
<polygon fill="#9370db" stroke="#9370db" stroke-width="1.5" points="496.12,-218.38 485.86,-221.02 495.53,-225.35 496.12,-218.38"/>
<text text-anchor="middle" x="717.5" y="-254.8" font-family="Arial" font-size="9.00">Read Data</text>
</g>
</g>
</svg>
