<?xml version="1.0" encoding="UTF-8" standalone="no"?>
<!DOCTYPE svg PUBLIC "-//W3C//DTD SVG 1.1//EN"
 "http://www.w3.org/Graphics/SVG/1.1/DTD/svg11.dtd">
<!-- Generated by graphviz version 2.43.0 (0)
 -->
<!-- Title: pipeline_architecture Pages: 1 -->
<svg width="819pt" height="859pt"
 viewBox="0.00 0.00 819.00 858.50" xmlns="http://www.w3.org/2000/svg" xmlns:xlink="http://www.w3.org/1999/xlink">
<g id="graph0" class="graph" transform="scale(1 1) rotate(0) translate(4 854.5)">
<title>pipeline_architecture</title>
<polygon fill="white" stroke="transparent" points="-4,4 -4,-854.5 815,-854.5 815,4 -4,4"/>
<g id="clust1" class="cluster">
<title>cluster_pipeline</title>
<path fill="#f0f8ff" stroke="#4169e1" stroke-width="2" d="M20,-8C20,-8 348,-8 348,-8 354,-8 360,-14 360,-20 360,-20 360,-830.5 360,-830.5 360,-836.5 354,-842.5 348,-842.5 348,-842.5 20,-842.5 20,-842.5 14,-842.5 8,-836.5 8,-830.5 8,-830.5 8,-20 8,-20 8,-14 14,-8 20,-8"/>
<text text-anchor="middle" x="184" y="-827.3" font-family="Arial" font-size="14.00">五级流水线处理器 (Five&#45;Stage Pipeline Processor)</text>
</g>
<g id="clust2" class="cluster">
<title>cluster_control</title>
<polygon fill="#fafafa" stroke="#808080" stroke-dasharray="5,2" points="456,-463.5 456,-535.5 675,-535.5 675,-463.5 456,-463.5"/>
<text text-anchor="middle" x="565.5" y="-470.7" font-family="Arial" font-size="11.00">控制单元 (Control Units)</text>
</g>
<g id="clust3" class="cluster">
<title>cluster_memory</title>
<polygon fill="#fafafa" stroke="#808080" stroke-dasharray="5,2" points="555,-270 555,-347 801,-347 801,-270 555,-270"/>
<text text-anchor="middle" x="678" y="-277.2" font-family="Arial" font-size="11.00">存储器接口 (Memory Interfaces)</text>
</g>
<!-- IF -->
<g id="node1" class="node">
<title>IF</title>
<polygon fill="#e6f3ff" stroke="#4682b4" stroke-width="2" points="150,-769 150,-811 352,-811 352,-769 150,-769"/>
<text text-anchor="middle" x="251" y="-797.4" font-family="Arial" font-size="12.00">IF 取指阶段</text>
<polyline fill="none" stroke="#4682b4" stroke-width="2" points="150,-790 352,-790 "/>
<text text-anchor="middle" x="187.5" y="-776.4" font-family="Arial" font-size="12.00">PC 寄存器</text>
<polyline fill="none" stroke="#4682b4" stroke-width="2" points="225,-769 225,-790 "/>
<text text-anchor="middle" x="265" y="-776.4" font-family="Arial" font-size="12.00">指令存储器</text>
<polyline fill="none" stroke="#4682b4" stroke-width="2" points="305,-769 305,-790 "/>
<text text-anchor="middle" x="328.5" y="-776.4" font-family="Arial" font-size="12.00">PC+4</text>
</g>
<!-- IFID -->
<g id="node2" class="node">
<title>IFID</title>
<polygon fill="#ffd700" stroke="#ff8c00" stroke-width="2" points="297.5,-731.5 204.5,-731.5 204.5,-673.5 297.5,-673.5 297.5,-731.5"/>
<text text-anchor="middle" x="251" y="-705.9" font-family="Arial" font-size="12.00">IF/ID</text>
<text text-anchor="middle" x="251" y="-692.9" font-family="Arial" font-size="12.00">流水线寄存器</text>
</g>
<!-- IF&#45;&gt;IFID -->
<g id="edge1" class="edge">
<title>IF&#45;&gt;IFID</title>
<path fill="none" stroke="#4169e1" stroke-width="2" d="M251,-768.74C251,-760.7 251,-751.18 251,-741.93"/>
<polygon fill="#4169e1" stroke="#4169e1" stroke-width="2" points="254.5,-741.7 251,-731.7 247.5,-741.7 254.5,-741.7"/>
</g>
<!-- IMEM -->
<g id="node13" class="node">
<title>IMEM</title>
<path fill="#e0ffff" stroke="#20b2aa" stroke-width="2" d="M781,-339C781,-339 699,-339 699,-339 693,-339 687,-333 687,-327 687,-327 687,-310 687,-310 687,-304 693,-298 699,-298 699,-298 781,-298 781,-298 787,-298 793,-304 793,-310 793,-310 793,-327 793,-327 793,-333 787,-339 781,-339"/>
<text text-anchor="middle" x="740" y="-327" font-family="Arial" font-size="10.00">指令存储器接口</text>
<text text-anchor="middle" x="740" y="-316" font-family="Arial" font-size="10.00">Instruction Memory</text>
<text text-anchor="middle" x="740" y="-305" font-family="Arial" font-size="10.00">(AHB)</text>
</g>
<!-- IF&#45;&gt;IMEM -->
<g id="edge19" class="edge">
<title>IF&#45;&gt;IMEM</title>
<path fill="none" stroke="#4682b4" stroke-width="1.5" d="M352.26,-789.48C483.57,-787.32 696,-773.07 696,-703.5 696,-703.5 696,-703.5 696,-405 696,-384.15 706.47,-363.3 717.19,-347.41"/>
<polygon fill="#4682b4" stroke="#4682b4" stroke-width="1.5" points="720.15,-349.29 723.11,-339.12 714.45,-345.22 720.15,-349.29"/>
<text text-anchor="middle" x="719" y="-559.3" font-family="Arial" font-size="9.00">取指请求</text>
</g>
<!-- ID -->
<g id="node3" class="node">
<title>ID</title>
<polygon fill="#e6ffe6" stroke="#2e8b57" stroke-width="2" points="16.5,-585 16.5,-627 269.5,-627 269.5,-585 16.5,-585"/>
<text text-anchor="middle" x="143" y="-613.4" font-family="Arial" font-size="12.00">ID 译码阶段</text>
<polyline fill="none" stroke="#2e8b57" stroke-width="2" points="16.5,-606 269.5,-606 "/>
<text text-anchor="middle" x="56.5" y="-592.4" font-family="Arial" font-size="12.00">指令译码器</text>
<polyline fill="none" stroke="#2e8b57" stroke-width="2" points="96.5,-585 96.5,-606 "/>
<text text-anchor="middle" x="143" y="-592.4" font-family="Arial" font-size="12.00">寄存器堆读取</text>
<polyline fill="none" stroke="#2e8b57" stroke-width="2" points="189.5,-585 189.5,-606 "/>
<text text-anchor="middle" x="229.5" y="-592.4" font-family="Arial" font-size="12.00">立即数生成</text>
</g>
<!-- IFID&#45;&gt;ID -->
<g id="edge2" class="edge">
<title>IFID&#45;&gt;ID</title>
<path fill="none" stroke="#4169e1" stroke-width="2" d="M218.89,-673.4C204.51,-660.82 187.65,-646.07 173.47,-633.66"/>
<polygon fill="#4169e1" stroke="#4169e1" stroke-width="2" points="175.74,-630.99 165.91,-627.04 171.13,-636.26 175.74,-630.99"/>
</g>
<!-- IDEX -->
<g id="node4" class="node">
<title>IDEX</title>
<polygon fill="#ffd700" stroke="#ff8c00" stroke-width="2" points="208.5,-538.5 115.5,-538.5 115.5,-480.5 208.5,-480.5 208.5,-538.5"/>
<text text-anchor="middle" x="162" y="-512.9" font-family="Arial" font-size="12.00">ID/EX</text>
<text text-anchor="middle" x="162" y="-499.9" font-family="Arial" font-size="12.00">流水线寄存器</text>
</g>
<!-- ID&#45;&gt;IDEX -->
<g id="edge3" class="edge">
<title>ID&#45;&gt;IDEX</title>
<path fill="none" stroke="#4169e1" stroke-width="2" d="M145.43,-584.62C146.59,-575.92 148.15,-565.67 150,-556.5 150.53,-553.86 151.13,-551.15 151.75,-548.42"/>
<polygon fill="#4169e1" stroke="#4169e1" stroke-width="2" points="155.18,-549.15 154.14,-538.6 148.38,-547.49 155.18,-549.15"/>
</g>
<!-- RF -->
<g id="node10" class="node">
<title>RF</title>
<path fill="#ffebcd" stroke="#d2691e" stroke-width="2" d="M433.5,-531.5C433.5,-531.5 380.5,-531.5 380.5,-531.5 374.5,-531.5 368.5,-525.5 368.5,-519.5 368.5,-519.5 368.5,-499.5 368.5,-499.5 368.5,-493.5 374.5,-487.5 380.5,-487.5 380.5,-487.5 433.5,-487.5 433.5,-487.5 439.5,-487.5 445.5,-493.5 445.5,-499.5 445.5,-499.5 445.5,-519.5 445.5,-519.5 445.5,-525.5 439.5,-531.5 433.5,-531.5"/>
<text text-anchor="middle" x="407" y="-518.7" font-family="Arial" font-size="11.00">寄存器堆</text>
<text text-anchor="middle" x="407" y="-506.7" font-family="Arial" font-size="11.00">Register File</text>
<text text-anchor="middle" x="407" y="-494.7" font-family="Arial" font-size="11.00">(32 × 32&#45;bit)</text>
</g>
<!-- ID&#45;&gt;RF -->
<g id="edge9" class="edge">
<title>ID&#45;&gt;RF</title>
<path fill="none" stroke="#2e8b57" stroke-width="1.5" stroke-dasharray="5,2" d="M176.45,-584.94C194.65,-574.9 217.9,-563.43 240,-556.5 293.14,-539.84 311.89,-558.15 364,-538.5 365.81,-537.82 367.63,-537.05 369.43,-536.21"/>
<polygon fill="#2e8b57" stroke="#2e8b57" stroke-width="1.5" points="371.06,-539.31 378.3,-531.57 367.82,-533.11 371.06,-539.31"/>
<text text-anchor="middle" x="261" y="-559.3" font-family="Arial" font-size="9.00">读 rs1/rs2</text>
</g>
<!-- HAZ -->
<g id="node12" class="node">
<title>HAZ</title>
<path fill="#ffe4e1" stroke="#ff6347" stroke-width="2" d="M544.5,-527.5C544.5,-527.5 475.5,-527.5 475.5,-527.5 469.5,-527.5 463.5,-521.5 463.5,-515.5 463.5,-515.5 463.5,-503.5 463.5,-503.5 463.5,-497.5 469.5,-491.5 475.5,-491.5 475.5,-491.5 544.5,-491.5 544.5,-491.5 550.5,-491.5 556.5,-497.5 556.5,-503.5 556.5,-503.5 556.5,-515.5 556.5,-515.5 556.5,-521.5 550.5,-527.5 544.5,-527.5"/>
<text text-anchor="middle" x="510" y="-512.5" font-family="Arial" font-size="10.00">冒险检测单元</text>
<text text-anchor="middle" x="510" y="-501.5" font-family="Arial" font-size="10.00">Hazard Detection</text>
</g>
<!-- ID&#45;&gt;HAZ -->
<g id="edge15" class="edge">
<title>ID&#45;&gt;HAZ</title>
<path fill="none" stroke="#a0a0a0" stroke-dasharray="5,2" d="M269.6,-586.39C313.49,-579.49 356.95,-572 378,-566.5 413.23,-557.29 421.6,-553.01 455,-538.5 459.49,-536.55 464.14,-534.4 468.73,-532.19"/>
<polygon fill="#a0a0a0" stroke="#a0a0a0" points="470.61,-535.16 478.03,-527.6 467.52,-528.89 470.61,-535.16"/>
</g>
<!-- EX -->
<g id="node5" class="node">
<title>EX</title>
<polygon fill="#ffe6e6" stroke="#dc143c" stroke-width="2" points="122,-385 122,-427 352,-427 352,-385 122,-385"/>
<text text-anchor="middle" x="237" y="-413.4" font-family="Arial" font-size="12.00">EX 执行阶段</text>
<polyline fill="none" stroke="#dc143c" stroke-width="2" points="122,-406 352,-406 "/>
<text text-anchor="middle" x="156.5" y="-392.4" font-family="Arial" font-size="12.00">ALU 运算</text>
<polyline fill="none" stroke="#dc143c" stroke-width="2" points="191,-385 191,-406 "/>
<text text-anchor="middle" x="225" y="-392.4" font-family="Arial" font-size="12.00">分支判断</text>
<polyline fill="none" stroke="#dc143c" stroke-width="2" points="259,-385 259,-406 "/>
<text text-anchor="middle" x="305.5" y="-392.4" font-family="Arial" font-size="12.00">跳转地址计算</text>
</g>
<!-- IDEX&#45;&gt;EX -->
<g id="edge4" class="edge">
<title>IDEX&#45;&gt;EX</title>
<path fill="none" stroke="#4169e1" stroke-width="2" d="M182.69,-480.5C193.03,-466.5 205.52,-449.6 215.92,-435.53"/>
<polygon fill="#4169e1" stroke="#4169e1" stroke-width="2" points="218.95,-437.31 222.08,-427.19 213.32,-433.15 218.95,-437.31"/>
</g>
<!-- EX&#45;&gt;IF -->
<g id="edge23" class="edge">
<title>EX&#45;&gt;IF</title>
<path fill="none" stroke="#0000ff" stroke-width="2" d="M235.01,-427.26C232.2,-453.26 226.35,-499.66 217,-538.5 216.84,-539.16 205.96,-559.95 211,-566.5 230.07,-591.27 256.39,-562.91 279,-584.5 308.99,-613.14 300.7,-632.51 307,-673.5 310.91,-698.98 316.71,-707.62 307,-731.5 302.37,-742.9 294.27,-753.27 285.65,-761.97"/>
<polygon fill="#0000ff" stroke="#0000ff" stroke-width="2" points="283.21,-759.46 278.35,-768.87 288.02,-764.55 283.21,-759.46"/>
<text text-anchor="middle" x="325" y="-608.8" font-family="Arial" font-size="9.00">分支跳转</text>
<text text-anchor="middle" x="325" y="-598.8" font-family="Arial" font-size="9.00">目标地址</text>
</g>
<!-- EXMEM -->
<g id="node6" class="node">
<title>EXMEM</title>
<polygon fill="#ffd700" stroke="#ff8c00" stroke-width="2" points="284.5,-347.5 191.5,-347.5 191.5,-289.5 284.5,-289.5 284.5,-347.5"/>
<text text-anchor="middle" x="238" y="-321.9" font-family="Arial" font-size="12.00">EX/MEM</text>
<text text-anchor="middle" x="238" y="-308.9" font-family="Arial" font-size="12.00">流水线寄存器</text>
</g>
<!-- EX&#45;&gt;EXMEM -->
<g id="edge5" class="edge">
<title>EX&#45;&gt;EXMEM</title>
<path fill="none" stroke="#4169e1" stroke-width="2" d="M237.24,-384.74C237.33,-376.7 237.44,-367.18 237.55,-357.93"/>
<polygon fill="#4169e1" stroke="#4169e1" stroke-width="2" points="241.05,-357.74 237.67,-347.7 234.05,-357.66 241.05,-357.74"/>
</g>
<!-- FWD -->
<g id="node11" class="node">
<title>FWD</title>
<path fill="#ffe4e1" stroke="#ff6347" stroke-width="2" d="M655.5,-527.5C655.5,-527.5 586.5,-527.5 586.5,-527.5 580.5,-527.5 574.5,-521.5 574.5,-515.5 574.5,-515.5 574.5,-503.5 574.5,-503.5 574.5,-497.5 580.5,-491.5 586.5,-491.5 586.5,-491.5 655.5,-491.5 655.5,-491.5 661.5,-491.5 667.5,-497.5 667.5,-503.5 667.5,-503.5 667.5,-515.5 667.5,-515.5 667.5,-521.5 661.5,-527.5 655.5,-527.5"/>
<text text-anchor="middle" x="621" y="-512.5" font-family="Arial" font-size="10.00">数据前递单元</text>
<text text-anchor="middle" x="621" y="-501.5" font-family="Arial" font-size="10.00">Forwarding Unit</text>
</g>
<!-- EX&#45;&gt;FWD -->
<g id="edge12" class="edge">
<title>EX&#45;&gt;FWD</title>
<path fill="none" stroke="#a0a0a0" stroke-dasharray="5,2" d="M340.69,-427.09C365.51,-432.51 391.81,-438.75 416,-445.5 429.13,-449.16 431.64,-452.8 445,-455.5 471.42,-460.83 540.93,-453.61 566,-463.5 577.72,-468.12 588.84,-476.22 597.97,-484.28"/>
<polygon fill="#a0a0a0" stroke="#a0a0a0" points="595.75,-487 605.45,-491.26 600.53,-481.88 595.75,-487"/>
</g>
<!-- EX&#45;&gt;HAZ -->
<g id="edge16" class="edge">
<title>EX&#45;&gt;HAZ</title>
<path fill="none" stroke="#a0a0a0" stroke-dasharray="5,2" d="M310.31,-427.05C343.71,-436.02 383.78,-446.56 420,-455.5 435.49,-459.32 440.67,-456.48 455,-463.5 465.86,-468.82 476.46,-476.66 485.42,-484.31"/>
<polygon fill="#a0a0a0" stroke="#a0a0a0" points="483.35,-487.15 493.14,-491.21 488.01,-481.93 483.35,-487.15"/>
</g>
<!-- MEM -->
<g id="node7" class="node">
<title>MEM</title>
<polygon fill="#f0e6ff" stroke="#9370db" stroke-width="2" points="129.5,-191.5 129.5,-233.5 352.5,-233.5 352.5,-191.5 129.5,-191.5"/>
<text text-anchor="middle" x="241" y="-219.9" font-family="Arial" font-size="12.00">MEM 访存阶段</text>
<polyline fill="none" stroke="#9370db" stroke-width="2" points="129.5,-212.5 352.5,-212.5 "/>
<text text-anchor="middle" x="169.5" y="-198.9" font-family="Arial" font-size="12.00">数据存储器</text>
<polyline fill="none" stroke="#9370db" stroke-width="2" points="209.5,-191.5 209.5,-212.5 "/>
<text text-anchor="middle" x="247" y="-198.9" font-family="Arial" font-size="12.00">Load/Store</text>
<polyline fill="none" stroke="#9370db" stroke-width="2" points="284.5,-191.5 284.5,-212.5 "/>
<text text-anchor="middle" x="318.5" y="-198.9" font-family="Arial" font-size="12.00">数据对齐</text>
</g>
<!-- EXMEM&#45;&gt;MEM -->
<g id="edge6" class="edge">
<title>EXMEM&#45;&gt;MEM</title>
<path fill="none" stroke="#4169e1" stroke-width="2" d="M238.81,-289.36C239.22,-275.36 239.7,-258.42 240.12,-244.1"/>
<polygon fill="#4169e1" stroke="#4169e1" stroke-width="2" points="243.63,-243.85 240.42,-233.75 236.63,-243.65 243.63,-243.85"/>
</g>
<!-- MEMWB -->
<g id="node8" class="node">
<title>MEMWB</title>
<polygon fill="#ffd700" stroke="#ff8c00" stroke-width="2" points="291.5,-154 198.5,-154 198.5,-96 291.5,-96 291.5,-154"/>
<text text-anchor="middle" x="245" y="-128.4" font-family="Arial" font-size="12.00">MEM/WB</text>
<text text-anchor="middle" x="245" y="-115.4" font-family="Arial" font-size="12.00">流水线寄存器</text>
</g>
<!-- MEM&#45;&gt;MEMWB -->
<g id="edge7" class="edge">
<title>MEM&#45;&gt;MEMWB</title>
<path fill="none" stroke="#4169e1" stroke-width="2" d="M241.95,-191.24C242.32,-183.2 242.77,-173.68 243.2,-164.43"/>
<polygon fill="#4169e1" stroke="#4169e1" stroke-width="2" points="246.71,-164.36 243.68,-154.2 239.72,-164.03 246.71,-164.36"/>
</g>
<!-- MEM&#45;&gt;FWD -->
<g id="edge13" class="edge">
<title>MEM&#45;&gt;FWD</title>
<path fill="none" stroke="#a0a0a0" stroke-dasharray="5,2" d="M352.89,-225.41C375.91,-231.16 399.16,-239.6 419,-252 513.13,-310.8 581.45,-429.72 608.36,-482.38"/>
<polygon fill="#a0a0a0" stroke="#a0a0a0" points="605.29,-484.05 612.9,-491.42 611.54,-480.91 605.29,-484.05"/>
</g>
<!-- DMEM -->
<g id="node14" class="node">
<title>DMEM</title>
<path fill="#e0ffff" stroke="#20b2aa" stroke-width="2" d="M657,-339C657,-339 575,-339 575,-339 569,-339 563,-333 563,-327 563,-327 563,-310 563,-310 563,-304 569,-298 575,-298 575,-298 657,-298 657,-298 663,-298 669,-304 669,-310 669,-310 669,-327 669,-327 669,-333 663,-339 657,-339"/>
<text text-anchor="middle" x="616" y="-327" font-family="Arial" font-size="10.00">数据存储器接口</text>
<text text-anchor="middle" x="616" y="-316" font-family="Arial" font-size="10.00">Data Memory</text>
<text text-anchor="middle" x="616" y="-305" font-family="Arial" font-size="10.00">(AHB)</text>
</g>
<!-- MEM&#45;&gt;DMEM -->
<g id="edge21" class="edge">
<title>MEM&#45;&gt;DMEM</title>
<path fill="none" stroke="#9370db" stroke-width="1.5" d="M352.63,-218.57C452.77,-224.2 586.75,-234.83 605,-252 614.51,-260.95 617.76,-274.81 618.43,-287.47"/>
<polygon fill="#9370db" stroke="#9370db" stroke-width="1.5" points="614.93,-287.71 618.46,-297.7 621.93,-287.69 614.93,-287.71"/>
<text text-anchor="middle" x="635" y="-254.8" font-family="Arial" font-size="9.00">访存请求</text>
</g>
<!-- WB -->
<g id="node9" class="node">
<title>WB</title>
<polygon fill="#fff0e6" stroke="#ff8c00" stroke-width="2" points="157,-16.5 157,-58.5 343,-58.5 343,-16.5 157,-16.5"/>
<text text-anchor="middle" x="250" y="-44.9" font-family="Arial" font-size="12.00">WB 写回阶段</text>
<polyline fill="none" stroke="#ff8c00" stroke-width="2" points="157,-37.5 343,-37.5 "/>
<text text-anchor="middle" x="203.5" y="-23.9" font-family="Arial" font-size="12.00">写回数据选择</text>
<polyline fill="none" stroke="#ff8c00" stroke-width="2" points="250,-16.5 250,-37.5 "/>
<text text-anchor="middle" x="296.5" y="-23.9" font-family="Arial" font-size="12.00">寄存器堆写入</text>
</g>
<!-- MEMWB&#45;&gt;WB -->
<g id="edge8" class="edge">
<title>MEMWB&#45;&gt;WB</title>
<path fill="none" stroke="#4169e1" stroke-width="2" d="M246.66,-95.53C247.17,-86.96 247.72,-77.54 248.22,-68.85"/>
<polygon fill="#4169e1" stroke="#4169e1" stroke-width="2" points="251.73,-68.93 248.82,-58.74 244.74,-68.52 251.73,-68.93"/>
</g>
<!-- WB&#45;&gt;RF -->
<g id="edge11" class="edge">
<title>WB&#45;&gt;RF</title>
<path fill="none" stroke="#ff8c00" stroke-width="2" d="M323.92,-58.64C353.64,-71.63 381,-92.22 381,-124 381,-407 381,-407 381,-407 381,-431.28 388.07,-457.82 394.83,-477.68"/>
<polygon fill="#ff8c00" stroke="#ff8c00" stroke-width="2" points="391.54,-478.88 398.2,-487.13 398.14,-476.53 391.54,-478.88"/>
<text text-anchor="middle" x="398" y="-254.8" font-family="Arial" font-size="9.00">写回 rd</text>
</g>
<!-- RF&#45;&gt;ID -->
<g id="edge10" class="edge">
<title>RF&#45;&gt;ID</title>
<path fill="none" stroke="#2e8b57" stroke-width="1.5" stroke-dasharray="5,2" d="M376.54,-531.64C372.41,-534.11 368.16,-536.47 364,-538.5 325.89,-557.06 281.54,-571.63 242.62,-582.35"/>
<polygon fill="#2e8b57" stroke="#2e8b57" stroke-width="1.5" points="241.58,-579 232.84,-584.99 243.41,-585.76 241.58,-579"/>
<text text-anchor="middle" x="345.5" y="-559.3" font-family="Arial" font-size="9.00">寄存器数据</text>
</g>
<!-- FWD&#45;&gt;EX -->
<g id="edge14" class="edge">
<title>FWD&#45;&gt;EX</title>
<path fill="none" stroke="#ff6347" stroke-width="2" d="M605.42,-491.33C595.26,-481.35 581.11,-469.58 566,-463.5 524.22,-446.7 508.69,-466.4 465,-455.5 454.19,-452.8 452.66,-448.77 442,-445.5 416.6,-437.7 388.92,-431.21 362.35,-425.92"/>
<polygon fill="#ff6347" stroke="#ff6347" stroke-width="2" points="362.71,-422.42 352.23,-423.95 361.38,-429.29 362.71,-422.42"/>
<text text-anchor="middle" x="488" y="-448.3" font-family="Arial" font-size="9.00">前递数据</text>
</g>
<!-- HAZ&#45;&gt;IF -->
<g id="edge17" class="edge">
<title>HAZ&#45;&gt;IF</title>
<path fill="none" stroke="#ff0000" stroke-width="2" stroke-dasharray="1,5" d="M501.21,-527.53C488.76,-550.99 464.64,-594.16 439,-627.5 399.91,-678.33 388.35,-690.56 339,-731.5 325.27,-742.89 309.21,-753.96 294.58,-763.3"/>
<polygon fill="#ff0000" stroke="#ff0000" stroke-width="2" points="292.31,-760.59 285.7,-768.87 296.03,-766.52 292.31,-760.59"/>
<text text-anchor="middle" x="435.5" y="-648.3" font-family="Arial" font-size="9.00">停顿</text>
</g>
<!-- HAZ&#45;&gt;IFID -->
<g id="edge18" class="edge">
<title>HAZ&#45;&gt;IFID</title>
<path fill="none" stroke="#ff0000" stroke-width="2" stroke-dasharray="1,5" d="M488,-527.61C458.28,-550.63 403.55,-592.7 356,-627.5 337.91,-640.74 317.83,-655 300.11,-667.43"/>
<polygon fill="#ff0000" stroke="#ff0000" stroke-width="2" points="297.81,-664.77 291.63,-673.37 301.83,-670.5 297.81,-664.77"/>
<text text-anchor="middle" x="423.5" y="-603.8" font-family="Arial" font-size="9.00">气泡</text>
</g>
<!-- IMEM&#45;&gt;IF -->
<g id="edge20" class="edge">
<title>IMEM&#45;&gt;IF</title>
<path fill="none" stroke="#4682b4" stroke-width="1.5" d="M749.17,-339.07C756.3,-356.1 765,-381.65 765,-405 765,-703.5 765,-703.5 765,-703.5 765,-752.61 712.38,-737.59 665,-750.5 564.95,-777.76 446.81,-786.55 362.4,-789.02"/>
<polygon fill="#4682b4" stroke="#4682b4" stroke-width="1.5" points="362.18,-785.52 352.28,-789.29 362.37,-792.52 362.18,-785.52"/>
<text text-anchor="middle" x="788" y="-559.3" font-family="Arial" font-size="9.00">指令数据</text>
</g>
<!-- DMEM&#45;&gt;MEM -->
<g id="edge22" class="edge">
<title>DMEM&#45;&gt;MEM</title>
<path fill="none" stroke="#9370db" stroke-width="1.5" d="M598.32,-297.99C583.31,-282.78 560.39,-262.54 536,-252 505.22,-238.7 429.78,-228.99 362.9,-222.64"/>
<polygon fill="#9370db" stroke="#9370db" stroke-width="1.5" points="362.96,-219.13 352.68,-221.69 362.31,-226.1 362.96,-219.13"/>
<text text-anchor="middle" x="576" y="-254.8" font-family="Arial" font-size="9.00">读取数据</text>
</g>
</g>
</svg>
