<?xml version="1.0" encoding="UTF-8" standalone="no"?>
<!DOCTYPE svg PUBLIC "-//W3C//DTD SVG 1.1//EN"
 "http://www.w3.org/Graphics/SVG/1.1/DTD/svg11.dtd">
<!-- Generated by graphviz version 2.43.0 (0)
 -->
<!-- Title: soc_architecture Pages: 1 -->
<svg width="1253pt" height="921pt"
 viewBox="0.00 0.00 1253.00 921.38" xmlns="http://www.w3.org/2000/svg" xmlns:xlink="http://www.w3.org/1999/xlink">
<g id="graph0" class="graph" transform="scale(1 1) rotate(0) translate(4 917.38)">
<title>soc_architecture</title>
<polygon fill="white" stroke="transparent" points="-4,4 -4,-917.38 1249,-917.38 1249,4 -4,4"/>
<g id="clust1" class="cluster">
<title>cluster_external</title>
<polygon fill="#f5f5f5" stroke="#696969" stroke-dasharray="5,2" points="8,-8 8,-776.38 214,-776.38 214,-8 8,-8"/>
<text text-anchor="middle" x="111" y="-762.77" font-family="Arial" font-size="12.00">External Interfaces</text>
</g>
<g id="clust2" class="cluster">
<title>cluster_soc</title>
<path fill="#ffffff" stroke="#000000" stroke-width="3" d="M234,-88C234,-88 1225,-88 1225,-88 1231,-88 1237,-94 1237,-100 1237,-100 1237,-642.38 1237,-642.38 1237,-648.38 1231,-654.38 1225,-654.38 1225,-654.38 234,-654.38 234,-654.38 228,-654.38 222,-648.38 222,-642.38 222,-642.38 222,-100 222,-100 222,-94 228,-88 234,-88"/>
<text text-anchor="middle" x="729.5" y="-95.6" font-family="Arial Bold" font-size="13.00">SoC Internal</text>
</g>
<g id="clust3" class="cluster">
<title>cluster_cpu</title>
<path fill="#e6f3ff" stroke="#4169e1" stroke-width="2" d="M391,-384.38C391,-384.38 545,-384.38 545,-384.38 551,-384.38 557,-390.38 557,-396.38 557,-396.38 557,-499.38 557,-499.38 557,-505.38 551,-511.38 545,-511.38 545,-511.38 391,-511.38 391,-511.38 385,-511.38 379,-505.38 379,-499.38 379,-499.38 379,-396.38 379,-396.38 379,-390.38 385,-384.38 391,-384.38"/>
<text text-anchor="middle" x="468" y="-497.77" font-family="Arial" font-size="12.00">RISC&#45;V CPU Core</text>
</g>
<g id="clust4" class="cluster">
<title>cluster_ahb</title>
<path fill="#fff8dc" stroke="#ff8c00" stroke-width="2" d="M650,-400.88C650,-400.88 840,-400.88 840,-400.88 846,-400.88 852,-406.88 852,-412.88 852,-412.88 852,-482.88 852,-482.88 852,-488.88 846,-494.88 840,-494.88 840,-494.88 650,-494.88 650,-494.88 644,-494.88 638,-488.88 638,-482.88 638,-482.88 638,-412.88 638,-412.88 638,-406.88 644,-400.88 650,-400.88"/>
<text text-anchor="middle" x="745" y="-481.27" font-family="Arial" font-size="12.00">AHB Bus Interconnect System</text>
</g>
<g id="clust5" class="cluster">
<title>cluster_memory</title>
<path fill="#e0ffff" stroke="#20b2aa" stroke-width="2" d="M872,-234C872,-234 1217,-234 1217,-234 1223,-234 1229,-240 1229,-246 1229,-246 1229,-514.38 1229,-514.38 1229,-520.38 1223,-526.38 1217,-526.38 1217,-526.38 872,-526.38 872,-526.38 866,-526.38 860,-520.38 860,-514.38 860,-514.38 860,-246 860,-246 860,-240 866,-234 872,-234"/>
<text text-anchor="middle" x="1044.5" y="-512.77" font-family="Arial" font-size="12.00">Memory Subsystem</text>
</g>
<g id="clust6" class="cluster">
<title>cluster_ctrl</title>
<path fill="#e0ffff" stroke="#20b2aa" stroke-width="2" d="M903,-398.38C903,-398.38 1155,-398.38 1155,-398.38 1161,-398.38 1167,-404.38 1167,-410.38 1167,-410.38 1167,-485.38 1167,-485.38 1167,-491.38 1161,-497.38 1155,-497.38 1155,-497.38 903,-497.38 903,-497.38 897,-497.38 891,-491.38 891,-485.38 891,-485.38 891,-410.38 891,-410.38 891,-404.38 897,-398.38 903,-398.38"/>
<text text-anchor="middle" x="1029" y="-483.77" font-family="Arial" font-size="12.00">Memory Subsystem</text>
</g>
<g id="clust7" class="cluster">
<title>cluster_mem</title>
<path fill="#e0ffff" stroke="#20b2aa" stroke-width="2" d="M934,-242C934,-242 1122,-242 1122,-242 1128,-242 1134,-248 1134,-254 1134,-254 1134,-344.38 1134,-344.38 1134,-350.38 1128,-356.38 1122,-356.38 1122,-356.38 934,-356.38 934,-356.38 928,-356.38 922,-350.38 922,-344.38 922,-344.38 922,-254 922,-254 922,-248 928,-242 934,-242"/>
<text text-anchor="middle" x="1028" y="-342.77" font-family="Arial" font-size="12.00">Memory Subsystem</text>
</g>
<g id="clust8" class="cluster">
<title>cluster_clk</title>
<path fill="#fffaf0" stroke="#ff6347" stroke-width="2" d="M551,-554.38C551,-554.38 665,-554.38 665,-554.38 671,-554.38 677,-560.38 677,-566.38 677,-566.38 677,-634.38 677,-634.38 677,-640.38 671,-646.38 665,-646.38 665,-646.38 551,-646.38 551,-646.38 545,-646.38 539,-640.38 539,-634.38 539,-634.38 539,-566.38 539,-566.38 539,-560.38 545,-554.38 551,-554.38"/>
<text text-anchor="middle" x="608" y="-633.58" font-family="Arial" font-size="11.00">Clock &amp; Reset System</text>
</g>
<g id="clust9" class="cluster">
<title>cluster_periph</title>
<path fill="#f0fff0" stroke="#228b22" stroke-width="2" d="M242,-140C242,-140 340,-140 340,-140 346,-140 352,-146 352,-152 352,-152 352,-634.38 352,-634.38 352,-640.38 346,-646.38 340,-646.38 340,-646.38 242,-646.38 242,-646.38 236,-646.38 230,-640.38 230,-634.38 230,-634.38 230,-152 230,-152 230,-146 236,-140 242,-140"/>
<text text-anchor="middle" x="291" y="-633.58" font-family="Arial" font-size="11.00">Peripheral Subsystem</text>
</g>
<g id="clust10" class="cluster">
<title>cluster_legend</title>
<polygon fill="white" stroke="#808080" stroke-dasharray="5,2" points="687,-793.38 687,-905.38 867,-905.38 867,-793.38 687,-793.38"/>
<text text-anchor="middle" x="777" y="-800.38" font-family="Arial" font-size="10.00">Legend</text>
</g>
<!-- title -->
<g id="node1" class="node">
<title>title</title>
<text text-anchor="middle" x="165" y="-864.58" font-family="Arial Bold" font-size="16.00">LibreCore SoC System Architecture</text>
</g>
<!-- CLK_IN -->
<g id="node2" class="node">
<title>CLK_IN</title>
<path fill="#fffacd" stroke="#daa520" stroke-width="2" d="M194,-726.38C194,-726.38 136,-726.38 136,-726.38 130,-726.38 124,-720.38 124,-714.38 124,-714.38 124,-702.38 124,-702.38 124,-696.38 130,-690.38 136,-690.38 136,-690.38 194,-690.38 194,-690.38 200,-690.38 206,-696.38 206,-702.38 206,-702.38 206,-714.38 206,-714.38 206,-720.38 200,-726.38 194,-726.38"/>
<text text-anchor="middle" x="165" y="-711.58" font-family="Arial" font-size="11.00">Clock Input</text>
<text text-anchor="middle" x="165" y="-699.58" font-family="Arial" font-size="11.00">CLK 100MHz</text>
</g>
<!-- title&#45;&gt;CLK_IN -->
<!-- RESET_IN -->
<g id="node3" class="node">
<title>RESET_IN</title>
<path fill="#fffacd" stroke="#daa520" stroke-width="2" d="M193,-598.38C193,-598.38 139,-598.38 139,-598.38 133,-598.38 127,-592.38 127,-586.38 127,-586.38 127,-574.38 127,-574.38 127,-568.38 133,-562.38 139,-562.38 139,-562.38 193,-562.38 193,-562.38 199,-562.38 205,-568.38 205,-574.38 205,-574.38 205,-586.38 205,-586.38 205,-592.38 199,-598.38 193,-598.38"/>
<text text-anchor="middle" x="166" y="-583.58" font-family="Arial" font-size="11.00">Reset Signal</text>
<text text-anchor="middle" x="166" y="-571.58" font-family="Arial" font-size="11.00">RESET</text>
</g>
<!-- CLK_IN&#45;&gt;RESET_IN -->
<!-- PLL -->
<g id="node15" class="node">
<title>PLL</title>
<path fill="#ffe4b5" stroke="#ff8c00" stroke-width="2" d="M657,-598.38C657,-598.38 559,-598.38 559,-598.38 553,-598.38 547,-592.38 547,-586.38 547,-586.38 547,-574.38 547,-574.38 547,-568.38 553,-562.38 559,-562.38 559,-562.38 657,-562.38 657,-562.38 663,-562.38 669,-568.38 669,-574.38 669,-574.38 669,-586.38 669,-586.38 669,-592.38 663,-598.38 657,-598.38"/>
<text text-anchor="middle" x="608" y="-583.38" font-family="Arial" font-size="10.00">PLL Clock Management</text>
<text text-anchor="middle" x="608" y="-572.38" font-family="Arial" font-size="10.00">Phase&#45;Locked Loop</text>
</g>
<!-- CLK_IN&#45;&gt;PLL -->
<g id="edge10" class="edge">
<title>CLK_IN&#45;&gt;PLL</title>
<path fill="none" stroke="#ff8c00" stroke-width="2" d="M206.17,-699.33C238.2,-692.81 283.67,-682.99 323,-672.38 402.28,-650.98 492.34,-621.31 549.63,-601.74"/>
<polygon fill="#ff8c00" stroke="#ff8c00" stroke-width="2" points="550.91,-605 559.23,-598.44 548.64,-598.37 550.91,-605"/>
<text text-anchor="middle" x="371.5" y="-665.17" font-family="Arial" font-size="9.00">100MHz</text>
</g>
<!-- UART_IO -->
<g id="node4" class="node">
<title>UART_IO</title>
<path fill="#e6e6fa" stroke="#9370db" stroke-width="2" d="M128.68,-458.88C128.68,-458.88 70.47,-458.88 70.47,-458.88 64.47,-458.88 56.59,-453.18 54.71,-447.48 54.71,-447.48 41.09,-406.27 41.09,-406.27 39.21,-400.57 43.32,-394.88 49.32,-394.88 49.32,-394.88 107.53,-394.88 107.53,-394.88 113.53,-394.88 121.41,-400.57 123.29,-406.27 123.29,-406.27 136.91,-447.48 136.91,-447.48 138.79,-453.18 134.68,-458.88 128.68,-458.88"/>
<text text-anchor="middle" x="89" y="-430.07" font-family="Arial" font-size="11.00">UART</text>
<text text-anchor="middle" x="89" y="-418.07" font-family="Arial" font-size="11.00">RX/TX</text>
</g>
<!-- RESET_IN&#45;&gt;UART_IO -->
<!-- RESET_IN&#45;&gt;PLL -->
<g id="edge11" class="edge">
<title>RESET_IN&#45;&gt;PLL</title>
<path fill="none" stroke="#ff0000" stroke-width="2" d="M175.55,-598.65C185.55,-615.62 203.02,-639.81 226,-650.38 341.78,-703.63 494.83,-640.08 567,-603.18"/>
<polygon fill="#ff0000" stroke="#ff0000" stroke-width="2" points="568.97,-606.11 576.23,-598.39 565.74,-599.9 568.97,-606.11"/>
<text text-anchor="middle" x="306" y="-665.17" font-family="Arial" font-size="9.00">Reset</text>
</g>
<!-- BUTTONS -->
<g id="node5" class="node">
<title>BUTTONS</title>
<path fill="#e6e6fa" stroke="#9370db" stroke-width="2" d="M188.51,-310.19C188.51,-310.19 89.21,-310.19 89.21,-310.19 83.21,-310.19 74.54,-304.81 71.88,-299.44 71.88,-299.44 50.82,-256.94 50.82,-256.94 48.15,-251.56 51.49,-246.19 57.49,-246.19 57.49,-246.19 156.79,-246.19 156.79,-246.19 162.79,-246.19 171.46,-251.56 174.12,-256.94 174.12,-256.94 195.18,-299.44 195.18,-299.44 197.85,-304.81 194.51,-310.19 188.51,-310.19"/>
<text text-anchor="middle" x="123" y="-281.39" font-family="Arial" font-size="11.00">Button Input</text>
<text text-anchor="middle" x="123" y="-269.39" font-family="Arial" font-size="11.00">Buttons (5x)</text>
</g>
<!-- UART_IO&#45;&gt;BUTTONS -->
<!-- LEDS -->
<g id="node6" class="node">
<title>LEDS</title>
<path fill="#e6e6fa" stroke="#9370db" stroke-width="2" d="M187.94,-198C187.94,-198 89.55,-198 89.55,-198 83.55,-198 74.9,-192.62 72.25,-187.23 72.25,-187.23 51.36,-144.77 51.36,-144.77 48.71,-139.38 52.06,-134 58.06,-134 58.06,-134 156.45,-134 156.45,-134 162.45,-134 171.1,-139.38 173.75,-144.77 173.75,-144.77 194.64,-187.23 194.64,-187.23 197.29,-192.62 193.94,-198 187.94,-198"/>
<text text-anchor="middle" x="123" y="-169.2" font-family="Arial" font-size="11.00">LED Output</text>
<text text-anchor="middle" x="123" y="-157.2" font-family="Arial" font-size="11.00">LEDs (16x)</text>
</g>
<!-- BUTTONS&#45;&gt;LEDS -->
<!-- KEY -->
<g id="node16" class="node">
<title>KEY</title>
<path fill="#90ee90" stroke="#228b22" stroke-width="2" d="M310.5,-598.38C310.5,-598.38 253.5,-598.38 253.5,-598.38 247.5,-598.38 241.5,-592.38 241.5,-586.38 241.5,-586.38 241.5,-574.38 241.5,-574.38 241.5,-568.38 247.5,-562.38 253.5,-562.38 253.5,-562.38 310.5,-562.38 310.5,-562.38 316.5,-562.38 322.5,-568.38 322.5,-574.38 322.5,-574.38 322.5,-586.38 322.5,-586.38 322.5,-592.38 316.5,-598.38 310.5,-598.38"/>
<text text-anchor="middle" x="282" y="-577.88" font-family="Arial" font-size="10.00">Key Debounce</text>
</g>
<!-- BUTTONS&#45;&gt;KEY -->
<g id="edge29" class="edge">
<title>BUTTONS&#45;&gt;KEY</title>
<path fill="none" stroke="#228b22" stroke-width="1.5" d="M131.04,-310.48C136.41,-331.4 143.63,-359.54 150,-384.38 168.24,-455.48 141.86,-489.84 191,-544.38 199.57,-553.88 206.04,-549.82 218,-554.38 222.5,-556.09 227.17,-557.88 231.85,-559.69"/>
<polygon fill="#228b22" stroke="#228b22" stroke-width="1.5" points="230.83,-563.04 241.41,-563.4 233.36,-556.52 230.83,-563.04"/>
<text text-anchor="middle" x="186.5" y="-424.68" font-family="Arial" font-size="9.00">Input</text>
</g>
<!-- DISPLAY -->
<g id="node7" class="node">
<title>DISPLAY</title>
<path fill="#e6e6fa" stroke="#9370db" stroke-width="2" d="M194.44,-52C194.44,-52 66.61,-52 66.61,-52 60.61,-52 50.2,-47.93 45.79,-43.87 45.79,-43.87 24.38,-24.13 24.38,-24.13 19.97,-20.07 21.56,-16 27.56,-16 27.56,-16 155.39,-16 155.39,-16 161.39,-16 171.8,-20.07 176.21,-24.13 176.21,-24.13 197.62,-43.87 197.62,-43.87 202.03,-47.93 200.44,-52 194.44,-52"/>
<text text-anchor="middle" x="111" y="-31.2" font-family="Arial" font-size="11.00">7&#45;Segment Display</text>
</g>
<!-- LEDS&#45;&gt;DISPLAY -->
<!-- CPU -->
<g id="node8" class="node">
<title>CPU</title>
<path fill="#b0d4ff" stroke="#4169e1" stroke-width="2" d="M537,-461.38C537,-461.38 399,-461.38 399,-461.38 393,-461.38 387,-455.38 387,-449.38 387,-449.38 387,-404.38 387,-404.38 387,-398.38 393,-392.38 399,-392.38 399,-392.38 537,-392.38 537,-392.38 543,-392.38 549,-398.38 549,-404.38 549,-404.38 549,-449.38 549,-449.38 549,-455.38 543,-461.38 537,-461.38"/>
<text text-anchor="middle" x="468" y="-448.57" font-family="Arial" font-size="11.00">myCPU</text>
<text text-anchor="middle" x="468" y="-436.57" font-family="Arial" font-size="11.00">Five&#45;Stage Pipeline Processor</text>
<text text-anchor="middle" x="468" y="-424.57" font-family="Arial" font-size="11.00">RV32I Instruction Set</text>
<text text-anchor="middle" x="468" y="-399.57" font-family="Arial" font-size="11.00">AHB&#45;I / AHB&#45;D</text>
</g>
<!-- DECODER -->
<g id="node9" class="node">
<title>DECODER</title>
<path fill="#ffd700" stroke="#ff8c00" stroke-width="2" d="M726,-444.88C726,-444.88 658,-444.88 658,-444.88 652,-444.88 646,-438.88 646,-432.88 646,-432.88 646,-420.88 646,-420.88 646,-414.88 652,-408.88 658,-408.88 658,-408.88 726,-408.88 726,-408.88 732,-408.88 738,-414.88 738,-420.88 738,-420.88 738,-432.88 738,-432.88 738,-438.88 732,-444.88 726,-444.88"/>
<text text-anchor="middle" x="692" y="-429.88" font-family="Arial" font-size="10.00">Address Decoder</text>
<text text-anchor="middle" x="692" y="-418.88" font-family="Arial" font-size="10.00">AHB Decoder</text>
</g>
<!-- CPU&#45;&gt;DECODER -->
<g id="edge17" class="edge">
<title>CPU&#45;&gt;DECODER</title>
<path fill="none" stroke="#4169e1" stroke-width="2" d="M549.19,-426.88C577.92,-426.88 609.6,-426.88 635.8,-426.88"/>
<polygon fill="#4169e1" stroke="#4169e1" stroke-width="2" points="635.92,-430.38 645.92,-426.88 635.92,-423.38 635.92,-430.38"/>
<text text-anchor="middle" x="597.5" y="-442.68" font-family="Arial" font-size="9.00">Instruction Address</text>
<text text-anchor="middle" x="597.5" y="-432.68" font-family="Arial" font-size="9.00">HADDR_I</text>
</g>
<!-- CPU&#45;&gt;DECODER -->
<g id="edge18" class="edge">
<title>CPU&#45;&gt;DECODER</title>
<path fill="none" stroke="#9370db" stroke-width="2" d="M549.04,-405.33C573.63,-401.41 600.7,-399.71 625.5,-403.88 628.98,-404.46 632.52,-405.2 636.06,-406.07"/>
<polygon fill="#9370db" stroke="#9370db" stroke-width="2" points="635.44,-409.53 646.01,-408.77 637.28,-402.77 635.44,-409.53"/>
<text text-anchor="middle" x="597.5" y="-416.68" font-family="Arial" font-size="9.00">Data Address</text>
<text text-anchor="middle" x="597.5" y="-406.68" font-family="Arial" font-size="9.00">HADDR_D</text>
</g>
<!-- UART -->
<g id="node17" class="node">
<title>UART</title>
<path fill="#90ee90" stroke="#228b22" stroke-width="2" d="M314.5,-444.88C314.5,-444.88 249.5,-444.88 249.5,-444.88 243.5,-444.88 237.5,-438.88 237.5,-432.88 237.5,-432.88 237.5,-420.88 237.5,-420.88 237.5,-414.88 243.5,-408.88 249.5,-408.88 249.5,-408.88 314.5,-408.88 314.5,-408.88 320.5,-408.88 326.5,-414.88 326.5,-420.88 326.5,-420.88 326.5,-432.88 326.5,-432.88 326.5,-438.88 320.5,-444.88 314.5,-444.88"/>
<text text-anchor="middle" x="282" y="-429.88" font-family="Arial" font-size="10.00">UART Controller</text>
<text text-anchor="middle" x="282" y="-418.88" font-family="Arial" font-size="10.00">Serial Interface</text>
</g>
<!-- CPU&#45;&gt;UART -->
<g id="edge33" class="edge">
<title>CPU&#45;&gt;UART</title>
<path fill="none" stroke="#228b22" stroke-dasharray="1,5" d="M386.7,-426.88C369.75,-426.88 352.29,-426.88 336.59,-426.88"/>
<polygon fill="#228b22" stroke="#228b22" points="336.55,-423.38 326.55,-426.88 336.55,-430.38 336.55,-423.38"/>
<text text-anchor="middle" x="356.75" y="-432.68" font-family="Arial" font-size="9.00">串口Data</text>
</g>
<!-- LED -->
<g id="node18" class="node">
<title>LED</title>
<path fill="#90ee90" stroke="#228b22" stroke-width="2" d="M303.5,-296.19C303.5,-296.19 262.5,-296.19 262.5,-296.19 256.5,-296.19 250.5,-290.19 250.5,-284.19 250.5,-284.19 250.5,-272.19 250.5,-272.19 250.5,-266.19 256.5,-260.19 262.5,-260.19 262.5,-260.19 303.5,-260.19 303.5,-260.19 309.5,-260.19 315.5,-266.19 315.5,-272.19 315.5,-272.19 315.5,-284.19 315.5,-284.19 315.5,-290.19 309.5,-296.19 303.5,-296.19"/>
<text text-anchor="middle" x="283" y="-275.69" font-family="Arial" font-size="10.00">LED Driver</text>
</g>
<!-- CPU&#45;&gt;LED -->
<g id="edge32" class="edge">
<title>CPU&#45;&gt;LED</title>
<path fill="none" stroke="#228b22" stroke-dasharray="1,5" d="M414.11,-392.34C405.55,-386.56 396.92,-380.46 389,-374.38 359.64,-351.84 328.39,-323.13 307.49,-303.16"/>
<polygon fill="#228b22" stroke="#228b22" points="309.91,-300.64 300.28,-296.23 305.06,-305.68 309.91,-300.64"/>
<text text-anchor="middle" x="412" y="-367.18" font-family="Arial" font-size="9.00">LED Status</text>
</g>
<!-- SEG7 -->
<g id="node19" class="node">
<title>SEG7</title>
<path fill="#90ee90" stroke="#228b22" stroke-width="2" d="M318.5,-184C318.5,-184 249.5,-184 249.5,-184 243.5,-184 237.5,-178 237.5,-172 237.5,-172 237.5,-160 237.5,-160 237.5,-154 243.5,-148 249.5,-148 249.5,-148 318.5,-148 318.5,-148 324.5,-148 330.5,-154 330.5,-160 330.5,-160 330.5,-172 330.5,-172 330.5,-178 324.5,-184 318.5,-184"/>
<text text-anchor="middle" x="284" y="-163.5" font-family="Arial" font-size="10.00">7&#45;Segment Driver</text>
</g>
<!-- CPU&#45;&gt;SEG7 -->
<g id="edge31" class="edge">
<title>CPU&#45;&gt;SEG7</title>
<path fill="none" stroke="#228b22" stroke-dasharray="1,5" d="M451.14,-392.12C446.22,-382.95 440.65,-373.13 435,-364.38 392.94,-299.15 335.43,-228.13 304.95,-191.67"/>
<polygon fill="#228b22" stroke="#228b22" points="307.63,-189.41 298.52,-184 302.26,-193.91 307.63,-189.41"/>
<text text-anchor="middle" x="449.5" y="-275.99" font-family="Arial" font-size="9.00">显示Data</text>
</g>
<!-- IROM_CTRL -->
<g id="node11" class="node">
<title>IROM_CTRL</title>
<path fill="#afeeee" stroke="#20b2aa" stroke-width="2" d="M1147,-447.38C1147,-447.38 1037,-447.38 1037,-447.38 1031,-447.38 1025,-441.38 1025,-435.38 1025,-435.38 1025,-418.38 1025,-418.38 1025,-412.38 1031,-406.38 1037,-406.38 1037,-406.38 1147,-406.38 1147,-406.38 1153,-406.38 1159,-412.38 1159,-418.38 1159,-418.38 1159,-435.38 1159,-435.38 1159,-441.38 1153,-447.38 1147,-447.38"/>
<text text-anchor="middle" x="1092" y="-435.38" font-family="Arial" font-size="10.00">Instruction ROM Controller</text>
<text text-anchor="middle" x="1092" y="-424.38" font-family="Arial" font-size="10.00">IROM Controller</text>
<text text-anchor="middle" x="1092" y="-413.38" font-family="Arial" font-size="10.00">(AHB → ROM)</text>
</g>
<!-- DECODER&#45;&gt;IROM_CTRL -->
<g id="edge19" class="edge">
<title>DECODER&#45;&gt;IROM_CTRL</title>
<path fill="none" stroke="#20b2aa" stroke-width="2" d="M697.16,-444.89C704.38,-466.33 719.78,-501.15 747,-516.38 799.17,-545.55 961.75,-541.48 1016,-516.38 1042.71,-504.02 1063.46,-477.13 1076.49,-456.04"/>
<polygon fill="#20b2aa" stroke="#20b2aa" stroke-width="2" points="1079.51,-457.8 1081.59,-447.41 1073.49,-454.23 1079.51,-457.8"/>
<text text-anchor="middle" x="856" y="-537.17" font-family="Arial" font-size="9.00">HSEL_IROM</text>
</g>
<!-- BRAM_CTRL -->
<g id="node12" class="node">
<title>BRAM_CTRL</title>
<path fill="#afeeee" stroke="#20b2aa" stroke-width="2" d="M995,-447.38C995,-447.38 911,-447.38 911,-447.38 905,-447.38 899,-441.38 899,-435.38 899,-435.38 899,-418.38 899,-418.38 899,-412.38 905,-406.38 911,-406.38 911,-406.38 995,-406.38 995,-406.38 1001,-406.38 1007,-412.38 1007,-418.38 1007,-418.38 1007,-435.38 1007,-435.38 1007,-441.38 1001,-447.38 995,-447.38"/>
<text text-anchor="middle" x="953" y="-435.38" font-family="Arial" font-size="10.00">Data RAM Controller</text>
<text text-anchor="middle" x="953" y="-424.38" font-family="Arial" font-size="10.00">BRAM Controller</text>
<text text-anchor="middle" x="953" y="-413.38" font-family="Arial" font-size="10.00">(AHB → RAM)</text>
</g>
<!-- DECODER&#45;&gt;BRAM_CTRL -->
<g id="edge20" class="edge">
<title>DECODER&#45;&gt;BRAM_CTRL</title>
<path fill="none" stroke="#20b2aa" stroke-width="2" d="M697.16,-444.89C704.38,-466.33 719.78,-501.15 747,-516.38 789.28,-540.02 810.88,-534.01 856,-516.38 887.22,-504.17 914.44,-476.68 932.03,-455.37"/>
<polygon fill="#20b2aa" stroke="#20b2aa" stroke-width="2" points="934.78,-457.54 938.29,-447.54 929.31,-453.17 934.78,-457.54"/>
<text text-anchor="middle" x="792" y="-537.17" font-family="Arial" font-size="9.00">HSEL_BRAM</text>
</g>
<!-- MUX -->
<g id="node10" class="node">
<title>MUX</title>
<path fill="#ffd700" stroke="#ff8c00" stroke-width="2" d="M832,-444.88C832,-444.88 768,-444.88 768,-444.88 762,-444.88 756,-438.88 756,-432.88 756,-432.88 756,-420.88 756,-420.88 756,-414.88 762,-408.88 768,-408.88 768,-408.88 832,-408.88 832,-408.88 838,-408.88 844,-414.88 844,-420.88 844,-420.88 844,-432.88 844,-432.88 844,-438.88 838,-444.88 832,-444.88"/>
<text text-anchor="middle" x="800" y="-429.88" font-family="Arial" font-size="10.00">Data Multiplexer</text>
<text text-anchor="middle" x="800" y="-418.88" font-family="Arial" font-size="10.00">AHB Multiplexer</text>
</g>
<!-- MUX&#45;&gt;CPU -->
<g id="edge27" class="edge">
<title>MUX&#45;&gt;CPU</title>
<path fill="none" stroke="#4169e1" stroke-width="2" stroke-dasharray="5,2" d="M795.1,-445.24C788.29,-466.69 773.67,-501.17 747,-516.38 703.37,-541.25 682.7,-528.67 634,-516.38 595.43,-506.64 556.07,-485.98 525.37,-466.97"/>
<polygon fill="#4169e1" stroke="#4169e1" stroke-width="2" points="526.87,-463.77 516.54,-461.39 523.13,-469.69 526.87,-463.77"/>
<text text-anchor="middle" x="604" y="-537.17" font-family="Arial" font-size="9.00">Instruction</text>
</g>
<!-- MUX&#45;&gt;CPU -->
<g id="edge28" class="edge">
<title>MUX&#45;&gt;CPU</title>
<path fill="none" stroke="#9370db" stroke-width="2" stroke-dasharray="5,2" d="M795.1,-445.24C788.29,-466.69 773.67,-501.17 747,-516.38 703.37,-541.25 682.7,-528.67 634,-516.38 595.43,-506.64 556.07,-485.98 525.37,-466.97"/>
<polygon fill="#9370db" stroke="#9370db" stroke-width="2" points="526.87,-463.77 516.54,-461.39 523.13,-469.69 526.87,-463.77"/>
<text text-anchor="middle" x="604" y="-537.17" font-family="Arial" font-size="9.00">Data</text>
</g>
<!-- IROM_CTRL&#45;&gt;MUX -->
<g id="edge25" class="edge">
<title>IROM_CTRL&#45;&gt;MUX</title>
<path fill="none" stroke="#20b2aa" stroke-width="1.5" stroke-dasharray="5,2" d="M1081.59,-447.41C1069.27,-469.15 1046.52,-502.25 1016,-516.38 963.97,-540.45 939.81,-538.69 887,-516.38 857,-503.7 832.24,-475.06 816.91,-453.57"/>
<polygon fill="#20b2aa" stroke="#20b2aa" stroke-width="1.5" points="819.67,-451.41 811.12,-445.15 813.9,-455.38 819.67,-451.41"/>
<text text-anchor="middle" x="908" y="-537.17" font-family="Arial" font-size="9.00">HRDATA</text>
</g>
<!-- IROM -->
<g id="node13" class="node">
<title>IROM</title>
<path fill="#f0ffff" stroke="#48d1cc" stroke-width="2" d="M1125.5,-301.4C1125.5,-304.25 1102.87,-306.56 1075,-306.56 1047.13,-306.56 1024.5,-304.25 1024.5,-301.4 1024.5,-301.4 1024.5,-254.97 1024.5,-254.97 1024.5,-252.12 1047.13,-249.81 1075,-249.81 1102.87,-249.81 1125.5,-252.12 1125.5,-254.97 1125.5,-254.97 1125.5,-301.4 1125.5,-301.4"/>
<path fill="none" stroke="#48d1cc" stroke-width="2" d="M1125.5,-301.4C1125.5,-298.56 1102.87,-296.25 1075,-296.25 1047.13,-296.25 1024.5,-298.56 1024.5,-301.4"/>
<text text-anchor="middle" x="1075" y="-286.69" font-family="Arial" font-size="10.00">Instruction Memory</text>
<text text-anchor="middle" x="1075" y="-275.69" font-family="Arial" font-size="10.00">Instruction ROM</text>
<text text-anchor="middle" x="1075" y="-264.69" font-family="Arial" font-size="10.00">64 KB</text>
</g>
<!-- IROM_CTRL&#45;&gt;IROM -->
<g id="edge21" class="edge">
<title>IROM_CTRL&#45;&gt;IROM</title>
<path fill="none" stroke="#48d1cc" stroke-width="1.5" d="M1116.08,-406.28C1127.05,-394.87 1136.66,-379.73 1132,-364.38 1126.6,-346.58 1116.11,-329.12 1105.59,-314.69"/>
<polygon fill="#48d1cc" stroke="#48d1cc" stroke-width="1.5" points="1108.25,-312.41 1099.42,-306.56 1102.67,-316.64 1108.25,-312.41"/>
<text text-anchor="middle" x="1166.5" y="-367.18" font-family="Arial" font-size="9.00">Address/Control</text>
</g>
<!-- BRAM_CTRL&#45;&gt;MUX -->
<g id="edge26" class="edge">
<title>BRAM_CTRL&#45;&gt;MUX</title>
<path fill="none" stroke="#20b2aa" stroke-width="1.5" stroke-dasharray="5,2" d="M898.8,-426.88C884.42,-426.88 868.89,-426.88 854.5,-426.88"/>
<polygon fill="#20b2aa" stroke="#20b2aa" stroke-width="1.5" points="854.25,-423.38 844.25,-426.88 854.25,-430.38 854.25,-423.38"/>
<text text-anchor="middle" x="871.5" y="-432.68" font-family="Arial" font-size="9.00">HRDATA</text>
</g>
<!-- BRAM -->
<g id="node14" class="node">
<title>BRAM</title>
<path fill="#f0ffff" stroke="#48d1cc" stroke-width="2" d="M1006,-301.4C1006,-304.25 988.97,-306.56 968,-306.56 947.03,-306.56 930,-304.25 930,-301.4 930,-301.4 930,-254.97 930,-254.97 930,-252.12 947.03,-249.81 968,-249.81 988.97,-249.81 1006,-252.12 1006,-254.97 1006,-254.97 1006,-301.4 1006,-301.4"/>
<path fill="none" stroke="#48d1cc" stroke-width="2" d="M1006,-301.4C1006,-298.56 988.97,-296.25 968,-296.25 947.03,-296.25 930,-298.56 930,-301.4"/>
<text text-anchor="middle" x="968" y="-286.69" font-family="Arial" font-size="10.00">Data Memory</text>
<text text-anchor="middle" x="968" y="-275.69" font-family="Arial" font-size="10.00">Data RAM</text>
<text text-anchor="middle" x="968" y="-264.69" font-family="Arial" font-size="10.00">64 KB</text>
</g>
<!-- BRAM_CTRL&#45;&gt;BRAM -->
<g id="edge22" class="edge">
<title>BRAM_CTRL&#45;&gt;BRAM</title>
<path fill="none" stroke="#48d1cc" stroke-width="1.5" d="M955.02,-406.09C957.36,-383.25 961.25,-345.16 964.17,-316.66"/>
<polygon fill="#48d1cc" stroke="#48d1cc" stroke-width="1.5" points="967.66,-316.94 965.19,-306.64 960.69,-316.23 967.66,-316.94"/>
<text text-anchor="middle" x="992.5" y="-367.18" font-family="Arial" font-size="9.00">Address/Control</text>
</g>
<!-- IROM&#45;&gt;IROM_CTRL -->
<g id="edge23" class="edge">
<title>IROM&#45;&gt;IROM_CTRL</title>
<path fill="none" stroke="#48d1cc" stroke-width="1.5" stroke-dasharray="5,2" d="M1066.64,-306.62C1062.03,-325.83 1058.3,-351.96 1064,-374.38 1066.01,-382.28 1069.51,-390.28 1073.36,-397.55"/>
<polygon fill="#48d1cc" stroke="#48d1cc" stroke-width="1.5" points="1070.36,-399.34 1078.35,-406.3 1076.44,-395.88 1070.36,-399.34"/>
<text text-anchor="middle" x="1096" y="-367.18" font-family="Arial" font-size="9.00">Instruction Data</text>
</g>
<!-- BRAM&#45;&gt;BRAM_CTRL -->
<g id="edge24" class="edge">
<title>BRAM&#45;&gt;BRAM_CTRL</title>
<path fill="none" stroke="#48d1cc" stroke-width="1.5" stroke-dasharray="5,2" d="M925.16,-311.64C909.76,-325.93 894.18,-344.09 886,-364.38 880.28,-378.56 888.49,-390.82 900.9,-400.58"/>
<polygon fill="#48d1cc" stroke="#48d1cc" stroke-width="1.5" points="927.53,-314.21 932.67,-304.95 922.87,-308.99 927.53,-314.21"/>
<polygon fill="#48d1cc" stroke="#48d1cc" stroke-width="1.5" points="898.89,-403.44 909.08,-406.32 902.91,-397.71 898.89,-403.44"/>
<text text-anchor="middle" x="920" y="-367.18" font-family="Arial" font-size="9.00">Read/Write Data</text>
</g>
<!-- PLL&#45;&gt;CPU -->
<g id="edge12" class="edge">
<title>PLL&#45;&gt;CPU</title>
<path fill="none" stroke="#ffa500" stroke-width="1.5" stroke-dasharray="5,2" d="M581.57,-562.07C574.26,-556.77 566.54,-550.67 560,-544.38 536.51,-521.77 513.78,-493.07 496.79,-469.81"/>
<polygon fill="#ffa500" stroke="#ffa500" stroke-width="1.5" points="499.49,-467.57 490.8,-461.51 493.81,-471.67 499.49,-467.57"/>
<text text-anchor="middle" x="569.5" y="-537.17" font-family="Arial" font-size="9.00">CLK</text>
</g>
<!-- PLL&#45;&gt;DECODER -->
<g id="edge13" class="edge">
<title>PLL&#45;&gt;DECODER</title>
<path fill="none" stroke="#ffa500" stroke-width="1.5" stroke-dasharray="5,2" d="M643.6,-562.34C650.9,-557.43 657.91,-551.45 663,-544.38 682.07,-517.88 688.66,-480.2 690.91,-454.93"/>
<polygon fill="#ffa500" stroke="#ffa500" stroke-width="1.5" points="694.4,-455.16 691.62,-444.94 687.42,-454.66 694.4,-455.16"/>
<text text-anchor="middle" x="677.5" y="-537.17" font-family="Arial" font-size="9.00">CLK</text>
</g>
<!-- PLL&#45;&gt;MUX -->
<g id="edge14" class="edge">
<title>PLL&#45;&gt;MUX</title>
<path fill="none" stroke="#ffa500" stroke-width="1.5" stroke-dasharray="5,2" d="M669.14,-566.27C695.42,-558.22 725.07,-545.63 747,-526.38 768.79,-507.24 783.19,-476.9 791.41,-454.95"/>
<polygon fill="#ffa500" stroke="#ffa500" stroke-width="1.5" points="794.82,-455.83 794.86,-445.23 788.22,-453.49 794.82,-455.83"/>
<text text-anchor="middle" x="743.5" y="-537.17" font-family="Arial" font-size="9.00">CLK</text>
</g>
<!-- PLL&#45;&gt;IROM_CTRL -->
<g id="edge15" class="edge">
<title>PLL&#45;&gt;IROM_CTRL</title>
<path fill="none" stroke="#ffa500" stroke-width="1.5" stroke-dasharray="5,2" d="M669.03,-578.27C768.84,-575.35 961.35,-564.76 1016,-526.38 1041.98,-508.13 1063.18,-478.36 1076.53,-456.31"/>
<polygon fill="#ffa500" stroke="#ffa500" stroke-width="1.5" points="1079.72,-457.79 1081.76,-447.4 1073.68,-454.25 1079.72,-457.79"/>
<text text-anchor="middle" x="1008.5" y="-537.17" font-family="Arial" font-size="9.00">CLK</text>
</g>
<!-- PLL&#45;&gt;BRAM_CTRL -->
<g id="edge16" class="edge">
<title>PLL&#45;&gt;BRAM_CTRL</title>
<path fill="none" stroke="#ffa500" stroke-width="1.5" stroke-dasharray="5,2" d="M669.32,-576.54C757.12,-571.9 910.21,-561.47 929,-544.38 952.63,-522.88 956.47,-484.83 955.8,-458.07"/>
<polygon fill="#ffa500" stroke="#ffa500" stroke-width="1.5" points="959.28,-457.55 955.31,-447.73 952.29,-457.89 959.28,-457.55"/>
<text text-anchor="middle" x="946.5" y="-537.17" font-family="Arial" font-size="9.00">CLK</text>
</g>
<!-- KEY&#45;&gt;CPU -->
<g id="edge30" class="edge">
<title>KEY&#45;&gt;CPU</title>
<path fill="none" stroke="#228b22" stroke-dasharray="1,5" d="M307.12,-562.31C321.66,-552.21 340.16,-538.96 356,-526.38 379.1,-508.02 403.82,-486.49 424.15,-468.25"/>
<polygon fill="#228b22" stroke="#228b22" points="426.63,-470.73 431.71,-461.43 421.94,-465.53 426.63,-470.73"/>
<text text-anchor="middle" x="365" y="-537.17" font-family="Arial" font-size="9.00">Key Value</text>
</g>
<!-- KEY&#45;&gt;UART -->
<!-- UART&#45;&gt;UART_IO -->
<g id="edge36" class="edge">
<title>UART&#45;&gt;UART_IO</title>
<path fill="none" stroke="#228b22" stroke-width="1.5" d="M270.92,-454.19C260.67,-475.44 243.19,-503.42 218,-516.38 193.1,-529.18 179.99,-529 155,-516.38 134.71,-506.13 119.12,-486.38 108.21,-468.03"/>
<polygon fill="#228b22" stroke="#228b22" stroke-width="1.5" points="274.16,-455.53 275.13,-444.98 267.79,-452.63 274.16,-455.53"/>
<polygon fill="#228b22" stroke="#228b22" stroke-width="1.5" points="111.18,-466.18 103.22,-459.18 105.08,-469.61 111.18,-466.18"/>
<text text-anchor="middle" x="206" y="-537.17" font-family="Arial" font-size="9.00">TX/RX</text>
</g>
<!-- UART&#45;&gt;LED -->
<!-- LED&#45;&gt;LEDS -->
<g id="edge35" class="edge">
<title>LED&#45;&gt;LEDS</title>
<path fill="none" stroke="#228b22" stroke-width="1.5" d="M258,-259.97C236.26,-245 204,-222.78 176.48,-203.83"/>
<polygon fill="#228b22" stroke="#228b22" stroke-width="1.5" points="178.32,-200.85 168.1,-198.06 174.35,-206.61 178.32,-200.85"/>
<text text-anchor="middle" x="218" y="-218.8" font-family="Arial" font-size="9.00">Drive</text>
</g>
<!-- LED&#45;&gt;SEG7 -->
<!-- SEG7&#45;&gt;DISPLAY -->
<g id="edge34" class="edge">
<title>SEG7&#45;&gt;DISPLAY</title>
<path fill="none" stroke="#228b22" stroke-width="1.5" d="M272.5,-147.93C260.46,-131.05 240.24,-105.3 218,-88 201.91,-75.48 182.38,-64.76 164.44,-56.3"/>
<polygon fill="#228b22" stroke="#228b22" stroke-width="1.5" points="165.78,-53.06 155.23,-52.09 162.87,-59.43 165.78,-53.06"/>
<text text-anchor="middle" x="215" y="-72.8" font-family="Arial" font-size="9.00">Drive</text>
</g>
<!-- legend -->
<g id="node20" class="node">
<title>legend</title>
<text text-anchor="start" x="708" y="-882.17" font-family="Arial" font-size="9.00">━━━━ 实线：Data/地址通路</text>
<text text-anchor="start" x="708" y="-866.17" font-family="Arial" font-size="9.00">┈┈┈┈ 虚线：Read Data返回</text>
<text text-anchor="start" x="708" y="-850.17" font-family="Arial" font-size="9.00">······ Dotted: Control/Status Signal</text>
</g>
</g>
</svg>
