<?xml version="1.0" encoding="UTF-8" standalone="no"?>
<!DOCTYPE svg PUBLIC "-//W3C//DTD SVG 1.1//EN"
 "http://www.w3.org/Graphics/SVG/1.1/DTD/svg11.dtd">
<!-- Generated by graphviz version 2.43.0 (0)
 -->
<!-- Title: soc_architecture Pages: 1 -->
<svg width="991pt" height="942pt"
 viewBox="0.00 0.00 991.00 942.38" xmlns="http://www.w3.org/2000/svg" xmlns:xlink="http://www.w3.org/1999/xlink">
<g id="graph0" class="graph" transform="scale(1 1) rotate(0) translate(4 938.38)">
<title>soc_architecture</title>
<polygon fill="white" stroke="transparent" points="-4,4 -4,-938.38 987,-938.38 987,4 -4,4"/>
<g id="clust1" class="cluster">
<title>cluster_external</title>
<polygon fill="#f5f5f5" stroke="#696969" stroke-dasharray="5,2" points="8,-8 8,-797.38 185,-797.38 185,-8 8,-8"/>
<text text-anchor="middle" x="96.5" y="-783.77" font-family="Arial" font-size="12.00">外部接口 (External Interfaces)</text>
</g>
<g id="clust2" class="cluster">
<title>cluster_soc</title>
<path fill="#ffffff" stroke="#000000" stroke-width="3" d="M247,-116C247,-116 963,-116 963,-116 969,-116 975,-122 975,-128 975,-128 975,-590.38 975,-590.38 975,-596.38 969,-602.38 963,-602.38 963,-602.38 247,-602.38 247,-602.38 241,-602.38 235,-596.38 235,-590.38 235,-590.38 235,-128 235,-128 235,-122 241,-116 247,-116"/>
<text text-anchor="middle" x="605" y="-123.6" font-family="Arial Bold" font-size="13.00">SoC 芯片内部 (SoC Internal)</text>
</g>
<g id="clust3" class="cluster">
<title>cluster_cpu</title>
<path fill="#e6f3ff" stroke="#4169e1" stroke-width="2" d="M255,-318.38C255,-318.38 422,-318.38 422,-318.38 428,-318.38 434,-324.38 434,-330.38 434,-330.38 434,-433.38 434,-433.38 434,-439.38 428,-445.38 422,-445.38 422,-445.38 255,-445.38 255,-445.38 249,-445.38 243,-439.38 243,-433.38 243,-433.38 243,-330.38 243,-330.38 243,-324.38 249,-318.38 255,-318.38"/>
<text text-anchor="middle" x="338.5" y="-431.77" font-family="Arial" font-size="12.00">RISC&#45;V 处理器核心 (CPU Core)</text>
</g>
<g id="clust4" class="cluster">
<title>cluster_ahb</title>
<path fill="#fff8dc" stroke="#ff8c00" stroke-width="2" d="M454,-332.38C454,-332.38 656,-332.38 656,-332.38 662,-332.38 668,-338.38 668,-344.38 668,-344.38 668,-419.38 668,-419.38 668,-425.38 662,-431.38 656,-431.38 656,-431.38 454,-431.38 454,-431.38 448,-431.38 442,-425.38 442,-419.38 442,-419.38 442,-344.38 442,-344.38 442,-338.38 448,-332.38 454,-332.38"/>
<text text-anchor="middle" x="555" y="-417.77" font-family="Arial" font-size="12.00">AHB 总线互连系统 (AHB Interconnect)</text>
</g>
<g id="clust5" class="cluster">
<title>cluster_memory</title>
<path fill="#e0ffff" stroke="#20b2aa" stroke-width="2" d="M688,-168C688,-168 955,-168 955,-168 961,-168 967,-174 967,-180 967,-180 967,-448.38 967,-448.38 967,-454.38 961,-460.38 955,-460.38 955,-460.38 688,-460.38 688,-460.38 682,-460.38 676,-454.38 676,-448.38 676,-448.38 676,-180 676,-180 676,-174 682,-168 688,-168"/>
<text text-anchor="middle" x="821.5" y="-446.77" font-family="Arial" font-size="12.00">存储子系统 (Memory Subsystem)</text>
</g>
<g id="clust6" class="cluster">
<title>cluster_ctrl</title>
<path fill="#e0ffff" stroke="#20b2aa" stroke-width="2" d="M715,-332.38C715,-332.38 945,-332.38 945,-332.38 951,-332.38 957,-338.38 957,-344.38 957,-344.38 957,-419.38 957,-419.38 957,-425.38 951,-431.38 945,-431.38 945,-431.38 715,-431.38 715,-431.38 709,-431.38 703,-425.38 703,-419.38 703,-419.38 703,-344.38 703,-344.38 703,-338.38 709,-332.38 715,-332.38"/>
<text text-anchor="middle" x="830" y="-417.77" font-family="Arial" font-size="12.00">存储子系统 (Memory Subsystem)</text>
</g>
<g id="clust7" class="cluster">
<title>cluster_mem</title>
<path fill="#e0ffff" stroke="#20b2aa" stroke-width="2" d="M715,-176C715,-176 894,-176 894,-176 900,-176 906,-182 906,-188 906,-188 906,-278.38 906,-278.38 906,-284.38 900,-290.38 894,-290.38 894,-290.38 715,-290.38 715,-290.38 709,-290.38 703,-284.38 703,-278.38 703,-278.38 703,-188 703,-188 703,-182 709,-176 715,-176"/>
<text text-anchor="middle" x="804.5" y="-276.77" font-family="Arial" font-size="12.00">存储子系统 (Memory Subsystem)</text>
</g>
<g id="clust8" class="cluster">
<title>cluster_clk</title>
<path fill="#fffaf0" stroke="#ff6347" stroke-width="2" d="M412,-502.38C412,-502.38 573,-502.38 573,-502.38 579,-502.38 585,-508.38 585,-514.38 585,-514.38 585,-582.38 585,-582.38 585,-588.38 579,-594.38 573,-594.38 573,-594.38 412,-594.38 412,-594.38 406,-594.38 400,-588.38 400,-582.38 400,-582.38 400,-514.38 400,-514.38 400,-508.38 406,-502.38 412,-502.38"/>
<text text-anchor="middle" x="492.5" y="-581.58" font-family="Arial" font-size="11.00">时钟与复位系统 (Clock &amp; Reset)</text>
</g>
<g id="clust9" class="cluster">
<title>cluster_periph</title>
<path fill="#f0fff0" stroke="#228b22" stroke-width="2" d="M255,-186.19C255,-186.19 637,-186.19 637,-186.19 643,-186.19 649,-192.19 649,-198.19 649,-198.19 649,-266.19 649,-266.19 649,-272.19 643,-278.19 637,-278.19 637,-278.19 255,-278.19 255,-278.19 249,-278.19 243,-272.19 243,-266.19 243,-266.19 243,-198.19 243,-198.19 243,-192.19 249,-186.19 255,-186.19"/>
<text text-anchor="middle" x="446" y="-265.39" font-family="Arial" font-size="11.00">外设子系统 (Peripheral Subsystem)</text>
</g>
<g id="clust10" class="cluster">
<title>cluster_legend</title>
<polygon fill="white" stroke="#808080" stroke-dasharray="5,2" points="528,-814.38 528,-926.38 696,-926.38 696,-814.38 528,-814.38"/>
<text text-anchor="middle" x="612" y="-821.38" font-family="Arial" font-size="10.00">图例 (Legend)</text>
</g>
<!-- title -->
<g id="node1" class="node">
<title>title</title>
<text text-anchor="middle" x="136" y="-894.58" font-family="Arial Bold" font-size="16.00">LibreCore SoC 系统架构</text>
<text text-anchor="middle" x="136" y="-876.58" font-family="Arial Bold" font-size="16.00">SoC System Architecture</text>
</g>
<!-- CLK_IN -->
<g id="node2" class="node">
<title>CLK_IN</title>
<path fill="#fffacd" stroke="#daa520" stroke-width="2" d="M165,-747.38C165,-747.38 107,-747.38 107,-747.38 101,-747.38 95,-741.38 95,-735.38 95,-735.38 95,-723.38 95,-723.38 95,-717.38 101,-711.38 107,-711.38 107,-711.38 165,-711.38 165,-711.38 171,-711.38 177,-717.38 177,-723.38 177,-723.38 177,-735.38 177,-735.38 177,-741.38 171,-747.38 165,-747.38"/>
<text text-anchor="middle" x="136" y="-732.58" font-family="Arial" font-size="11.00">时钟输入</text>
<text text-anchor="middle" x="136" y="-720.58" font-family="Arial" font-size="11.00">CLK 100MHz</text>
</g>
<!-- title&#45;&gt;CLK_IN -->
<!-- RESET_IN -->
<g id="node3" class="node">
<title>RESET_IN</title>
<path fill="#fffacd" stroke="#daa520" stroke-width="2" d="M158,-674.38C158,-674.38 114,-674.38 114,-674.38 108,-674.38 102,-668.38 102,-662.38 102,-662.38 102,-650.38 102,-650.38 102,-644.38 108,-638.38 114,-638.38 114,-638.38 158,-638.38 158,-638.38 164,-638.38 170,-644.38 170,-650.38 170,-650.38 170,-662.38 170,-662.38 170,-668.38 164,-674.38 158,-674.38"/>
<text text-anchor="middle" x="136" y="-659.58" font-family="Arial" font-size="11.00">复位信号</text>
<text text-anchor="middle" x="136" y="-647.58" font-family="Arial" font-size="11.00">RESET</text>
</g>
<!-- CLK_IN&#45;&gt;RESET_IN -->
<!-- PLL -->
<g id="node15" class="node">
<title>PLL</title>
<path fill="#ffe4b5" stroke="#ff8c00" stroke-width="2" d="M531.5,-546.38C531.5,-546.38 452.5,-546.38 452.5,-546.38 446.5,-546.38 440.5,-540.38 440.5,-534.38 440.5,-534.38 440.5,-522.38 440.5,-522.38 440.5,-516.38 446.5,-510.38 452.5,-510.38 452.5,-510.38 531.5,-510.38 531.5,-510.38 537.5,-510.38 543.5,-516.38 543.5,-522.38 543.5,-522.38 543.5,-534.38 543.5,-534.38 543.5,-540.38 537.5,-546.38 531.5,-546.38"/>
<text text-anchor="middle" x="492" y="-531.38" font-family="Arial" font-size="10.00">PLL 时钟管理</text>
<text text-anchor="middle" x="492" y="-520.38" font-family="Arial" font-size="10.00">Phase&#45;Locked Loop</text>
</g>
<!-- CLK_IN&#45;&gt;PLL -->
<g id="edge7" class="edge">
<title>CLK_IN&#45;&gt;PLL</title>
<path fill="none" stroke="#ff8c00" stroke-width="2" d="M166.66,-711.24C231.14,-675.19 380.74,-591.57 452.38,-551.52"/>
<polygon fill="#ff8c00" stroke="#ff8c00" stroke-width="2" points="454.52,-554.34 461.54,-546.4 451.1,-548.23 454.52,-554.34"/>
<text text-anchor="middle" x="313.5" y="-654.17" font-family="Arial" font-size="9.00">100MHz</text>
</g>
<!-- UART_IO -->
<g id="node4" class="node">
<title>UART_IO</title>
<path fill="#e6e6fa" stroke="#9370db" stroke-width="2" d="M164.68,-560.38C164.68,-560.38 106.47,-560.38 106.47,-560.38 100.47,-560.38 92.59,-554.68 90.71,-548.98 90.71,-548.98 77.09,-507.77 77.09,-507.77 75.21,-502.07 79.32,-496.38 85.32,-496.38 85.32,-496.38 143.53,-496.38 143.53,-496.38 149.53,-496.38 157.41,-502.07 159.29,-507.77 159.29,-507.77 172.91,-548.98 172.91,-548.98 174.79,-554.68 170.68,-560.38 164.68,-560.38"/>
<text text-anchor="middle" x="125" y="-531.58" font-family="Arial" font-size="11.00">UART</text>
<text text-anchor="middle" x="125" y="-519.58" font-family="Arial" font-size="11.00">RX/TX</text>
</g>
<!-- RESET_IN&#45;&gt;UART_IO -->
<!-- RESET_IN&#45;&gt;PLL -->
<g id="edge8" class="edge">
<title>RESET_IN&#45;&gt;PLL</title>
<path fill="none" stroke="#ff0000" stroke-width="2" d="M170.13,-643.29C231.09,-621.72 359.29,-576.35 434.19,-549.84"/>
<polygon fill="#ff0000" stroke="#ff0000" stroke-width="2" points="435.69,-553.02 443.95,-546.38 433.35,-546.42 435.69,-553.02"/>
<text text-anchor="middle" x="272.5" y="-613.17" font-family="Arial" font-size="9.00">复位</text>
</g>
<!-- BUTTONS -->
<g id="node5" class="node">
<title>BUTTONS</title>
<path fill="#e6e6fa" stroke="#9370db" stroke-width="2" d="M159.51,-392.88C159.51,-392.88 60.21,-392.88 60.21,-392.88 54.21,-392.88 45.54,-387.5 42.88,-382.12 42.88,-382.12 21.82,-339.63 21.82,-339.63 19.15,-334.25 22.49,-328.88 28.49,-328.88 28.49,-328.88 127.79,-328.88 127.79,-328.88 133.79,-328.88 142.46,-334.25 145.12,-339.63 145.12,-339.63 166.18,-382.12 166.18,-382.12 168.85,-387.5 165.51,-392.88 159.51,-392.88"/>
<text text-anchor="middle" x="94" y="-364.07" font-family="Arial" font-size="11.00">按键输入</text>
<text text-anchor="middle" x="94" y="-352.07" font-family="Arial" font-size="11.00">Buttons (5x)</text>
</g>
<!-- UART_IO&#45;&gt;BUTTONS -->
<!-- LEDS -->
<g id="node6" class="node">
<title>LEDS</title>
<path fill="#e6e6fa" stroke="#9370db" stroke-width="2" d="M164.72,-244.19C164.72,-244.19 71.45,-244.19 71.45,-244.19 65.45,-244.19 56.89,-238.76 54.33,-233.33 54.33,-233.33 34.4,-191.04 34.4,-191.04 31.84,-185.61 35.28,-180.19 41.28,-180.19 41.28,-180.19 134.55,-180.19 134.55,-180.19 140.55,-180.19 149.11,-185.61 151.67,-191.04 151.67,-191.04 171.6,-233.33 171.6,-233.33 174.16,-238.76 170.72,-244.19 164.72,-244.19"/>
<text text-anchor="middle" x="103" y="-215.39" font-family="Arial" font-size="11.00">LED 输出</text>
<text text-anchor="middle" x="103" y="-203.39" font-family="Arial" font-size="11.00">LEDs (16x)</text>
</g>
<!-- BUTTONS&#45;&gt;LEDS -->
<!-- KEY -->
<g id="node19" class="node">
<title>KEY</title>
<path fill="#90ee90" stroke="#228b22" stroke-width="2" d="M320.5,-230.19C320.5,-230.19 263.5,-230.19 263.5,-230.19 257.5,-230.19 251.5,-224.19 251.5,-218.19 251.5,-218.19 251.5,-206.19 251.5,-206.19 251.5,-200.19 257.5,-194.19 263.5,-194.19 263.5,-194.19 320.5,-194.19 320.5,-194.19 326.5,-194.19 332.5,-200.19 332.5,-206.19 332.5,-206.19 332.5,-218.19 332.5,-218.19 332.5,-224.19 326.5,-230.19 320.5,-230.19"/>
<text text-anchor="middle" x="292" y="-215.19" font-family="Arial" font-size="10.00">按键消抖</text>
<text text-anchor="middle" x="292" y="-204.19" font-family="Arial" font-size="10.00">Key Debounce</text>
</g>
<!-- BUTTONS&#45;&gt;KEY -->
<g id="edge26" class="edge">
<title>BUTTONS&#45;&gt;KEY</title>
<path fill="none" stroke="#228b22" stroke-width="1.5" d="M129.03,-328.78C141.73,-318.36 156.53,-307.17 171,-298.38 178.48,-293.83 181.45,-294.81 189,-290.38 215.93,-274.57 244.15,-253.02 264.23,-236.71"/>
<polygon fill="#228b22" stroke="#228b22" stroke-width="1.5" points="266.54,-239.34 272.04,-230.29 262.09,-233.93 266.54,-239.34"/>
<text text-anchor="middle" x="182.5" y="-301.18" font-family="Arial" font-size="9.00">输入</text>
</g>
<!-- DISPLAY -->
<g id="node7" class="node">
<title>DISPLAY</title>
<path fill="#e6e6fa" stroke="#9370db" stroke-width="2" d="M164.65,-80C164.65,-80 73.08,-80 73.08,-80 67.08,-80 58.56,-74.56 56.03,-69.12 56.03,-69.12 36.41,-26.88 36.41,-26.88 33.88,-21.44 37.35,-16 43.35,-16 43.35,-16 134.92,-16 134.92,-16 140.92,-16 149.44,-21.44 151.97,-26.88 151.97,-26.88 171.59,-69.12 171.59,-69.12 174.12,-74.56 170.65,-80 164.65,-80"/>
<text text-anchor="middle" x="104" y="-51.2" font-family="Arial" font-size="11.00">数码管</text>
<text text-anchor="middle" x="104" y="-39.2" font-family="Arial" font-size="11.00">7&#45;Segment</text>
</g>
<!-- LEDS&#45;&gt;DISPLAY -->
<!-- CPU -->
<g id="node8" class="node">
<title>CPU</title>
<path fill="#b0d4ff" stroke="#4169e1" stroke-width="2" d="M376.5,-395.38C376.5,-395.38 281.5,-395.38 281.5,-395.38 275.5,-395.38 269.5,-389.38 269.5,-383.38 269.5,-383.38 269.5,-338.38 269.5,-338.38 269.5,-332.38 275.5,-326.38 281.5,-326.38 281.5,-326.38 376.5,-326.38 376.5,-326.38 382.5,-326.38 388.5,-332.38 388.5,-338.38 388.5,-338.38 388.5,-383.38 388.5,-383.38 388.5,-389.38 382.5,-395.38 376.5,-395.38"/>
<text text-anchor="middle" x="329" y="-382.57" font-family="Arial" font-size="11.00">myCPU</text>
<text text-anchor="middle" x="329" y="-370.57" font-family="Arial" font-size="11.00">五级流水线处理器</text>
<text text-anchor="middle" x="329" y="-358.57" font-family="Arial" font-size="11.00">RV32I 指令集</text>
<text text-anchor="middle" x="329" y="-333.57" font-family="Arial" font-size="11.00">AHB&#45;I / AHB&#45;D</text>
</g>
<!-- DECODER -->
<g id="node9" class="node">
<title>DECODER</title>
<path fill="#ffd700" stroke="#ff8c00" stroke-width="2" d="M520,-381.38C520,-381.38 464,-381.38 464,-381.38 458,-381.38 452,-375.38 452,-369.38 452,-369.38 452,-352.38 452,-352.38 452,-346.38 458,-340.38 464,-340.38 464,-340.38 520,-340.38 520,-340.38 526,-340.38 532,-346.38 532,-352.38 532,-352.38 532,-369.38 532,-369.38 532,-375.38 526,-381.38 520,-381.38"/>
<text text-anchor="middle" x="492" y="-369.38" font-family="Arial" font-size="10.00">地址译码器</text>
<text text-anchor="middle" x="492" y="-358.38" font-family="Arial" font-size="10.00">AHB Decoder</text>
<text text-anchor="middle" x="492" y="-347.38" font-family="Arial" font-size="10.00">(地址路由)</text>
</g>
<!-- CPU&#45;&gt;DECODER -->
<g id="edge14" class="edge">
<title>CPU&#45;&gt;DECODER</title>
<path fill="none" stroke="#4169e1" stroke-width="2" d="M388.77,-360.88C406.08,-360.88 424.79,-360.88 441.47,-360.88"/>
<polygon fill="#4169e1" stroke="#4169e1" stroke-width="2" points="441.57,-364.38 451.57,-360.88 441.57,-357.38 441.57,-364.38"/>
<text text-anchor="middle" x="420.25" y="-376.68" font-family="Arial" font-size="9.00">指令地址</text>
<text text-anchor="middle" x="420.25" y="-366.68" font-family="Arial" font-size="9.00">HADDR_I</text>
</g>
<!-- CPU&#45;&gt;DECODER -->
<g id="edge15" class="edge">
<title>CPU&#45;&gt;DECODER</title>
<path fill="none" stroke="#9370db" stroke-width="2" d="M388.7,-339.32C404.03,-336.02 420.64,-334.37 442.16,-338.26"/>
<polygon fill="#9370db" stroke="#9370db" stroke-width="2" points="441.55,-341.71 452.06,-340.37 443,-334.86 441.55,-341.71"/>
<text text-anchor="middle" x="420.25" y="-350.68" font-family="Arial" font-size="9.00">数据地址</text>
<text text-anchor="middle" x="420.25" y="-340.68" font-family="Arial" font-size="9.00">HADDR_D</text>
</g>
<!-- UART -->
<g id="node16" class="node">
<title>UART</title>
<path fill="#90ee90" stroke="#228b22" stroke-width="2" d="M423.5,-230.19C423.5,-230.19 362.5,-230.19 362.5,-230.19 356.5,-230.19 350.5,-224.19 350.5,-218.19 350.5,-218.19 350.5,-206.19 350.5,-206.19 350.5,-200.19 356.5,-194.19 362.5,-194.19 362.5,-194.19 423.5,-194.19 423.5,-194.19 429.5,-194.19 435.5,-200.19 435.5,-206.19 435.5,-206.19 435.5,-218.19 435.5,-218.19 435.5,-224.19 429.5,-230.19 423.5,-230.19"/>
<text text-anchor="middle" x="393" y="-215.19" font-family="Arial" font-size="10.00">UART 控制器</text>
<text text-anchor="middle" x="393" y="-204.19" font-family="Arial" font-size="10.00">Serial Interface</text>
</g>
<!-- CPU&#45;&gt;UART -->
<g id="edge30" class="edge">
<title>CPU&#45;&gt;UART</title>
<path fill="none" stroke="#228b22" stroke-dasharray="1,5" d="M344.94,-326.16C347.66,-320.25 350.44,-314.15 353,-308.38 363.2,-285.35 374.25,-258.92 382.15,-239.77"/>
<polygon fill="#228b22" stroke="#228b22" points="385.41,-241.05 385.97,-230.47 378.93,-238.39 385.41,-241.05"/>
<text text-anchor="middle" x="379" y="-301.18" font-family="Arial" font-size="9.00">串口数据</text>
</g>
<!-- SEG7 -->
<g id="node17" class="node">
<title>SEG7</title>
<path fill="#90ee90" stroke="#228b22" stroke-width="2" d="M629.5,-230.19C629.5,-230.19 560.5,-230.19 560.5,-230.19 554.5,-230.19 548.5,-224.19 548.5,-218.19 548.5,-218.19 548.5,-206.19 548.5,-206.19 548.5,-200.19 554.5,-194.19 560.5,-194.19 560.5,-194.19 629.5,-194.19 629.5,-194.19 635.5,-194.19 641.5,-200.19 641.5,-206.19 641.5,-206.19 641.5,-218.19 641.5,-218.19 641.5,-224.19 635.5,-230.19 629.5,-230.19"/>
<text text-anchor="middle" x="595" y="-215.19" font-family="Arial" font-size="10.00">数码管控制器</text>
<text text-anchor="middle" x="595" y="-204.19" font-family="Arial" font-size="10.00">7&#45;Segment Driver</text>
</g>
<!-- CPU&#45;&gt;SEG7 -->
<g id="edge28" class="edge">
<title>CPU&#45;&gt;SEG7</title>
<path fill="none" stroke="#228b22" stroke-dasharray="1,5" d="M388.75,-335.46C404.61,-329.44 421.83,-323.31 438,-318.38 456.77,-312.65 462.05,-313.46 481,-308.38 507.48,-301.27 517.75,-306.39 540,-290.38 558.25,-277.24 572.69,-256.12 582.19,-239.3"/>
<polygon fill="#228b22" stroke="#228b22" points="585.29,-240.93 586.95,-230.47 579.12,-237.61 585.29,-240.93"/>
<text text-anchor="middle" x="548" y="-301.18" font-family="Arial" font-size="9.00">显示数据</text>
</g>
<!-- LED -->
<g id="node18" class="node">
<title>LED</title>
<path fill="#90ee90" stroke="#228b22" stroke-width="2" d="M518.5,-230.19C518.5,-230.19 465.5,-230.19 465.5,-230.19 459.5,-230.19 453.5,-224.19 453.5,-218.19 453.5,-218.19 453.5,-206.19 453.5,-206.19 453.5,-200.19 459.5,-194.19 465.5,-194.19 465.5,-194.19 518.5,-194.19 518.5,-194.19 524.5,-194.19 530.5,-200.19 530.5,-206.19 530.5,-206.19 530.5,-218.19 530.5,-218.19 530.5,-224.19 524.5,-230.19 518.5,-230.19"/>
<text text-anchor="middle" x="492" y="-215.19" font-family="Arial" font-size="10.00">LED 控制器</text>
<text text-anchor="middle" x="492" y="-204.19" font-family="Arial" font-size="10.00">LED Driver</text>
</g>
<!-- CPU&#45;&gt;LED -->
<g id="edge29" class="edge">
<title>CPU&#45;&gt;LED</title>
<path fill="none" stroke="#228b22" stroke-dasharray="1,5" d="M388.66,-331.49C408.06,-320.43 428.76,-306.5 445,-290.38 459.66,-275.82 471.67,-255.82 479.88,-239.82"/>
<polygon fill="#228b22" stroke="#228b22" points="483.21,-240.98 484.49,-230.46 476.94,-237.89 483.21,-240.98"/>
<text text-anchor="middle" x="455.5" y="-301.18" font-family="Arial" font-size="9.00">LED 状态</text>
</g>
<!-- IROM_CTRL -->
<g id="node11" class="node">
<title>IROM_CTRL</title>
<path fill="#afeeee" stroke="#20b2aa" stroke-width="2" d="M809,-381.38C809,-381.38 723,-381.38 723,-381.38 717,-381.38 711,-375.38 711,-369.38 711,-369.38 711,-352.38 711,-352.38 711,-346.38 717,-340.38 723,-340.38 723,-340.38 809,-340.38 809,-340.38 815,-340.38 821,-346.38 821,-352.38 821,-352.38 821,-369.38 821,-369.38 821,-375.38 815,-381.38 809,-381.38"/>
<text text-anchor="middle" x="766" y="-369.38" font-family="Arial" font-size="10.00">指令 ROM 控制器</text>
<text text-anchor="middle" x="766" y="-358.38" font-family="Arial" font-size="10.00">IROM Controller</text>
<text text-anchor="middle" x="766" y="-347.38" font-family="Arial" font-size="10.00">(AHB → ROM)</text>
</g>
<!-- DECODER&#45;&gt;IROM_CTRL -->
<g id="edge16" class="edge">
<title>DECODER&#45;&gt;IROM_CTRL</title>
<path fill="none" stroke="#20b2aa" stroke-width="2" d="M496.75,-381.51C502.93,-403 516.01,-435.56 541,-450.38 591.09,-480.06 617.94,-471.99 672,-450.38 702.48,-438.19 728.7,-410.89 745.65,-389.63"/>
<polygon fill="#20b2aa" stroke="#20b2aa" stroke-width="2" points="748.56,-391.58 751.9,-381.53 743.02,-387.31 748.56,-391.58"/>
<text text-anchor="middle" x="605" y="-471.18" font-family="Arial" font-size="9.00">HSEL_IROM</text>
</g>
<!-- BRAM_CTRL -->
<g id="node12" class="node">
<title>BRAM_CTRL</title>
<path fill="#afeeee" stroke="#20b2aa" stroke-width="2" d="M936.5,-381.38C936.5,-381.38 851.5,-381.38 851.5,-381.38 845.5,-381.38 839.5,-375.38 839.5,-369.38 839.5,-369.38 839.5,-352.38 839.5,-352.38 839.5,-346.38 845.5,-340.38 851.5,-340.38 851.5,-340.38 936.5,-340.38 936.5,-340.38 942.5,-340.38 948.5,-346.38 948.5,-352.38 948.5,-352.38 948.5,-369.38 948.5,-369.38 948.5,-375.38 942.5,-381.38 936.5,-381.38"/>
<text text-anchor="middle" x="894" y="-369.38" font-family="Arial" font-size="10.00">数据 RAM 控制器</text>
<text text-anchor="middle" x="894" y="-358.38" font-family="Arial" font-size="10.00">BRAM Controller</text>
<text text-anchor="middle" x="894" y="-347.38" font-family="Arial" font-size="10.00">(AHB → RAM)</text>
</g>
<!-- DECODER&#45;&gt;BRAM_CTRL -->
<g id="edge17" class="edge">
<title>DECODER&#45;&gt;BRAM_CTRL</title>
<path fill="none" stroke="#20b2aa" stroke-width="2" d="M496.75,-381.51C502.93,-403 516.01,-435.56 541,-450.38 596.25,-483.11 772.89,-479.75 830,-450.38 854.16,-437.95 871.23,-411.71 881.63,-390.84"/>
<polygon fill="#20b2aa" stroke="#20b2aa" stroke-width="2" points="884.84,-392.23 885.94,-381.69 878.51,-389.25 884.84,-392.23"/>
<text text-anchor="middle" x="667" y="-471.18" font-family="Arial" font-size="9.00">HSEL_BRAM</text>
</g>
<!-- MUX -->
<g id="node10" class="node">
<title>MUX</title>
<path fill="#ffd700" stroke="#ff8c00" stroke-width="2" d="M644,-381.38C644,-381.38 562,-381.38 562,-381.38 556,-381.38 550,-375.38 550,-369.38 550,-369.38 550,-352.38 550,-352.38 550,-346.38 556,-340.38 562,-340.38 562,-340.38 644,-340.38 644,-340.38 650,-340.38 656,-346.38 656,-352.38 656,-352.38 656,-369.38 656,-369.38 656,-375.38 650,-381.38 644,-381.38"/>
<text text-anchor="middle" x="603" y="-369.38" font-family="Arial" font-size="10.00">数据多路复用器</text>
<text text-anchor="middle" x="603" y="-358.38" font-family="Arial" font-size="10.00">AHB Multiplexer</text>
<text text-anchor="middle" x="603" y="-347.38" font-family="Arial" font-size="10.00">(数据选择)</text>
</g>
<!-- MUX&#45;&gt;CPU -->
<g id="edge24" class="edge">
<title>MUX&#45;&gt;CPU</title>
<path fill="none" stroke="#4169e1" stroke-width="2" stroke-dasharray="5,2" d="M595.37,-381.67C586.18,-403.31 568.46,-435.99 541,-450.38 500.45,-471.61 481.1,-465.8 438,-450.38 410.93,-440.69 385.76,-421.06 366.45,-402.65"/>
<polygon fill="#4169e1" stroke="#4169e1" stroke-width="2" points="368.66,-399.91 359.07,-395.4 363.76,-404.91 368.66,-399.91"/>
<text text-anchor="middle" x="421" y="-471.18" font-family="Arial" font-size="9.00">指令</text>
</g>
<!-- MUX&#45;&gt;CPU -->
<g id="edge25" class="edge">
<title>MUX&#45;&gt;CPU</title>
<path fill="none" stroke="#9370db" stroke-width="2" stroke-dasharray="5,2" d="M595.37,-381.67C586.18,-403.31 568.46,-435.99 541,-450.38 500.45,-471.61 481.1,-465.8 438,-450.38 410.93,-440.69 385.76,-421.06 366.45,-402.65"/>
<polygon fill="#9370db" stroke="#9370db" stroke-width="2" points="368.66,-399.91 359.07,-395.4 363.76,-404.91 368.66,-399.91"/>
<text text-anchor="middle" x="421" y="-471.18" font-family="Arial" font-size="9.00">数据</text>
</g>
<!-- IROM_CTRL&#45;&gt;MUX -->
<g id="edge22" class="edge">
<title>IROM_CTRL&#45;&gt;MUX</title>
<path fill="none" stroke="#20b2aa" stroke-width="1.5" stroke-dasharray="5,2" d="M710.83,-360.88C696.54,-360.88 681.04,-360.88 666.37,-360.88"/>
<polygon fill="#20b2aa" stroke="#20b2aa" stroke-width="1.5" points="666.37,-357.38 656.37,-360.88 666.37,-364.38 666.37,-357.38"/>
<text text-anchor="middle" x="683.5" y="-366.68" font-family="Arial" font-size="9.00">HRDATA</text>
</g>
<!-- IROM -->
<g id="node13" class="node">
<title>IROM</title>
<path fill="#f0ffff" stroke="#48d1cc" stroke-width="2" d="M799.5,-235.4C799.5,-238.25 779.55,-240.56 755,-240.56 730.45,-240.56 710.5,-238.25 710.5,-235.4 710.5,-235.4 710.5,-188.97 710.5,-188.97 710.5,-186.12 730.45,-183.81 755,-183.81 779.55,-183.81 799.5,-186.12 799.5,-188.97 799.5,-188.97 799.5,-235.4 799.5,-235.4"/>
<path fill="none" stroke="#48d1cc" stroke-width="2" d="M799.5,-235.4C799.5,-232.56 779.55,-230.25 755,-230.25 730.45,-230.25 710.5,-232.56 710.5,-235.4"/>
<text text-anchor="middle" x="755" y="-220.69" font-family="Arial" font-size="10.00">指令存储器</text>
<text text-anchor="middle" x="755" y="-209.69" font-family="Arial" font-size="10.00">Instruction ROM</text>
<text text-anchor="middle" x="755" y="-198.69" font-family="Arial" font-size="10.00">64 KB</text>
</g>
<!-- IROM_CTRL&#45;&gt;IROM -->
<g id="edge18" class="edge">
<title>IROM_CTRL&#45;&gt;IROM</title>
<path fill="none" stroke="#48d1cc" stroke-width="1.5" d="M764.52,-340.09C762.8,-317.25 759.95,-279.16 757.81,-250.66"/>
<polygon fill="#48d1cc" stroke="#48d1cc" stroke-width="1.5" points="761.3,-250.35 757.06,-240.64 754.32,-250.87 761.3,-250.35"/>
<text text-anchor="middle" x="786" y="-301.18" font-family="Arial" font-size="9.00">地址/控制</text>
</g>
<!-- BRAM_CTRL&#45;&gt;MUX -->
<g id="edge23" class="edge">
<title>BRAM_CTRL&#45;&gt;MUX</title>
<path fill="none" stroke="#20b2aa" stroke-width="1.5" stroke-dasharray="5,2" d="M885.94,-381.69C876.29,-403.35 857.86,-436.05 830,-450.38 778.22,-477 753.17,-471.71 699,-450.38 668.12,-438.21 641.3,-410.91 623.92,-389.64"/>
<polygon fill="#20b2aa" stroke="#20b2aa" stroke-width="1.5" points="626.46,-387.21 617.51,-381.54 620.97,-391.55 626.46,-387.21"/>
<text text-anchor="middle" x="722" y="-471.18" font-family="Arial" font-size="9.00">HRDATA</text>
</g>
<!-- BRAM -->
<g id="node14" class="node">
<title>BRAM</title>
<path fill="#f0ffff" stroke="#48d1cc" stroke-width="2" d="M898,-235.4C898,-238.25 880.07,-240.56 858,-240.56 835.93,-240.56 818,-238.25 818,-235.4 818,-235.4 818,-188.97 818,-188.97 818,-186.12 835.93,-183.81 858,-183.81 880.07,-183.81 898,-186.12 898,-188.97 898,-188.97 898,-235.4 898,-235.4"/>
<path fill="none" stroke="#48d1cc" stroke-width="2" d="M898,-235.4C898,-232.56 880.07,-230.25 858,-230.25 835.93,-230.25 818,-232.56 818,-235.4"/>
<text text-anchor="middle" x="858" y="-220.69" font-family="Arial" font-size="10.00">数据存储器</text>
<text text-anchor="middle" x="858" y="-209.69" font-family="Arial" font-size="10.00">Data RAM</text>
<text text-anchor="middle" x="858" y="-198.69" font-family="Arial" font-size="10.00">64 KB</text>
</g>
<!-- BRAM_CTRL&#45;&gt;BRAM -->
<g id="edge19" class="edge">
<title>BRAM_CTRL&#45;&gt;BRAM</title>
<path fill="none" stroke="#48d1cc" stroke-width="1.5" d="M867.22,-340.26C857.69,-331.66 848.07,-320.71 843,-308.38 835.48,-290.1 838.1,-268.42 843.09,-250.37"/>
<polygon fill="#48d1cc" stroke="#48d1cc" stroke-width="1.5" points="846.45,-251.35 846.06,-240.77 839.76,-249.29 846.45,-251.35"/>
<text text-anchor="middle" x="867" y="-301.18" font-family="Arial" font-size="9.00">地址/控制</text>
</g>
<!-- IROM&#45;&gt;IROM_CTRL -->
<g id="edge20" class="edge">
<title>IROM&#45;&gt;IROM_CTRL</title>
<path fill="none" stroke="#48d1cc" stroke-width="1.5" stroke-dasharray="5,2" d="M729.2,-240.52C714.57,-259.47 701.01,-285.32 711,-308.38 715.06,-317.74 721.75,-326.17 729.09,-333.38"/>
<polygon fill="#48d1cc" stroke="#48d1cc" stroke-width="1.5" points="726.82,-336.05 736.58,-340.17 731.52,-330.86 726.82,-336.05"/>
<text text-anchor="middle" x="734" y="-301.18" font-family="Arial" font-size="9.00">指令数据</text>
</g>
<!-- BRAM&#45;&gt;BRAM_CTRL -->
<g id="edge21" class="edge">
<title>BRAM&#45;&gt;BRAM_CTRL</title>
<path fill="none" stroke="#48d1cc" stroke-width="1.5" stroke-dasharray="5,2" d="M875.15,-249.79C881.27,-264.56 887.52,-281.96 891,-298.38 893.17,-308.62 894.12,-320.03 894.47,-330.21"/>
<polygon fill="#48d1cc" stroke="#48d1cc" stroke-width="1.5" points="878.32,-248.32 871.17,-240.51 871.89,-251.08 878.32,-248.32"/>
<polygon fill="#48d1cc" stroke="#48d1cc" stroke-width="1.5" points="890.97,-330.34 894.63,-340.28 897.97,-330.23 890.97,-330.34"/>
<text text-anchor="middle" x="915" y="-301.18" font-family="Arial" font-size="9.00">读写数据</text>
</g>
<!-- PLL&#45;&gt;CPU -->
<g id="edge9" class="edge">
<title>PLL&#45;&gt;CPU</title>
<path fill="none" stroke="#ffa500" stroke-width="1.5" stroke-dasharray="5,2" d="M440.48,-511.4C421.92,-503.7 401.91,-492.91 387,-478.38 366.31,-458.2 351.82,-429.12 342.5,-405.05"/>
<polygon fill="#ffa500" stroke="#ffa500" stroke-width="1.5" points="345.69,-403.59 338.93,-395.43 339.12,-406.02 345.69,-403.59"/>
<text text-anchor="middle" x="396.5" y="-471.18" font-family="Arial" font-size="9.00">CLK</text>
</g>
<!-- PLL&#45;&gt;DECODER -->
<g id="edge10" class="edge">
<title>PLL&#45;&gt;DECODER</title>
<path fill="none" stroke="#ffa500" stroke-width="1.5" stroke-dasharray="5,2" d="M492,-510.29C492,-482.34 492,-426.51 492,-391.86"/>
<polygon fill="#ffa500" stroke="#ffa500" stroke-width="1.5" points="495.5,-391.41 492,-381.41 488.5,-391.41 495.5,-391.41"/>
<text text-anchor="middle" x="501.5" y="-471.18" font-family="Arial" font-size="9.00">CLK</text>
</g>
<!-- PLL&#45;&gt;MUX -->
<g id="edge11" class="edge">
<title>PLL&#45;&gt;MUX</title>
<path fill="none" stroke="#ffa500" stroke-width="1.5" stroke-dasharray="5,2" d="M505.03,-510.26C515.1,-496.86 529.26,-477.66 541,-460.38 556.85,-437.04 573.85,-409.86 586.04,-389.97"/>
<polygon fill="#ffa500" stroke="#ffa500" stroke-width="1.5" points="589.05,-391.74 591.27,-381.38 583.08,-388.1 589.05,-391.74"/>
<text text-anchor="middle" x="543.5" y="-471.18" font-family="Arial" font-size="9.00">CLK</text>
</g>
<!-- PLL&#45;&gt;IROM_CTRL -->
<g id="edge12" class="edge">
<title>PLL&#45;&gt;IROM_CTRL</title>
<path fill="none" stroke="#ffa500" stroke-width="1.5" stroke-dasharray="5,2" d="M543.5,-523.98C608.61,-518.6 715.54,-505.78 743,-478.38 765.57,-455.85 769.27,-418.01 768.65,-391.59"/>
<polygon fill="#ffa500" stroke="#ffa500" stroke-width="1.5" points="772.14,-391.22 768.19,-381.39 765.15,-391.53 772.14,-391.22"/>
<text text-anchor="middle" x="760.5" y="-471.18" font-family="Arial" font-size="9.00">CLK</text>
</g>
<!-- PLL&#45;&gt;BRAM_CTRL -->
<g id="edge13" class="edge">
<title>PLL&#45;&gt;BRAM_CTRL</title>
<path fill="none" stroke="#ffa500" stroke-width="1.5" stroke-dasharray="5,2" d="M543.75,-522.7C626.98,-514.28 785.75,-494.21 830,-460.38 853.71,-442.25 871.22,-412.66 881.88,-390.63"/>
<polygon fill="#ffa500" stroke="#ffa500" stroke-width="1.5" points="885.12,-391.96 886.16,-381.41 878.78,-389.01 885.12,-391.96"/>
<text text-anchor="middle" x="825.5" y="-471.18" font-family="Arial" font-size="9.00">CLK</text>
</g>
<!-- UART&#45;&gt;UART_IO -->
<g id="edge33" class="edge">
<title>UART&#45;&gt;UART_IO</title>
<path fill="none" stroke="#228b22" stroke-width="1.5" d="M382.86,-239.62C374.65,-257.17 361.25,-279.01 342,-290.38 322.8,-301.71 263.06,-291.07 242,-298.38 226.86,-303.63 221.03,-305.14 212,-318.38 175.59,-371.73 209.42,-402.37 181,-460.38 176.1,-470.38 169.39,-480.16 162.33,-489.03"/>
<polygon fill="#228b22" stroke="#228b22" stroke-width="1.5" points="386.1,-240.97 386.9,-230.41 379.68,-238.16 386.1,-240.97"/>
<polygon fill="#228b22" stroke="#228b22" stroke-width="1.5" points="159.49,-486.97 155.78,-496.89 164.87,-491.45 159.49,-486.97"/>
<text text-anchor="middle" x="225.5" y="-358.68" font-family="Arial" font-size="9.00">TX/RX</text>
</g>
<!-- SEG7&#45;&gt;DISPLAY -->
<g id="edge31" class="edge">
<title>SEG7&#45;&gt;DISPLAY</title>
<path fill="none" stroke="#228b22" stroke-width="1.5" d="M590.12,-193.91C582.97,-171.98 567.42,-134.74 540,-116 481.74,-76.17 281.38,-58.96 173.73,-52.45"/>
<polygon fill="#228b22" stroke="#228b22" stroke-width="1.5" points="173.8,-48.95 163.61,-51.85 173.38,-55.94 173.8,-48.95"/>
<text text-anchor="middle" x="533.5" y="-100.8" font-family="Arial" font-size="9.00">驱动</text>
</g>
<!-- LED&#45;&gt;LEDS -->
<g id="edge32" class="edge">
<title>LED&#45;&gt;LEDS</title>
<path fill="none" stroke="#228b22" stroke-width="1.5" d="M486.71,-230.46C480.22,-249.17 467.25,-277.28 445,-290.38 400.43,-316.6 258.99,-300.06 245.5,-296.38 211.86,-287.18 178.09,-267.78 151.87,-249.92"/>
<polygon fill="#228b22" stroke="#228b22" stroke-width="1.5" points="153.84,-247.03 143.63,-244.19 149.85,-252.78 153.84,-247.03"/>
<text text-anchor="middle" x="257" y="-301.18" font-family="Arial" font-size="9.00">驱动</text>
</g>
<!-- KEY&#45;&gt;CPU -->
<g id="edge27" class="edge">
<title>KEY&#45;&gt;CPU</title>
<path fill="none" stroke="#228b22" stroke-dasharray="1,5" d="M296.31,-230.28C301.6,-251.24 310.75,-287.51 318.02,-316.36"/>
<polygon fill="#228b22" stroke="#228b22" points="314.67,-317.38 320.51,-326.22 321.46,-315.67 314.67,-317.38"/>
<text text-anchor="middle" x="332" y="-301.18" font-family="Arial" font-size="9.00">按键值</text>
</g>
<!-- legend -->
<g id="node20" class="node">
<title>legend</title>
<text text-anchor="start" x="548" y="-903.17" font-family="Arial" font-size="9.00">━━━━ 实线：数据/地址通路</text>
<text text-anchor="start" x="548" y="-887.17" font-family="Arial" font-size="9.00">┈┈┈┈ 虚线：读取数据返回</text>
<text text-anchor="start" x="548" y="-871.17" font-family="Arial" font-size="9.00">······ 点线：控制/状态信号</text>
</g>
</g>
</svg>
